<?xml version="1.0" encoding="iso-8859-1"?>
<!-- Generator: Adobe Illustrator 19.0.0, SVG Export Plug-In . SVG Version: 6.00 Build 0)  -->
<svg version="1.1" id="Capa_1" xmlns="http://www.w3.org/2000/svg" xmlns:xlink="http://www.w3.org/1999/xlink" x="0px" y="0px"
	 viewBox="0 0 512 512" style="enable-background:new 0 0 512 512;" xml:space="preserve">
<path style="fill:#49B9DE;" d="M256,256c-70.579,0-128,57.42-128,128s57.421,128,128,128s128-57.42,128-128S326.579,256,256,256z"/>
<path style="fill:#4296BD;" d="M272,496c-70.579,0-128-57.42-128-128c0-31.225,11.245-59.869,29.889-82.11
	C145.858,309.388,128,344.646,128,384c0,70.58,57.421,128,128,128c39.354,0,74.612-17.858,98.111-45.89
	C331.869,484.755,303.225,496,272,496z"/>
<g>
	<path style="fill:#F6D45A;" d="M298.245,324.704c-11.696-3.056-21.797-5.695-27.09-16.282c-1.659-3.319-5.384-5.06-8.993-4.208
		C258.551,305.066,256,308.29,256,312v112c0,4.418,3.582,8,8,8s8-3.582,8-8v-92.062c7.182,4.322,15.162,6.407,22.2,8.246
		c16.089,4.204,25.8,6.741,25.8,27.816c0,4.418,3.582,8,8,8s8-3.582,8-8C336,334.569,315.065,329.099,298.245,324.704z"/>
	<path style="fill:#F6D45A;" d="M232,392c-22.056,0-40,14.355-40,32s17.944,32,40,32s40-14.355,40-32S254.056,392,232,392z"/>
</g>
<path style="fill:#F2A83B;" d="M232,440c-18.604,0-34.282-10.214-38.734-24c-0.826,2.558-1.266,5.239-1.266,8
	c0,17.645,17.944,32,40,32s40-14.355,40-32c0-2.761-0.44-5.442-1.266-8C266.282,429.786,250.604,440,232,440z"/>
<path style="fill:#F6D45A;" d="M454.3,68.845c-27.644-21.854-58.435-38.874-91.516-50.583C328.552,6.144,292.624,0,256,0
	s-72.552,6.144-106.784,18.262C116.135,29.972,85.344,46.991,57.7,68.845c-10.381,8.207-12.15,23.33-3.943,33.712
	c8.209,10.38,23.331,12.148,33.711,3.942C135.878,68.229,194.155,48,256,48s120.122,20.229,168.532,58.5
	c10.274,8.12,25.604,6.309,33.712-3.943C466.45,92.175,464.681,77.052,454.3,68.845z"/>
<path style="fill:#F2A83B;" d="M458.244,86.894c-8.108,10.252-23.438,12.064-33.712,3.943c-48.41-38.271-106.688-58.5-168.532-58.5
	s-120.122,20.229-168.532,58.5c-10.38,8.206-25.502,6.438-33.711-3.942c-1.718-2.174-2.993-4.557-3.85-7.039
	c-2.562,7.472-1.403,16.057,3.85,22.701c8.209,10.38,23.331,12.148,33.711,3.942C135.878,68.229,194.155,48,256,48
	s120.122,20.229,168.532,58.5c10.274,8.12,25.604,6.309,33.712-3.943c5.252-6.644,6.411-15.228,3.849-22.7
	C461.237,82.338,459.962,84.721,458.244,86.894z"/>
<path style="fill:#F6D45A;" d="M399.771,137.916L399.771,137.916C358.465,105.261,308.749,88,256,88s-102.464,17.26-143.771,49.915
	c-10.381,8.207-12.15,23.33-3.944,33.711c8.106,10.254,23.438,12.064,33.712,3.944C174.742,149.683,214.164,136,256,136
	s81.258,13.683,114.003,39.57c10.384,8.208,25.506,6.437,33.712-3.943C411.921,161.245,410.151,146.123,399.771,137.916z"/>
<path style="fill:#F2A83B;" d="M403.715,155.626c-8.206,10.38-23.328,12.151-33.712,3.943C337.258,133.683,297.836,120,256,120
	s-81.258,13.683-114.004,39.57c-10.274,8.12-25.606,6.31-33.712-3.944c-1.679-2.125-2.934-4.45-3.79-6.872
	c-2.64,7.512-1.502,16.177,3.79,22.872c8.106,10.254,23.438,12.064,33.712,3.944C174.742,149.683,214.164,136,256,136
	s81.258,13.683,114.003,39.57c10.384,8.208,25.506,6.437,33.712-3.943c5.292-6.695,6.429-15.36,3.79-22.872
	C406.649,151.176,405.394,153.502,403.715,155.626z"/>
<path style="fill:#F6D45A;" d="M350.199,200.707L350.199,200.707C323.135,179.31,290.56,168,256,168s-67.135,11.31-94.199,32.707
	c-10.381,8.207-12.15,23.33-3.943,33.711c8.207,10.38,23.33,12.149,33.711,3.943C210.073,223.732,232.353,216,256,216
	s45.927,7.732,64.432,22.361c8.497,6.717,20.859,6.843,29.456,0.253c7.573-5.805,11.021-15.779,8.671-25.02
	C357.268,208.52,354.307,203.954,350.199,200.707z"/>
<path style="fill:#F2A83B;" d="M357.908,211.488c-1.522,4.336-4.261,8.245-8.02,11.127c-8.597,6.59-20.959,6.464-29.456-0.253
	C301.927,207.732,279.646,200,256,200s-45.927,7.732-64.432,22.361c-10.381,8.206-25.504,6.438-33.711-3.943
	c-1.68-2.125-2.935-4.45-3.79-6.873c-2.64,7.512-1.502,16.177,3.79,22.873c8.207,10.38,23.33,12.149,33.711,3.943
	C210.073,223.732,232.353,216,256,216s45.927,7.732,64.432,22.361c8.497,6.717,20.859,6.843,29.456,0.253
	c7.573-5.805,11.021-15.779,8.671-25.02C358.377,212.88,358.154,212.179,357.908,211.488z"/>
<g>
</g>
<g>
</g>
<g>
</g>
<g>
</g>
<g>
</g>
<g>
</g>
<g>
</g>
<g>
</g>
<g>
</g>
<g>
</g>
<g>
</g>
<g>
</g>
<g>
</g>
<g>
</g>
<g>
</g>
</svg>
