<svg id="Layer_1" enable-background="new 0 0 512 512" height="512" viewBox="0 0 512 512" width="512" xmlns="http://www.w3.org/2000/svg"><path d="m512 55.075c0-30.368-24.673-55.075-54.999-55.075s-54.999 24.707-54.999 55.075c0 27.06 20.646 50.92 47.499 54.561v38.77h-119.001v-38.77c26.853-3.642 47.499-27.495 47.499-54.561 0-30.368-24.673-55.075-54.999-55.075s-54.999 24.707-54.999 55.075c0 27.052 20.646 50.929 47.499 54.561v46.27c0 4.142 3.357 7.5 7.5 7.5h59.501v38.044c-24.338 3.34-43.645 22.676-46.976 47.05h-159.05c-3.331-24.374-22.637-43.71-46.976-47.05v-38.044h59.501c4.143 0 7.5-3.358 7.5-7.5v-46.27c26.854-3.632 47.499-27.503 47.499-54.561 0-30.368-24.673-55.075-54.999-55.075s-54.999 24.707-54.999 55.075c0 27.06 20.646 50.92 47.499 54.561v38.77h-119.001v-38.77c26.854-3.632 47.499-27.503 47.499-54.561 0-30.368-24.673-55.075-54.999-55.075s-54.999 24.707-54.999 55.075c0 27.052 20.646 50.929 47.499 54.561v46.27c0 4.142 3.357 7.5 7.5 7.5h59.5v38.031c-17.22 2.366-32.467 12.789-40.894 28.378-1.97 3.644-.612 8.194 3.031 10.164s8.195.612 10.164-3.031c7.01-12.968 20.497-21.023 35.198-21.023 22.056 0 39.999 17.978 39.999 40.075 0 8.872-2.897 17.076-7.786 23.723-2.92-5.768-7.333-10.644-12.716-14.121 3.693-4.419 5.922-10.105 5.922-16.304 0-14.031-11.402-25.446-25.418-25.446-14.015 0-25.417 11.415-25.417 25.446 0 6.199 2.228 11.885 5.921 16.304-5.387 3.48-9.803 8.361-12.723 14.135-2.346-3.194-4.247-6.767-5.586-10.651-1.35-3.915-5.616-5.996-9.535-4.646-3.916 1.35-5.996 5.619-4.646 9.535 7.579 21.98 28.731 37.1 51.986 37.1 27.074 0 50.802-20.692 54.476-47.575h72.025v85.075l-126.499-.031c-.001 0-.001 0-.002 0-1.988 0-3.896.79-5.303 2.196s-2.197 3.314-2.197 5.304v46.331c-26.789 3.676-47.499 26.73-47.499 54.55 0 29.953 25.089 55.075 54.999 55.075 29.919 0 54.999-25.116 54.999-55.075 0-27.82-20.71-50.874-47.499-54.55v-38.829l119.001.029v38.8c-26.789 3.676-47.499 26.73-47.499 54.55 0 29.954 25.089 55.075 54.999 55.075 29.919 0 54.999-25.116 54.999-55.075 0-27.82-20.71-50.874-47.499-54.55v-38.796l119.001.029v38.767c-26.79 3.676-47.499 26.73-47.499 54.55 0 29.954 25.086 55.071 54.995 55.075 23.724 0 45.2-15.737 52.398-38.309 1.259-3.947-.921-8.166-4.867-9.424-3.946-1.259-8.166.92-9.424 4.867-1.352 4.239-3.353 8.121-5.868 11.558-2.92-5.788-7.342-10.679-12.739-14.166 3.693-4.419 5.921-10.105 5.921-16.304 0-14.031-11.402-25.446-25.417-25.446-14.016 0-25.418 11.415-25.418 25.446 0 6.199 2.228 11.885 5.922 16.304-5.383 3.477-9.796 8.353-12.716 14.121-4.89-6.647-7.787-14.851-7.787-23.723 0-22.317 18.363-39.521 40.188-40.069 15.309.071 28.994 8.659 35.745 22.459 1.821 3.72 6.312 5.261 10.033 3.44 3.721-1.82 5.262-6.313 3.441-10.033-8.2-16.76-23.849-27.928-41.908-30.366v-46.245c0-4.142-3.356-7.499-7.498-7.5l-126.503-.031v-85.079h72.025c3.673 26.879 27.406 47.575 54.476 47.575 29.919 0 54.999-25.116 54.999-55.075 0-27.82-20.71-50.874-47.499-54.55v-38.044h59.5c4.143 0 7.5-3.358 7.5-7.5v-46.27c26.854-3.632 47.499-27.502 47.499-54.561zm-191.417 39.996c-6.315-.382-12.51-2.286-17.947-5.522 2.433-9.031 10.705-15.633 20.364-15.633 9.658 0 17.931 6.601 20.365 15.632-6.848 4.074-14.832 5.992-22.782 5.523zm2.417-36.253c-5.744 0-10.417-4.686-10.417-10.446s4.673-10.446 10.417-10.446 10.418 4.686 10.418 10.446-4.674 10.446-10.418 10.446zm-39.999-3.743c0-22.097 17.943-40.075 39.999-40.075s39.999 17.978 39.999 40.075c0 8.872-2.897 17.076-7.787 23.723-2.92-5.769-7.333-10.644-12.716-14.122 3.693-4.419 5.922-10.105 5.922-16.304 0-14.031-11.402-25.446-25.418-25.446-14.015 0-25.417 11.415-25.417 25.446 0 6.199 2.228 11.885 5.922 16.304-5.383 3.478-9.796 8.354-12.717 14.122-4.89-6.646-7.787-14.85-7.787-23.723zm-103.325 38.965c-3.88-.925-7.614-2.451-11.041-4.491 2.434-9.031 10.706-15.632 20.365-15.632 9.658 0 17.931 6.602 20.364 15.633-8.868 5.277-19.654 6.9-29.688 4.49zm9.324-35.222c-5.744 0-10.418-4.686-10.418-10.446s4.674-10.446 10.418-10.446 10.417 4.686 10.417 10.446-4.673 10.446-10.417 10.446zm-39.999-3.743c0-22.097 17.943-40.075 39.999-40.075s39.999 17.978 39.999 40.075c0 8.872-2.897 17.077-7.787 23.724-2.92-5.769-7.333-10.645-12.717-14.122 3.693-4.419 5.922-10.105 5.922-16.304 0-14.031-11.402-25.446-25.417-25.446-14.016 0-25.418 11.415-25.418 25.446 0 6.199 2.228 11.885 5.922 16.304-5.383 3.478-9.796 8.353-12.716 14.122-4.89-6.648-7.787-14.852-7.787-23.724zm-96.419 39.996c-6.315-.382-12.511-2.286-17.947-5.522 2.433-9.031 10.704-15.633 20.364-15.633s17.931 6.602 20.364 15.633c-6.846 4.074-14.833 5.991-22.781 5.522zm2.417-36.253c-5.744 0-10.417-4.686-10.417-10.446s4.673-10.446 10.417-10.446 10.418 4.686 10.418 10.446-4.674 10.446-10.418 10.446zm-39.999-3.743c0-22.097 17.943-40.075 39.999-40.075s39.999 17.978 39.999 40.075c0 8.872-2.897 17.076-7.786 23.723-2.92-5.769-7.333-10.644-12.716-14.122 3.693-4.419 5.922-10.105 5.922-16.304 0-14.031-11.402-25.446-25.418-25.446-14.015 0-25.417 11.415-25.417 25.446 0 6.199 2.228 11.885 5.921 16.303-5.384 3.477-9.797 8.353-12.717 14.122-4.89-6.646-7.787-14.85-7.787-23.722zm126.267 236.031c-12.254 6.791-27.589 6.519-39.634-.625 2.43-9.035 10.705-15.64 20.366-15.64 9.658 0 17.931 6.601 20.365 15.632-.363.216-.728.428-1.097.633zm-19.268-52.254c5.744 0 10.418 4.686 10.418 10.446s-4.674 10.446-10.418 10.446-10.417-4.686-10.417-10.446 4.673-10.446 10.417-10.446zm0 221.816c-5.744 0-10.417-4.686-10.417-10.446s4.673-10.446 10.417-10.446 10.418 4.686 10.418 10.446-4.674 10.446-10.418 10.446zm0 15.098c9.658 0 17.931 6.601 20.365 15.633-12.423 7.389-28.305 7.397-40.728 0 2.432-9.032 10.705-15.633 20.363-15.633zm39.999-18.841c0 8.872-2.897 17.076-7.787 23.723-2.92-5.769-7.333-10.644-12.716-14.121 3.693-4.419 5.922-10.105 5.922-16.304 0-14.031-11.402-25.446-25.418-25.446-14.015 0-25.417 11.415-25.417 25.446 0 6.199 2.228 11.885 5.921 16.304-5.383 3.478-9.796 8.353-12.716 14.122-4.89-6.648-7.787-14.852-7.787-23.724 0-22.098 17.943-40.075 39.999-40.075s39.999 17.977 39.999 40.075zm94.002 3.743c-5.744 0-10.417-4.686-10.417-10.446s4.673-10.446 10.417-10.446 10.417 4.686 10.417 10.446-4.673 10.446-10.417 10.446zm0 15.098c9.659 0 17.931 6.601 20.364 15.633-12.423 7.393-28.304 7.391-40.728 0 2.433-9.031 10.705-15.633 20.364-15.633zm39.999-18.841c0 8.872-2.897 17.076-7.787 23.723-2.92-5.769-7.333-10.644-12.716-14.122 3.693-4.419 5.921-10.105 5.921-16.304 0-14.031-11.402-25.446-25.417-25.446s-25.417 11.415-25.417 25.446c0 6.199 2.228 11.885 5.921 16.304-5.383 3.477-9.796 8.353-12.716 14.122-4.89-6.647-7.787-14.851-7.787-23.723 0-22.098 17.943-40.075 39.999-40.075s39.999 17.977 39.999 40.075zm107.262 37.825c-11.066 3.859-23.545 2.652-33.625-3.352 2.433-9.031 10.706-15.633 20.365-15.633 9.667 0 17.946 6.613 20.371 15.657-2.267 1.351-4.647 2.461-7.111 3.328zm-13.26-54.974c5.744 0 10.417 4.686 10.417 10.446s-4.673 10.446-10.417 10.446-10.418-4.686-10.418-10.446 4.674-10.446 10.418-10.446zm0-180.032c-5.744 0-10.418-4.686-10.418-10.446s4.674-10.446 10.418-10.446 10.417 4.686 10.417 10.446-4.673 10.446-10.417 10.446zm0 15.097c9.658 0 17.931 6.602 20.364 15.633-12.424 7.394-28.304 7.391-40.729 0 2.434-9.032 10.707-15.633 20.365-15.633zm39.999-18.841c0 8.872-2.897 17.077-7.787 23.724-2.92-5.769-7.333-10.645-12.716-14.122 3.693-4.419 5.921-10.105 5.921-16.304 0-14.031-11.402-25.446-25.417-25.446-14.016 0-25.418 11.415-25.418 25.446 0 6.199 2.228 11.885 5.922 16.304-5.383 3.477-9.796 8.353-12.716 14.121-4.89-6.647-7.787-14.851-7.787-23.723 0-22.098 17.943-40.075 39.999-40.075s39.999 17.977 39.999 40.075zm-12.998-200.925c0-22.098 17.943-40.075 39.999-40.075s39.999 17.978 39.999 40.075c0 8.872-2.897 17.076-7.787 23.723-2.92-5.769-7.333-10.645-12.717-14.122 3.693-4.419 5.921-10.105 5.921-16.303 0-14.031-11.402-25.446-25.417-25.446-14.016 0-25.418 11.415-25.418 25.446 0 6.199 2.229 11.885 5.922 16.304-5.383 3.478-9.796 8.353-12.716 14.122-4.889-6.648-7.786-14.852-7.786-23.724zm59.287 35.094c-12.254 6.802-27.617 6.539-39.653-.621 2.434-9.031 10.707-15.632 20.365-15.632 9.659 0 17.931 6.602 20.364 15.633-.356.211-.714.42-1.076.62zm-19.288-31.351c-5.744 0-10.418-4.686-10.418-10.446s4.674-10.446 10.418-10.446 10.417 4.686 10.417 10.446-4.673 10.446-10.417 10.446z"/></svg>