<?xml version="1.0" encoding="iso-8859-1"?>
<!-- Generator: Adobe Illustrator 19.0.0, SVG Export Plug-In . SVG Version: 6.00 Build 0)  -->
<svg version="1.1" id="Layer_1" xmlns="http://www.w3.org/2000/svg" xmlns:xlink="http://www.w3.org/1999/xlink" x="0px" y="0px"
	 viewBox="0 0 512 512" style="enable-background:new 0 0 512 512;" xml:space="preserve">
<g>
	<path style="fill:#FFDE33;" d="M256,62c-8.284,0-15-6.716-15-15V15c0-8.284,6.716-15,15-15s15,6.716,15,15v32
		C271,55.284,264.284,62,256,62z"/>
	<path style="fill:#FFDE33;" d="M256,512c-8.284,0-15-6.716-15-15v-32c0-8.284,6.716-15,15-15s15,6.716,15,15v32
		C271,505.284,264.284,512,256,512z"/>
	<path style="fill:#FFDE33;" d="M108.922,123.922c-3.839,0-7.678-1.465-10.606-4.394L75.688,96.9
		c-5.858-5.857-5.858-15.355,0-21.213c5.857-5.857,15.355-5.857,21.213,0l22.628,22.628c5.858,5.857,5.858,15.355,0,21.213
		C116.6,122.457,112.761,123.922,108.922,123.922z"/>
</g>
<path style="fill:#FAA736;" d="M425.706,440.706c-3.839,0-7.678-1.465-10.606-4.394l-22.628-22.628
	c-5.858-5.857-5.858-15.355,0-21.213c5.857-5.857,15.355-5.857,21.213,0l22.628,22.628c5.858,5.857,5.858,15.355,0,21.213
	C433.384,439.241,429.545,440.706,425.706,440.706z"/>
<path style="fill:#FFDE33;" d="M47,271H15c-8.284,0-15-6.716-15-15s6.716-15,15-15h32c8.284,0,15,6.716,15,15S55.284,271,47,271z"/>
<path style="fill:#FAA736;" d="M497,271h-32c-8.284,0-15-6.716-15-15s6.716-15,15-15h32c8.284,0,15,6.716,15,15S505.284,271,497,271
	z"/>
<path style="fill:#FFDE33;" d="M86.294,440.706c-3.839,0-7.678-1.465-10.606-4.394c-5.858-5.857-5.858-15.355,0-21.213
	l22.628-22.628c5.857-5.857,15.355-5.857,21.213,0s5.858,15.355,0,21.213L96.9,436.313
	C93.972,439.241,90.133,440.706,86.294,440.706z"/>
<path style="fill:#FAA736;" d="M403.078,123.922c-3.839,0-7.678-1.465-10.606-4.394c-5.858-5.857-5.858-15.355,0-21.213
	L415.1,75.688c5.857-5.857,15.355-5.857,21.213,0s5.858,15.355,0,21.213l-22.628,22.628
	C410.756,122.457,406.917,123.922,403.078,123.922z"/>
<path style="fill:#FFDE33;" d="M256,415c-87.673,0-159-71.327-159-159S168.327,97,256,97s159,71.327,159,159S343.673,415,256,415z"
	/>
<g>
	<path style="fill:#FFBC33;" d="M415,256c0-87.673-71.327-159-159-159v318C343.673,415,415,343.673,415,256z"/>
	<path style="fill:#FFBC33;" d="M271,497v-32c0-8.284-6.716-15-15-15v62C264.284,512,271,505.284,271,497z"/>
</g>
<path style="fill:#FAA736;" d="M271,47V15c0-8.284-6.716-15-15-15v62C264.284,62,271,55.284,271,47z"/>
<g>
</g>
<g>
</g>
<g>
</g>
<g>
</g>
<g>
</g>
<g>
</g>
<g>
</g>
<g>
</g>
<g>
</g>
<g>
</g>
<g>
</g>
<g>
</g>
<g>
</g>
<g>
</g>
<g>
</g>
</svg>
