<?xml version="1.0" encoding="UTF-8"?>
<svg xmlns="http://www.w3.org/2000/svg" xmlns:xlink="http://www.w3.org/1999/xlink" width="512" height="512" viewBox="0 0 60 60" version="1.1">
    <!-- Generator: Sketch 51.3 (57544) - http://www.bohemiancoding.com/sketch -->
    <title>035 - Creative Thinking</title>
    <desc>Created with Sketch.</desc>
    <defs />
    <g id="Page-1" stroke="none" stroke-width="1" fill="none" fill-rule="evenodd">
        <g id="035---Creative-Thinking" fill="#FFFFFF" fill-rule="nonzero">
            <path d="M51.768,44 C52.0856025,42.3140518 52.0774559,40.5828844 51.744,38.9 L56.324,27.847 C56.324475,27.8396744 56.324475,27.8323256 56.324,27.825 C57.0661765,25.7930545 58.1538399,23.9046136 59.539,22.243 C59.8836484,21.8789644 60.0222907,21.3661004 59.908,20.878 L58.03,12.768 C58.0076534,12.6832194 57.9740193,12.6018249 57.93,12.526 C57.922,12.511 57.919,12.493 57.911,12.479 C57.903,12.465 57.868,12.431 57.848,12.405 C57.8070754,12.3450856 57.7598015,12.289765 57.707,12.24 C57.6722201,12.2155312 57.6358011,12.1934793 57.598,12.174 C57.5492374,12.1381108 57.4973643,12.1066523 57.443,12.08 C57.3676163,12.0515286 57.2890326,12.0323864 57.209,12.023 C57.186,12.023 57.166,12.008 57.143,12.006 C56.9513318,11.9932273 56.7600407,12.0359293 56.592,12.129 C56.577,12.137 56.559,12.14 56.544,12.149 L56.534,12.149 L49.473,16.556 C49.0453916,16.8207951 48.7799726,17.2832106 48.767,17.786 C48.5708465,19.9451573 48.0021029,22.0540084 47.086,24.019 L47.086,24.03 L44.797,29.563 C43.6735383,28.9657711 42.4708203,28.5314189 41.225,28.273 C41.6965799,25.0179304 41.8699664,21.7266009 41.743,18.44 C43.604505,16.2065491 44.4978928,13.322656 44.225,10.428 C43.6,4.6 38.333,0.391 38.108,0.214 C37.7698279,-0.0523076579 37.2991856,-0.0723356385 36.9396118,0.164279752 C36.5800381,0.400895143 36.4122213,0.841057472 36.523,1.257 C37.038,3.191 36.592,5.232 32.788,9.429 C31.0788905,11.0792882 30.537151,13.599108 31.417,15.806 C31.7534006,16.6500981 32.2353835,17.4285817 32.841,18.106 C32.599,19.651 32.409,21.114 32.278,22.539 C32.0524317,24.8959149 31.9942858,27.265859 32.104,29.631 C31.2118959,30.1146673 30.3767018,30.6966199 29.614,31.366 L24.764,10.626 C24.764,10.605 24.744,10.59 24.738,10.571 C24.7217221,10.5043223 24.6982512,10.4396096 24.668,10.378 L19.714,1.229 C19.2182173,0.313273248 18.1708425,-0.157291495 17.1569551,0.0801703906 C16.1430676,0.317632276 15.413582,1.20435428 15.376,2.245 L15,12.64 C15.0002426,12.7150188 15.008625,12.7897898 15.025,12.863 C15.025,12.879 15.025,12.893 15.025,12.908 L19.973,34.025 C19.1924497,34.0594615 18.4176072,34.1750846 17.661,34.37 L12.218,21.225 C11.7815445,20.2201514 10.6239386,19.7460209 9.608,20.156 L1.289,23.6 C0.270867195,24.0249847 -0.212979105,25.1923811 0.206,26.213 L7.588,44.021 C3.26150639,44.2481552 -0.0968272987,47.8800633 0.0148428609,52.2110766 C0.12651302,56.5420899 3.66754905,59.9961056 8,60 L52,60 C54.8581247,59.9585572 57.4770315,58.3954711 58.8702033,55.8995411 C60.2633752,53.403611 60.2191562,50.3540282 58.7542033,47.899541 C57.2892504,45.4450538 54.6261247,43.9585571 51.768,44 Z M50.749,18.116 L54.941,15.5 L53.457,19.084 C53.245475,19.5943111 53.4876889,20.1794749 53.998,20.391 C54.5083111,20.602525 55.0934749,20.3603111 55.305,19.85 L56.789,16.266 L57.9,21.079 C56.7113253,22.5291466 55.734886,24.1409448 55,25.866 C53.9574136,26.3492829 52.7601885,26.3743606 51.6982793,25.9351595 C50.6363701,25.4959584 49.8066253,24.6325347 49.41,23.554 C50.1123254,21.8141227 50.5631888,19.9830587 50.749,18.116 Z M48.449,25.967 C49.1105604,26.7758235 49.9690737,27.4008543 50.942,27.782 C51.715358,28.1146316 52.5471787,28.290038 53.389,28.298 C53.591541,28.2972561 53.7938729,28.2849025 53.995,28.261 L50.804,35.961 C49.8484967,33.8543108 48.3703843,32.0268077 46.51,30.652 L48.449,25.967 Z M34.749,18.825 L39.773,19.132 C39.804,20.066 39.793,21.032 39.762,22.013 C38.0883269,22.1325863 36.4063552,22.0513414 34.752,21.771 C34.626,21.753 34.503,21.739 34.378,21.722 C34.478,20.78 34.6,19.826 34.747,18.825 L34.749,18.825 Z M34.272,10.772 C36.927,7.843 38.303,5.59 38.623,3.472 C40.5314164,5.43554589 41.7911468,7.93755405 42.232,10.64 C42.4420201,12.9925925 41.7146102,15.3329547 40.208,17.152 C38.2326667,17.032 36.279,16.912 34.347,16.792 C33.5168477,16.0159322 33.0392934,14.9347398 33.0247591,13.7984199 C33.0102248,12.6621001 33.4599689,11.5690469 34.27,10.772 L34.272,10.772 Z M34.196,23.715 L34.486,23.753 C35.7745642,23.9522813 37.0752882,24.0628746 38.379,24.084 C38.793,24.084 39.229,24.051 39.666,24.017 C39.575,25.304 39.426,26.648 39.237,28.037 C38.99,28.024 38.748,28 38.5,28 C36.9902207,28.0027075 35.4917669,28.2606769 34.068,28.763 C34.0218873,27.0792875 34.0639448,25.3943153 34.194,23.715 L34.196,23.715 Z M26.461,35.409 L23.6,23.222 C23.4662477,22.6932758 22.9335138,22.3692275 22.4025034,22.4935935 C21.871493,22.6179596 21.5380592,23.14487 21.653,23.678 L24.224,34.647 C23.517125,34.3941989 22.7868667,34.2123043 22.044,34.104 L17.655,15.374 C18.2698416,15.6539387 18.9374297,15.7991851 19.613,15.8 C19.676,15.8 19.743,15.791 19.807,15.788 L20.514,18.807 C20.5901849,19.1603687 20.8511485,19.4451122 21.1965506,19.5517471 C21.5419527,19.6583819 21.9180157,19.5703055 22.180144,19.3213831 C22.4422723,19.0724608 22.5496536,18.7014484 22.461,18.351 L21.753,15.33 C22.4314789,15.0296393 23.0298927,14.5740638 23.5,14 L27.962,33.079 C27.3825613,33.8017588 26.879544,34.5825919 26.461,35.409 Z M20.351,13.709 C19.0720813,13.9570346 17.7662877,13.4341696 17.012,12.372 L17.139,8.85 C17.4869445,8.91498735 17.8400419,8.9484563 18.194,8.95 C18.5358802,8.95143397 18.8767897,8.91351786 19.21,8.837 C19.8846038,8.65983419 20.5156381,8.34601888 21.064,7.915 L22.748,11.023 C22.5473524,12.3125204 21.6092117,13.364553 20.351,13.711 L20.351,13.709 Z M17.612,2.027 C17.7482203,1.99545014 17.8887964,2.05838247 17.956,2.181 L20.1,6.146 C19.7132356,6.49589258 19.251407,6.75246404 18.75,6.896 C18.2375254,6.99006401 17.7102877,6.9650878 17.209,6.823 L17.372,2.317 C17.3774346,2.17726662 17.4757483,2.05847091 17.612,2.027 Z M10.375,22 L11.139,23.846 L7.439,25.378 C7.00035989,25.5622018 6.75222069,26.0299323 6.84566243,26.4964128 C6.93910416,26.9628934 7.34825387,27.2989609 7.824,27.3 C7.95538473,27.2997188 8.08546267,27.2739069 8.207,27.224 L11.907,25.691 L12.672,27.539 L10.821,28.306 C10.3798476,28.4885668 10.1292844,28.9575225 10.2227303,29.4257253 C10.3161762,29.8939282 10.7275636,30.230769 11.205,30.23 C11.336043,30.2295389 11.4657595,30.2037315 11.587,30.154 L13.438,29.387 L14.203,31.235 L10.5,32.77 C10.0588476,32.9525668 9.80828442,33.4215225 9.90173032,33.8897253 C9.99517622,34.3579282 10.4065636,34.694769 10.884,34.694 C11.0150532,34.6936401 11.1447888,34.6678288 11.266,34.618 L14.966,33.086 L15.775,35.039 C12.5163937,36.5263705 10.1268887,39.4347395 9.3,42.92 L2.052,25.444 L10.375,22 Z M52,58 L8,58 C4.6862915,58 2,55.3137085 2,52 C2,48.6862915 4.6862915,46 8,46 C8.57942611,45.9980712 9.15596677,46.0816376 9.711,46.248 C10.0108425,46.338574 10.3358014,46.2834241 10.5889724,46.0989962 C10.8421434,45.9145683 10.9942747,45.6221715 11,45.309 C11.0711354,41.7450748 13.1313914,38.5208944 16.3356408,36.9590336 C19.5398902,35.3971729 23.3488245,35.7605091 26.2,37.9 C26.4519502,38.0875272 26.7773658,38.1457891 27.0787289,38.0573264 C27.380092,37.9688637 27.6223851,37.7439553 27.733,37.45 C29.6867054,32.2431824 35.0863822,29.180449 40.5579023,30.1756283 C46.0294225,31.1708076 50.0048349,35.938715 50,41.5 C50.0019482,42.6436372 49.831707,43.7810507 49.495,44.874 C49.3898991,45.2140443 49.4734568,45.5843237 49.7144054,45.8462781 C49.955354,46.1082324 50.3173755,46.2223776 50.665,46.146 C51.1034596,46.0494957 51.5510461,46.0005462 52,46 C55.3137085,46 58,48.6862915 58,52 C58,55.3137085 55.3137085,58 52,58 Z" id="Shape" />
            <path d="M38.685,15.7 C38.9988801,15.7011831 39.2951034,15.5549228 39.485,15.305 C40.733449,13.6152456 41.2159189,11.4793188 40.815,9.417 C40.7297094,9.06437307 40.4601236,8.78559883 40.1105522,8.68854207 C39.7609807,8.59148531 39.3862617,8.69137158 39.1313835,8.94955236 C38.8765052,9.20773314 38.7814511,9.58370693 38.883,9.932 C39.1224141,11.3974368 38.7651678,12.8977272 37.891,14.098 C37.6637368,14.4010176 37.6271808,14.8064296 37.7965728,15.1452136 C37.9659648,15.4839976 38.3122279,15.698 38.691,15.698 L38.685,15.7 Z" id="Shape" />
            <path d="M37.37,46 C36.6263863,46.0022902 35.8929814,46.173247 35.225,46.5 C33.426081,44.0384339 30.0671166,43.3173289 27.4163713,44.8236376 C24.7656259,46.3299464 23.6659757,49.5846973 24.86,52.39 C25.0171133,52.7587213 25.3792008,52.9980139 25.78,52.998 C25.9147522,52.9983171 26.0481479,52.9710935 26.172,52.918 C26.4160049,52.8140419 26.6087162,52.6174075 26.7077364,52.3713573 C26.8067566,52.1253072 26.8039737,51.8499982 26.7,51.606 C26.4823029,51.0985612 26.3700297,50.5521649 26.37,50 C26.37,47.790861 28.160861,46 30.37,46 C31.9215231,45.9922804 33.3346252,46.8913495 33.985,48.3 C34.0066323,48.3325649 34.0299993,48.3639435 34.055,48.394 C34.0707949,48.4282922 34.088489,48.4616773 34.108,48.494 C34.126,48.516 34.152,48.526 34.172,48.547 C34.2189132,48.5957044 34.2708719,48.6392827 34.327,48.677 C34.3769534,48.7154588 34.4305407,48.7489508 34.487,48.777 C34.5450822,48.8013496 34.6053553,48.8201013 34.667,48.833 C34.7284948,48.8491438 34.7914989,48.8588625 34.855,48.862 C34.9849128,48.860958 35.1138416,48.8393574 35.237,48.798 C35.2636553,48.7930893 35.2900268,48.7867468 35.316,48.779 C35.3484491,48.7580203 35.3795134,48.7349726 35.409,48.71 C35.4449944,48.6940029 35.4800508,48.6759739 35.514,48.656 C36.0392687,48.2312063 36.6944582,47.9996307 37.37,48 C38.5392526,48.001903 39.6008636,48.6829732 40.09,49.745 C40.3191982,50.2475791 40.9124209,50.4691981 41.415,50.24 C41.9175791,50.0108018 42.1391981,49.4175791 41.91,48.915 C41.0957188,47.1401647 39.3227138,46.0017705 37.37,46 Z" id="Shape" />
            <path d="M17.684,39.051 C17.533,39.1 14,40.322 14,44 C14,44.5522847 14.4477153,45 15,45 C15.5522847,45 16,44.5522847 16,44 C16.0816303,42.6050128 16.9994793,41.3982114 18.322,40.947 C18.8466705,40.7708211 19.1291788,40.2026705 18.9529999,39.678 C18.7768211,39.1533295 18.2086705,38.8708212 17.684,39.047 L17.684,39.051 Z" id="Shape" />
            <path d="M31.757,37.97 C31.8364196,37.9901607 31.9180618,38.00024 32,38 C32.4583065,37.9995296 32.8576317,37.6875697 32.969,37.243 C33.4292692,35.3756621 35.0823575,34.0473753 37.005,34 C37.5572847,33.9986193 38.0038807,33.5497847 38.0025,32.9975 C38.0011193,32.4452153 37.5522847,31.9986193 37,32 C34.1576987,32.0377431 31.7014843,33.9948975 31.03,36.757 C30.8958099,37.292714 31.2212929,37.8357826 31.757,37.97 Z" id="Shape" />
        </g>
    </g>
</svg>
