<?xml version="1.0"?>
<svg xmlns="http://www.w3.org/2000/svg" id="Layer_3" enable-background="new 0 0 64 64" height="512" viewBox="0 0 64 64" width="512">
    <g>
        <g>
            <path d="m20.5 30c.827 0 1.5.673 1.5 1.5l-.001 7.535-3-3.214v-4.321c.001-.828.673-1.5 1.501-1.5zm-5-9c.827 0 1.5.673 1.5 1.5l-.001 11.178-.676-.724c-.565-.607-1.365-.954-2.192-.954h-.131v-9.505c.003-.825.674-1.495 1.5-1.495zm-5-6c.827 0 1.5.673 1.5 1.5v5.995.005 10.279c-.444.4-.775.924-.918 1.525l-2.082-2.65v-15.154c0-.828.672-1.5 1.5-1.5zm17.5 45.999h-10v-3.342c0-1.336-.521-2.591-1.465-3.536l-7.727-7.727-5.808-10.65v-16.745c0-.534.208-1.036.585-1.414.378-.377.88-.585 1.415-.585 1.102 0 2 .897 2 2v13c0 .224.075.441.213.618l11 14 1.573-1.236-6.786-8.638v-1.744c0-.552.448-1 1-1h.131c.275 0 .542.116.73.318l12.331 13.212c.521.557.808 1.284.808 2.046z" data-original="#000000" class="active-path" style="fill:#FFFFFF" data-old_color="#000000" />
            <path d="m53.5 15c.827 0 1.499.673 1.499 1.5v2.5 12.654l-2.082 2.649c-.143-.6-.474-1.124-.918-1.525v-16.278c.001-.828.673-1.5 1.501-1.5zm-5 6c.827 0 1.499.673 1.499 1.5v9.5h-.131c-.828 0-1.627.347-2.193.953l-.675.724v-11.177c0-.828.672-1.5 1.5-1.5zm-6.5 10.5c0-.827.673-1.5 1.5-1.5s1.499.673 1.499 1.5v4.321l-3 3.214v-7.535zm19 4.244-5.809 10.65-7.727 7.727c-.944.944-1.464 2.2-1.464 3.536v3.342h-10v-11.423c0-.762.287-1.489.807-2.046l12.331-13.212c.188-.203.455-.318.73-.318h.131c.552 0 1 .448 1 1v1.744l-6.787 8.638 1.573 1.236 11-14c.138-.176.213-.394.213-.618v-13c0-1.103.897-2 2.001-2 1.103 0 2 .897 2 2z" data-original="#000000" class="active-path" style="fill:#FFFFFF" data-old_color="#000000" />
            <path d="m32 24.66-10.772-9.797c-1.538-1.399-2.345-3.404-2.214-5.5.13-2.089 1.175-3.969 2.865-5.159 1.139-.801 2.464-1.198 3.786-1.198 1.522 0 3.04.525 4.266 1.563l1.423 1.206c.374.317.92.316 1.292 0l1.423-1.206c2.29-1.939 5.602-2.089 8.052-.366 1.69 1.19 2.735 3.07 2.865 5.159.131 2.097-.676 4.102-2.214 5.5z" data-original="#000000" class="active-path" style="fill:#FFFFFF" data-old_color="#000000" />
        </g>
    </g>
</svg>
