<svg id="Capa_1" enable-background="new 0 0 511.97 511.97" height="512" viewBox="0 0 511.97 511.97" width="512" xmlns="http://www.w3.org/2000/svg">
    <g>
        <path fill="#FFFFFF" d="m502.091 157.105-108.075-36.525c-3.923-1.32-8.18.78-9.507 4.704-1.326 3.924.78 8.181 4.704 9.507l107.043 36.177-50.387 24.565c-2.092-1.411-4.44-2.494-6.986-3.159l-151.135-39.499c-4.804-24.715-35.234-35.088-53.925-17.499-6.469 6.088-10.179 14.673-10.179 23.554v.164c.053 10.457 8.708 18.964 19.295 18.964h26.094c6.738 0 13.477-3.516 16.972-10.135l140.943 36.836c-44.534 21.712-144.508 70.453-157.252 76.667-8.996 4.385-19.019 4.097-27.422 0l-226.561-110.458 230.254-77.818c6.459-2.184 13.576-2.184 20.035 0l89.897 30.383c3.925 1.325 8.18-.778 9.507-4.704 1.326-3.924-.78-8.181-4.704-9.507l-89.897-30.383c-9.558-3.229-20.083-3.229-29.641 0l-231.286 78.166c-12.288 4.156-13.397 21.175-1.718 26.868l118.698 57.87c-6.53 31.045-16.5 64.468-27.336 94.134-4.436 12.132-.614 25.628 9.508 33.584 34.255 26.923 74.729 47.721 116.212 61.09 19.494 6.281 41.231 6.523 61.481 0 41.496-13.375 81.974-34.181 116.211-61.09 10.159-7.987 13.929-21.489 9.508-33.584-10.607-29.008-20.713-62.649-27.335-94.131l55.834-27.221v112.88c-9.543.731-17.089 8.712-17.089 18.439v21.856c0 3.247 1.41 6.164 3.64 8.196l-2.786 42.122c-.544 8.229 5.999 15.223 14.249 15.223h18.974c8.246 0 14.792-6.991 14.248-15.223l-2.785-42.122c2.23-2.032 3.64-4.948 3.64-8.196v-21.857c0-9.727-7.547-17.708-17.09-18.439v-113.042c0-2.305-.363-4.538-1.011-6.658l48.878-23.83c11.664-5.687 10.59-22.707-1.718-26.869zm-233.058 5.953h-26.094c-2.317 0-4.284-1.85-4.295-4.002v-.126c0-4.832 1.938-9.317 5.459-12.631 10.801-10.165 28.501-2.848 29.202 11.772.167 3.501-2.087 4.987-4.272 4.987zm120.877 153.639c-40.522 31.714-98.028 54.401-117.836 58.177-4.069.776-6.738 4.704-5.962 8.772.776 4.07 4.715 6.739 8.772 5.962 20.719-3.951 77.486-26.012 120.101-57.903 1.048 2.989 2.262 6.392 3.369 9.421 2.2 6.02.315 12.706-4.689 16.641-40.39 31.743-82.951 49.391-111.543 58.604-17.078 5.505-35.627 5.369-52.279 0-28.592-9.214-71.153-26.861-111.543-58.604-5.003-3.933-6.891-10.618-4.688-16.642.044-.12.087-.242.131-.362 1.09-2.986 2.298-6.375 3.237-9.06 41.608 31.128 98.22 53.735 120.094 57.908 4.074.774 7.997-1.893 8.773-5.961.776-4.069-1.893-7.997-5.961-8.773-18.7-3.565-76.403-25.772-117.831-58.181 6.091-18.627 13.149-42.565 18.697-68.079l94.948 46.29c12.642 6.164 27.434 6.405 40.57 0l94.942-46.288c5.548 25.513 12.606 49.451 18.698 68.078zm49.813 101.643 2.609-39.439h12.218l2.608 39.439zm18.308-72.398v17.958h-19.179v-17.958c0-1.903 1.607-3.511 3.511-3.511h12.156c1.903.001 3.512 1.608 3.512 3.511z" />
    </g>
</svg>