<svg height="512" viewBox="0 0 64 64" width="512" xmlns="http://www.w3.org/2000/svg">
    <g id="connection-2" fill="#FFFFFF" data-name="connection">
        <path d="m7.49 27a1 1 0 0 0 .24 0 1 1 0 0 0 1-.76 23.88 23.88 0 0 1 17.51-17.54 1 1 0 0 0 -.48-1.95 25.91 25.91 0 0 0 -19 19 1 1 0 0 0 .73 1.25z" />
        <path d="m26.24 55.3a23.89 23.89 0 0 1 -17.54-17.54 1 1 0 0 0 -1.95.48 25.91 25.91 0 0 0 19 19 1 1 0 0 0 .24 0 1 1 0 0 0 1-.76 1 1 0 0 0 -.75-1.18z" />
        <path d="m56.51 37a1 1 0 0 0 -1.21.73 23.88 23.88 0 0 1 -17.54 17.57 1 1 0 0 0 -.76 1.21 1 1 0 0 0 1 .77 1 1 0 0 0 .24 0 25.91 25.91 0 0 0 19-19 1 1 0 0 0 -.73-1.28z" />
        <path d="m37.76 8.69a23.91 23.91 0 0 1 17.54 17.55 1 1 0 0 0 1 .76 1 1 0 0 0 .24 0 1 1 0 0 0 .74-1.21 25.92 25.92 0 0 0 -19-19 1 1 0 0 0 -1.28.69 1 1 0 0 0 .76 1.21z" />
        <path d="m32 11a4 4 0 1 0 -4-4 4 4 0 0 0 4 4zm0-6a2 2 0 1 1 -2 2 2 2 0 0 1 2-2z" />
        <path d="m32 53a4 4 0 1 0 4 4 4 4 0 0 0 -4-4zm0 6a2 2 0 1 1 2-2 2 2 0 0 1 -2 2z" />
        <path d="m11 32a4 4 0 1 0 -4 4 4 4 0 0 0 4-4zm-6 0a2 2 0 1 1 2 2 2 2 0 0 1 -2-2z" />
        <path d="m57 28a4 4 0 1 0 4 4 4 4 0 0 0 -4-4zm0 6a2 2 0 1 1 2-2 2 2 0 0 1 -2 2z" />
        <path d="m39.78 45.43a1 1 0 0 0 1.41 0l4.24-4.24a1 1 0 0 0 0-1.41l-1.12-1.13a15 15 0 0 0 1.1-2.65h1.59a1 1 0 0 0 1-1v-6a1 1 0 0 0 -1-1h-1.59a15 15 0 0 0 -1.1-2.65l1.12-1.13a1 1 0 0 0 0-1.41l-4.24-4.24a1 1 0 0 0 -1.41 0l-1.13 1.12a15 15 0 0 0 -2.65-1.1v-1.59a1 1 0 0 0 -1-1h-6a1 1 0 0 0 -1 1v1.59a15 15 0 0 0 -2.65 1.1l-1.13-1.12a1 1 0 0 0 -1.41 0l-4.24 4.24a1 1 0 0 0 0 1.41l1.12 1.13a15 15 0 0 0 -1.1 2.65h-1.59a1 1 0 0 0 -1 1v6a1 1 0 0 0 1 1h1.59a15 15 0 0 0 1.1 2.65l-1.12 1.13a1 1 0 0 0 0 1.41l4.24 4.24a1 1 0 0 0 1.41 0l1.13-1.12a15 15 0 0 0 2.65 1.1v1.59a1 1 0 0 0 1 1h6a1 1 0 0 0 1-1v-1.59a15 15 0 0 0 2.65-1.1zm-5-1.76a1 1 0 0 0 -.77 1v1.33h-4.01v-1.36a1 1 0 0 0 -.77-1 12.2 12.2 0 0 1 -3.52-1.46 1 1 0 0 0 -1.23.14l-1 1-2.82-2.82 1-1a1 1 0 0 0 .14-1.23 12.2 12.2 0 0 1 -1.46-3.52 1 1 0 0 0 -1-.77h-1.34v-3.98h1.36a1 1 0 0 0 1-.77 12.2 12.2 0 0 1 1.46-3.52 1 1 0 0 0 -.14-1.23l-1-1 2.82-2.82 1 1a1 1 0 0 0 1.23.14 12.2 12.2 0 0 1 3.52-1.46 1 1 0 0 0 .77-1v-1.34h4v1.36a1 1 0 0 0 .77 1 12.2 12.2 0 0 1 3.52 1.46 1 1 0 0 0 1.23-.14l1-1 2.82 2.82-1 1a1 1 0 0 0 -.14 1.23 12.2 12.2 0 0 1 1.46 3.52 1 1 0 0 0 1 .77h1.32v4h-1.36a1 1 0 0 0 -1 .77 12.2 12.2 0 0 1 -1.46 3.52 1 1 0 0 0 .14 1.23l1 1-2.82 2.82-1-1a1 1 0 0 0 -1.23-.14 12.2 12.2 0 0 1 -3.5 1.45z" />
        <path d="m32 25a7 7 0 1 0 7 7 7 7 0 0 0 -7-7zm0 12a5 5 0 1 1 5-5 5 5 0 0 1 -5 5z" />
    </g>
</svg>