<?xml version="1.0"?>
<svg xmlns="http://www.w3.org/2000/svg" height="512" viewBox="0 0 56 56" width="512" class=""><g><g id="Page-1" fill="none" fill-rule="evenodd"><g id="049---Financial-Aid" fill="rgb(0,0,0)" fill-rule="nonzero"><path id="Shape" d="m9 38c-3.6401602 0-6.92188679 2.1927796-8.31491579 5.5558491s-.6230272 7.23413 1.95095476 9.8081119c2.57398196 2.573982 6.44504241 3.3439838 9.80811193 1.9509548 3.3630695-1.393029 5.5558491-4.6747556 5.5558491-8.3149158-.0055111-4.9682782-4.0317218-8.9944889-9-9zm1 13.816v.184c0 .5522847-.44771525 1-1 1s-1-.4477153-1-1v-.2c-.67045219-.2301872-1.23744188-.6908663-1.6-1.3-.25615283-.4759933-.08769037-1.0693836.3803603-1.3397768.46805068-.2703932 1.06625212-.1199053 1.3506397.3397768.24246136.4199504.75127543.6054271 1.20711349.440026.45583806-.1654012.72731751-.6340079.64405953-1.1117253-.08325802-.4777175-.49725675-.826857-.98217302-.8283007-1.45943726.0027654-2.70808095-1.0474881-2.95538732-2.485822-.24730638-1.4383339.57883984-2.8453257 1.95538732-3.330178v-.184c0-.5522847.44771525-1 1-1s1 .4477153 1 1v.2c.6704522.2301872 1.2374419.6908663 1.6 1.3.2561528.4759933.0876904 1.0693836-.3803603 1.3397768s-1.0662521.1199053-1.3506397-.3397768c-.24246136-.4199504-.75127543-.6054271-1.20711349-.440026-.45583806.1654012-.72731755.6340079-.64405953 1.1117253.08325802.4777175.49725675.826857.98217302.8283007 1.4594373-.0027654 2.7080809 1.0474881 2.9553873 2.485822s-.5788398 2.8453257-1.9553873 3.330178z" data-original="#000000" class="active-path" style="fill:#FFFFFF" data-old_color="#000000"/><path id="Shape" d="m20 12h16c.5522847 0 1-.4477153 1-1s-.4477153-1-1-1h-16c-.5522847 0-1 .4477153-1 1s.4477153 1 1 1z" data-original="#000000" class="active-path" style="fill:#FFFFFF" data-old_color="#000000"/><path id="Shape" d="m33.5 25c-1.8964845.0115143-3.6488433 1.014-4.62 2.643-.176428.3206172-.5130472.5201377-.879.521h-.001c-.3658045-.0004976-.7021456-.2006915-.877-.522-.972385-1.6290903-2.7258047-2.6311528-4.623-2.642-2.565 0-4.5 2.166-4.5 5.038 0 3.371 2.934 5.875 7.8 10.025.498.4246667 1.0133333.866 1.546 1.324.3798929.3231976.9381071.3231976 1.318 0 .5333333-.458 1.0486667-.8993333 1.546-1.324 4.861-4.15 7.8-6.654 7.8-10.025-.01-2.872-1.945-5.038-4.51-5.038zm-2.5 10h-2v2c0 .5522847-.4477153 1-1 1s-1-.4477153-1-1v-2h-2c-.5522847 0-1-.4477153-1-1s.4477153-1 1-1h2v-2c0-.5522847.4477153-1 1-1s1 .4477153 1 1v2h2c.5522847 0 1 .4477153 1 1s-.4477153 1-1 1z" data-original="#000000" class="active-path" style="fill:#FFFFFF" data-old_color="#000000"/><path id="Shape" d="m23.337 8h9.319l4.252-7.086c.1143563-.18617191.1184716-.41979018.0107434-.60987429s-.3102685-.30658242-.5287434-.30412571h-16.79c-.2184749-.00245671-.4210152.1140416-.5287434.30412571s-.1036129.42370238.0107434.60987429z" data-original="#000000" class="active-path" style="fill:#FFFFFF" data-old_color="#000000"/><path id="Shape" d="m47 36c.573298.0042228 1.1453831.0533733 1.711.147-1.459-8.826-8.445-17.647-15.018-22.147h-11.386c-6.573 4.5-13.559 13.321-15.018 22.147 4.4726095-.7157544 8.925587 1.3891865 11.2113608 5.2996569 2.2857739 3.9104703 1.9349167 8.8233803-.8833608 12.3693431 6.6157389 2.9120023 14.1502611 2.9120023 20.766 0-2.6238363-3.3030975-3.1241967-7.8170299-1.2874524-11.614574 1.8367443-3.797544 5.6860485-6.2076899 9.9044524-6.201426zm-17.781 7.547c-.7009504.6005739-1.7350496.6005739-2.436 0-.8-.693-1.561-1.345-2.287-1.964-5.116-4.366-8.496-7.252-8.496-11.545 0-4.013 2.794-7.038 6.5-7.038 2.1070245-.0087941 4.1139892.8979891 5.5 2.485 1.3860108-1.5870109 3.3929755-2.4937941 5.5-2.485 3.706 0 6.5 3.025 6.5 7.038 0 4.293-3.38 7.179-8.5 11.546-.7233333.6193333-1.4836667 1.2736667-2.281 1.963z" data-original="#000000" class="active-path" style="fill:#FFFFFF" data-old_color="#000000"/><path id="Shape" d="m47 38c-3.6401602 0-6.9218868 2.1927796-8.3149158 5.5558491s-.6230272 7.23413 1.9509548 9.8081119c2.5739819 2.573982 6.4450424 3.3439838 9.8081119 1.9509548s5.5558491-4.6747556 5.5558491-8.3149158c-.0055111-4.9682782-4.0317218-8.9944889-9-9zm1 13.816v.184c0 .5522847-.4477153 1-1 1s-1-.4477153-1-1v-.2c-.6704522-.2301872-1.2374419-.6908663-1.6-1.3-.2561528-.4759933-.0876904-1.0693836.3803603-1.3397768s1.0662521-.1199053 1.3506397.3397768c.2424614.4199504.7512754.6054271 1.2071135.440026.455838-.1654012.7273175-.6340079.6440595-1.1117253-.083258-.4777175-.4972567-.826857-.982173-.8283007-1.4594373.0027654-2.7080809-1.0474881-2.9553873-2.485822s.5788398-2.8453257 1.9553873-3.330178v-.184c0-.5522847.4477153-1 1-1s1 .4477153 1 1v.2c.6704522.2301872 1.2374419.6908663 1.6 1.3.2561528.4759933.0876904 1.0693836-.3803603 1.3397768s-1.0662521.1199053-1.3506397-.3397768c-.2424614-.4199504-.7512754-.6054271-1.2071135-.440026-.455838.1654012-.7273175.6340079-.6440595 1.1117253.083258.4777175.4972567.826857.982173.8283007 1.4594373-.0027654 2.7080809 1.0474881 2.9553873 2.485822s-.5788398 2.8453257-1.9553873 3.330178z" data-original="#000000" class="active-path" style="fill:#FFFFFF" data-old_color="#000000"/></g></g></g> </svg>
