<svg id="Capa_1" enable-background="new 0 0 512 512" fill="#FFFFFF" height="512" viewBox="0 0 512 512" width="512" xmlns="http://www.w3.org/2000/svg"><g><path d="m484.5 65.074h-134.913c-.142 0-.28.013-.42.021-4.944-4.641-10.256-8.95-15.921-12.87-3.408-2.355-8.078-1.504-10.436 1.9-2.356 3.406-1.506 8.079 1.9 10.436 33.127 22.918 52.903 60.615 52.903 100.838 0 67.563-54.967 122.53-122.53 122.53-67.562 0-122.529-54.967-122.529-122.53 0-67.562 54.967-122.529 122.529-122.529 13.412 0 26.593 2.151 39.176 6.394 3.926 1.327 8.181-.785 9.503-4.71 1.324-3.925-.785-8.18-4.71-9.503-14.131-4.765-28.924-7.181-43.969-7.181-75.834 0-137.529 61.695-137.529 137.529s61.695 137.53 137.529 137.53 137.53-61.696 137.53-137.53c0-31.346-10.708-61.318-29.692-85.325h121.579c6.893 0 12.5 5.607 12.5 12.5v236.054h-59.322c-4.143 0-7.5 3.357-7.5 7.5s3.357 7.5 7.5 7.5h59.322v39.388c0 6.893-5.607 12.5-12.5 12.5h-457c-6.893 0-12.5-5.607-12.5-12.5v-39.388h384.906c4.143 0 7.5-3.357 7.5-7.5s-3.357-7.5-7.5-7.5h-384.906v-236.054c0-6.893 5.607-12.5 12.5-12.5h89.438c4.143 0 7.5-3.357 7.5-7.5s-3.357-7.5-7.5-7.5h-89.438c-15.164 0-27.5 12.337-27.5 27.5v290.441c0 15.163 12.336 27.5 27.5 27.5h164.396v58.614h-22.642c-4.143 0-7.5 3.357-7.5 7.5s3.357 7.5 7.5 7.5h171.658c4.143 0 7.5-3.357 7.5-7.5s-3.357-7.5-7.5-7.5h-22.642v-58.614h166.23c15.164 0 27.5-12.337 27.5-27.5v-290.441c0-15.163-12.336-27.5-27.5-27.5zm-181.229 404.056h-96.375v-58.614h96.375z"/><path d="m201.644 105.49c-1.6-8.479-9.024-14.635-17.654-14.635h-8.02c-4.143 0-7.5 3.357-7.5 7.5s3.357 7.5 7.5 7.5h8.02c1.425 0 2.65 1.016 2.914 2.417l22.196 117.564c.669 3.543 3.765 6.108 7.37 6.108h5.06c-2.215 2.476-3.574 5.735-3.574 9.319 0 7.73 6.267 13.997 13.997 13.997s13.997-6.267 13.997-13.997c0-3.584-1.358-6.843-3.574-9.319h30.854c-2.215 2.476-3.574 5.735-3.574 9.319 0 7.73 6.267 13.997 13.997 13.997s13.997-6.267 13.997-13.997c0-3.584-1.358-6.843-3.574-9.319h6.749c4.143 0 7.5-3.357 7.5-7.5s-3.357-7.5-7.5-7.5h-78.141l-3.06-16.207h83.818c3.604 0 6.697-2.562 7.369-6.104l13.312-70.227c.008-.045.017-.09.024-.135.447-2.625-.28-5.297-1.997-7.332s-4.229-3.202-6.892-3.202h-112.057zm11.186 59.247h20.462l1.535 21h-18.031zm53.558 0-1.535 21h-14.986l-1.535-21zm-19.152-15-1.535-20.999h23.318l-1.535 20.999zm32.658 36 1.535-21h19.784l-3.981 21zm24.163-36h-21.531l1.535-20.999h23.977zm-73.397-20.999 1.535 20.999h-22.197l-3.965-20.999z"/><path d="m48.851 275.101h44.361c4.143 0 7.5-3.357 7.5-7.5s-3.357-7.5-7.5-7.5h-44.361c-4.143 0-7.5 3.357-7.5 7.5s3.357 7.5 7.5 7.5z"/><path d="m48.851 308.93h82.774c4.143 0 7.5-3.357 7.5-7.5s-3.357-7.5-7.5-7.5h-82.774c-4.143 0-7.5 3.357-7.5 7.5s3.357 7.5 7.5 7.5z"/><path d="m444.927 108.37c-4.143 0-7.5 3.357-7.5 7.5v18.771h-18.771c-4.143 0-7.5 3.357-7.5 7.5s3.357 7.5 7.5 7.5h18.771v18.771c0 4.143 3.357 7.5 7.5 7.5s7.5-3.357 7.5-7.5v-18.771h18.77c4.143 0 7.5-3.357 7.5-7.5s-3.357-7.5-7.5-7.5h-18.77v-18.771c0-4.142-3.358-7.5-7.5-7.5z"/></g></svg>