<?xml version="1.0" encoding="iso-8859-1"?>
<!-- Generator: Adobe Illustrator 19.0.0, SVG Export Plug-In . SVG Version: 6.00 Build 0)  -->
<svg version="1.1" id="Capa_1" xmlns="http://www.w3.org/2000/svg" xmlns:xlink="http://www.w3.org/1999/xlink" x="0px" y="0px" viewBox="0 0 450.428 450.428" style="enable-background:new 0 0 450.428 450.428;" xml:space="preserve">
	<g>
		<g>
			<g>
				<path fill="#FFFFFF" d="M88.326,300.247c0.319,1.278,1.13,2.378,2.255,3.061l52.751,32.028c2.36,1.435,5.435,0.682,6.869-1.679
				c1.433-2.36,0.682-5.435-1.679-6.868l-50.947-30.934c-3.325-15.037-22.573-112.748,20.393-183.758
				c21.494-35.522,55.384-59.1,100.73-70.078c1.444-0.35,2.658-1.324,3.312-2.657c0.141-0.287,13.179-26.304,35.592-29.114
				l-9.021,26.561c-0.865,2.548,0.441,5.324,2.957,6.281l43.125,16.398c5.582,8.094,34.876,49.542,62.521,69.005l2.652,30.785
				l-28.752,15.403c-6.244-6.682-22.721-21.713-48.526-26.874c-30.628-6.128-42.869-11.308-45.164-19.115
				c-0.71-2.415-3.097-3.925-5.592-3.526c-2.485,0.401-4.286,2.587-4.202,5.103c0.08,2.406,2.795,59.543,75.472,114.048
				c23.327,17.494,34.838,33.703,34.213,48.178c-0.743,17.208-18.869,28.5-26.609,33.322c-0.615,0.384-1.167,0.728-1.646,1.033
				c-2.326,1.487-3.007,4.579-1.521,6.906c0.954,1.494,2.57,2.309,4.219,2.309c0.921,0,1.854-0.255,2.685-0.786
				c0.449-0.288,0.97-0.613,1.55-0.974c8.298-5.169,30.341-18.901,31.312-41.378c0.776-17.969-12.077-37.016-38.203-56.609
				c-35.869-26.901-53.391-54.406-61.775-72.743c-3.09-6.758-5.2-12.8-6.639-17.836c8.956,4.877,22.274,8.341,39.939,11.875
				c29.059,5.812,45.225,26.214,45.378,26.411c1.491,1.935,4.165,2.509,6.32,1.354l35.167-18.84c1.762-0.943,2.792-2.845,2.62-4.836
				l-3.139-36.423c-0.131-1.515-0.943-2.888-2.208-3.731c-28.967-19.311-62.353-68.479-62.687-68.974
				c-0.576-0.854-1.403-1.509-2.366-1.875l-40.081-15.241l9.754-28.718c0.495-1.457,0.291-3.061-0.553-4.348
				c-0.843-1.288-2.233-2.115-3.767-2.243c-28.932-2.402-46.394,24.717-50.874,32.691c-46.941,11.854-82.173,36.769-104.749,74.08
				c-25.442,42.048-29.81,92.404-28.994,127.243C81.297,271.744,88.039,299.101,88.326,300.247z" />
				<path fill="#FFFFFF" d="M354.12,387.715C354.119,387.715,354.119,387.715,354.12,387.715c-0.001,0-0.001,0-0.002,0H316.72v-38.653
				c0-2.762-2.238-5-5-5c-2.762,0-5,2.238-5,5v38.653h-16.14v-55.66c0-2.762-2.238-5-5-5c-2.762,0-5,2.238-5,5v55.66h-17.86v-55.66
				c0-2.762-2.238-5-5-5c-2.762,0-5,2.238-5,5v55.66h-17.861v-55.66c0-2.762-2.238-5-5-5c-2.762,0-5,2.238-5,5v55.66h-17.863v-55.66
				c0-2.762-2.239-5-5-5c-2.761,0-5,2.238-5,5v55.66h-17.862v-55.66c0-2.762-2.239-5-5-5c-2.761,0-5,2.238-5,5v55.66h-18.203
				v-38.653c0-2.762-2.239-5-5-5c-2.761,0-5,2.238-5,5v38.653H96.322c-0.004,0-0.007-0.001-0.01-0.001
				c-12.897,0-23.39,10.491-23.39,23.387c0,0,0,0,0,0c0,0,0,0.001,0,0.001v34.326c0,2.762,2.239,5,5,5h294.584
				c2.761,0,5-2.239,5.001-5v-34.326C377.507,398.206,367.016,387.715,354.12,387.715z M367.506,440.428H82.922h-0.001v-29.317
				c0-0.003,0.001-0.006,0.001-0.01c0-3.691,1.502-7.037,3.926-9.461c2.425-2.424,5.772-3.925,9.463-3.925h257.805
				c7.384,0.001,13.39,6.006,13.39,13.387V440.428z" />
			</g>
		</g>
	</g>
	<g></g>
	<g></g>
	<g></g>
	<g></g>
	<g></g>
	<g></g>
	<g></g>
	<g></g>
	<g></g>
	<g></g>
	<g></g>
	<g></g>
	<g></g>
	<g></g>
	<g></g>
</svg>
