<svg id="Capa_1" enable-background="new 0 0 512 512" height="512" viewBox="0 0 512 512" width="512" xmlns="http://www.w3.org/2000/svg"><g><g><path d="m461.614 118.325c-2.486 0-4.832.573-6.94 1.568l-45.12-34.54c.149-.885.245-1.789.245-2.717 0-8.998-7.295-16.293-16.293-16.293s-16.293 7.295-16.293 16.293c0 .961.1 1.898.259 2.814l-44.392 34.401c-2.085-.97-4.402-1.527-6.853-1.527-6.302 0-11.757 3.584-14.467 8.819h-33.118c-2.71-5.235-8.166-8.819-14.467-8.819-6.302 0-11.757 3.584-14.467 8.819h-62.749l40.118-40.083c1.57.504 3.242.782 4.98.782 6.302 0 11.757-3.584 14.467-8.818h39.239c2.71 5.234 8.165 8.818 14.467 8.818 8.998 0 16.293-7.295 16.293-16.293s-7.295-16.293-16.293-16.293c-6.302 0-11.757 3.584-14.467 8.819h-39.238c-2.71-5.235-8.166-8.819-14.467-8.819-8.999 0-16.293 7.295-16.293 16.293 0 1.716.269 3.369.761 4.923l-40.147 40.112v-77.659c5.235-2.711 8.818-8.166 8.818-14.467 0-.574-.031-1.14-.089-1.698 15.868-5.139 32.615-7.81 49.777-7.81.383 0 .772.001 1.154.004 44.05.306 85.12 18.233 115.645 50.479 2.837 2.997 7.567 3.127 10.567.289 2.998-2.837 3.127-7.568.289-10.567-33.349-35.23-78.237-54.816-126.397-55.151-20.705-.138-40.884 3.272-59.843 9.949-2.221-1.135-4.73-1.788-7.395-1.788-7.454 0-13.724 5.011-15.662 11.843-15.376 8.075-29.629 18.492-42.307 31.082-33.514 33.276-51.967 77.608-51.967 124.83 0 16.504 2.286 32.845 6.794 48.571.133.463.085.976-.136 1.445l-29.339 62.335c-2.66 5.653-2.911 11.984-.707 17.83 2.204 5.845 6.573 10.434 12.301 12.922l26.454 11.493.453 11.939c.192.955-2.262 6.37-2.542 7.34-3.285 8.491.052 17.962 7.933 22.52l6.658 3.849.034 14.97c.046 20.324 12.019 38.916 30.505 47.366 11.309 5.17 24.122 6.132 36.078 2.708l54.816-15.697 36.995 74.162c3.895 7.806 11.785 12.328 19.967 12.328 3.337 0 6.724-.752 9.907-2.341l140.96-70.319c10.99-5.482 15.471-18.884 9.989-29.873l-58.753-117.778c11.295-12.911 20.616-27.341 27.707-42.895 1.713-3.756.055-8.189-3.7-9.902s-8.189-.055-9.902 3.7c-6.544 14.354-15.166 27.664-25.625 39.559-3.855 4.385-4.661 10.593-2.055 15.816l58.951 118.172c1.803 3.614.329 8.02-3.285 9.823l-140.96 70.319c-3.614 1.8-8.021.33-9.824-3.284l-38.106-76.389c-2.249-4.511-7.117-7.16-12.133-6.582-.408.047-.812.128-1.206.24l-57.859 16.568c-8.534 2.442-17.677 1.756-25.747-1.933-13.193-6.03-21.738-19.298-21.77-33.802l-.044-19.271c-.006-2.663-1.428-5.121-3.734-6.455l-10.381-6.002c-3.805-1.916.159-7.547.841-10.169.907-2.346 1.319-4.808 1.223-7.317l-.56-14.757c-.152-3.995-2.619-7.606-6.287-9.201l-29.042-12.617c-1.988-.864-3.505-2.457-4.27-4.486-.765-2.028-.678-4.227.245-6.188l29.338-62.333c1.765-3.747 2.113-7.985.982-11.933-4.125-14.385-6.216-29.341-6.216-44.451 0-43.209 16.885-83.773 47.547-114.222 10.624-10.551 22.456-19.432 35.177-26.53 1.341 1.533 2.959 2.812 4.783 3.757v81.226c-5.235 2.71-8.819 8.166-8.819 14.467 0 8.999 7.295 16.293 16.293 16.293 1.7 0 3.338-.262 4.878-.744l17.885 18.06c1.462 1.476 3.386 2.215 5.311 2.215 1.901 0 3.803-.72 5.26-2.164 2.933-2.905 2.957-7.637.052-10.571l-15.463-15.614h62.884c1.55 2.994 3.998 5.441 6.992 6.992v63.57l-30.566-30.866c-2.905-2.934-7.638-2.957-10.571-.052s-2.957 7.637-.052 10.571l33.169 33.494c-.513 1.584-.798 3.27-.798 5.024 0 6.302 3.583 11.757 8.818 14.467v54.815c-5.234 2.711-8.818 8.166-8.818 14.467 0 8.999 7.295 16.293 16.293 16.293 8.999 0 16.293-7.295 16.293-16.293 0-6.302-3.584-11.757-8.819-14.467v-54.814c.159-.082.318-.164.474-.251l28.202 18.645c-.061.575-.097 1.157-.097 1.748 0 8.998 7.295 16.293 16.293 16.293s16.293-7.295 16.293-16.293c0-8.999-7.295-16.293-16.293-16.293-2.888 0-5.596.759-7.948 2.077l-28.202-18.645c.019-.176.022-.355.035-.533l47.347-20.152h63.053c2.71 5.234 8.165 8.818 14.467 8.818 8.999 0 16.293-7.295 16.293-16.293 0-7.233-4.717-13.357-11.24-15.485.311-4.243.478-8.5.484-12.755.016-11.475-1.104-22.892-3.312-34.081h39.65c2.71 5.234 8.165 8.818 14.467 8.818 8.999 0 16.293-7.295 16.293-16.293s-7.293-16.294-16.291-16.294zm-83.085-14.78c3.859 7.611 7.093 15.504 9.683 23.599h-40.137zm-103.964 114.734c-.895-.742-1.876-1.381-2.918-1.92v-67.273c2.994-1.55 5.442-3.998 6.993-6.992h33.119c1.551 2.994 3.998 5.442 6.992 6.992v50.386zm59.136-21.339v-45.749l51.813 45.749zm62.158-20.786c-.005 3.236-.115 6.473-.312 9.702l-49.562-43.762h46.228c2.416 11.155 3.663 22.574 3.646 34.06zm7.982-49.01c-2.814-9.691-6.448-19.147-10.905-28.242.191.007.377.029.569.029 2.535 0 4.925-.596 7.064-1.628l38.984 29.842h-35.712z"/></g></g></svg>