<svg id="Layer_1" enable-background="new 0 0 512.174 512.174" height="512" viewBox="0 0 512.174 512.174" width="512" xmlns="http://www.w3.org/2000/svg">
    <g>
        <path fill="#FFFFFF" d="m497.174 229.244c8.284 0 15-6.716 15-15v-199.04c0-8.284-6.716-15-15-15h-197.403c-8.284 0-15 6.716-15 15v84.521h-57.092v-84.521c0-8.284-6.716-15-15-15h-197.405c-8.284 0-15 6.716-15 15v199.04c0 8.284 6.716 15 15 15h83.702v53.685h-83.976c-8.284 0-15 6.716-15 15v199.04c0 8.284 6.716 15 15 15h197.404c8.284 0 15-6.716 15-15v-84.521h57.366v84.521c0 8.284 6.716 15 15 15h197.403c8.284 0 15-6.716 15-15v-199.04c0-8.284-6.716-15-15-15h-83.702v-53.685zm-182.403-199.04h167.403v169.04h-167.403zm-284.497 0h167.404v169.04h-167.404zm167.13 451.765h-167.404v-169.04h167.404zm284.77 0h-167.403v-169.04h167.403zm-98.702-199.04h-83.701c-8.284 0-15 6.716-15 15v84.52h-57.366v-84.52c0-8.284-6.716-15-15-15h-83.428v-53.685h83.702c8.284 0 15-6.716 15-15v-84.52h57.092v84.52c0 8.284 6.716 15 15 15h83.701z" />
        <path fill="#FFFFFF" d="m128.977 152.277v-22.753h22.877c8.284 0 15-6.716 15-15s-6.716-15-15-15h-22.877v-22.753c0-8.284-6.716-15-15-15s-15 6.716-15 15v22.753h-22.877c-8.284 0-15 6.716-15 15s6.716 15 15 15h22.877v22.753c0 8.284 6.716 15 15 15s15-6.716 15-15z" />
        <path fill="#FFFFFF" d="m382.277 360.13c-5.868-5.848-15.364-5.834-21.213.035-5.849 5.867-5.833 15.364.035 21.213l16.124 16.071-16.123 16.071c-5.868 5.849-5.884 15.346-.035 21.213 2.931 2.94 6.777 4.411 10.624 4.411 3.83 0 7.662-1.458 10.589-4.376l16.194-16.141 16.194 16.141c2.928 2.918 6.758 4.376 10.589 4.376 3.847 0 7.693-1.471 10.624-4.411 5.849-5.867 5.833-15.364-.035-21.213l-16.124-16.071 16.124-16.071c5.868-5.849 5.884-15.346.035-21.213-5.85-5.868-15.347-5.884-21.213-.035l-16.194 16.141z" />
        <path fill="#FFFFFF" d="m151.579 382.449h-75.754c-8.284 0-15 6.716-15 15s6.716 15 15 15h75.754c8.284 0 15-6.716 15-15s-6.716-15-15-15z" />
        <path fill="#FFFFFF" d="m361.064 152.01c2.931 2.94 6.777 4.411 10.624 4.411 3.831 0 7.662-1.458 10.589-4.376l53.566-53.391c5.868-5.848 5.884-15.346.035-21.213-5.851-5.869-15.349-5.882-21.213-.035l-53.565 53.39c-5.869 5.848-5.884 15.346-.036 21.214z" />
        <path fill="#FFFFFF" d="m371.689 103.392c8.512 0 15.413-6.878 15.413-15.362s-6.9-15.362-15.413-15.362c-8.512 0-15.413 6.878-15.413 15.362s6.901 15.362 15.413 15.362z" />
        <ellipse cx="425.255" cy="141.42" rx="15.413" ry="15.362" />
    </g>
</svg>