<?xml version="1.0"?>
<svg xmlns="http://www.w3.org/2000/svg" id="icons" viewBox="0 0 60 60" width="512" height="512">
    <path fill="#FFFFFF" d="M30,13.362l-1,.509V16a10.737,10.737,0,0,1-1.467,6h4.934A10.737,10.737,0,0,1,31,16V13.871Z" />
    <path fill="#FFFFFF" d="M4,58H56a2,2,0,0,0,0-4H4a2,2,0,0,0,0,4Z" />
    <path fill="#FFFFFF" d="M26.9,9.541l-.617,3.485,1.282-.66c.022-.01.04-.023.063-.032l1.914-.985a1,1,0,0,1,.908,0l3.231,1.645L33.1,9.541a1,1,0,0,1,.3-.9l2.613-2.468-3.625-.463a1,1,0,0,1-.752-.537L30.015,2,28.37,5.171a1,1,0,0,1-.752.537l-3.611.508,2.6,2.423A1,1,0,0,1,26.9,9.541Z" />
    <path fill="#FFFFFF" d="M38,34V26a2,2,0,0,0-2-2H24a2,2,0,0,0-2,2V52H38Zm-6,9H28a1,1,0,0,1,0-2h1V36a1,1,0,0,1-.707-1.707l1-1A1,1,0,0,1,31,34v7h1a1,1,0,0,1,0,2Z" />
    <path fill="#FFFFFF" d="M20,38a2,2,0,0,0-2-2H7a2,2,0,0,0-2,2V52H20Zm-6,9a1,1,0,0,1,0,2H10a1,1,0,0,1-.6-1.8c1-.754,3.6-3.158,3.6-5.2a1,1,0,0,0-2,0,1,1,0,0,1-2,0,3,3,0,0,1,6,0c0,1.917-1.255,3.726-2.43,5Z" />
    <path fill="#FFFFFF" d="M55,34a2,2,0,0,0-2-2H42a2,2,0,0,0-2,2V52H55ZM51,44a3,3,0,0,1-6,0,1,1,0,0,1,2,0,1,1,0,1,0,1.59-.809,1.487,1.487,0,0,1,0-2.383A1,1,0,1,0,47,40a1,1,0,0,1-2,0,3,3,0,1,1,5.235,2A3.012,3.012,0,0,1,51,44Z" />
</svg>
