<svg height="512" viewBox="0 0 54 61" width="512" xmlns="http://www.w3.org/2000/svg"><g id="Page-1" fill="none" fill-rule="evenodd"><g id="016---Mental-Maths" fill="rgb(0,0,0)" fill-rule="nonzero" transform="translate(0 -1)"><path id="Shape" d="m1.374 33.531c-.924 1.137-1.474 2.027-1.359 2.946.19266367.8120502.71973463 1.5047616 1.451 1.907.32919238.2305993.67706797.4333037 1.04.606.431.22 1.151.588 1.2.851.06504506.3387768.02671913.6892849-.11 1.006-.148.314-.3.584-.434.82-.39.69-.977 1.733-.056 2.511.216.191.586.482.924.74-.25025843.4397629-.36245216.9446347-.322 1.449.05347514.3910069.26583709.7426523.587.972.224.159.462.3.7.432.586.336.815.492.894.8.07346291.3770738.04445534.7669493-.084 1.129-.33294996 1.1747096-.27717626 2.4255841.159 3.566.51658911 1.8976517 2.42747936 3.0595608 4.35 2.645 2.8485374-.688295 5.6576605-1.5305312 8.415-2.523 2.24 1.329 3.656 5.347 4.025 6.853.109299.4480384.5108226.7632261.972.763h25.219c.317064.0001844.6154294-.1500045.8041499-.4047872.1887206-.2547826.2454329-.5839669.1528501-.8872128-.2664419-.7045144-.6461009-1.3608109-1.124-1.943-.2699676-.3459425-.5104755-.7138961-.719-1.1-1.2483046-2.7781515-2.025588-5.7446704-2.3-8.778-.3548414-2.9905191.093897-6.0215739 1.3-8.781.7179354-1.4948412 1.6039927-2.9029376 2.641-4.197 1.979-2.674 4.221-5.7 4.294-10.856.0594951-2.8666654-.2920776-5.7270662-1.044-8.494-1.0069932-3.435562-3.0993462-6.45270405-5.964-8.6-7.881-6.2-14.67-7.337-26.9-4.515-3.321.766-7.081 1.935-9.788 4.8-1.76388218 1.88631008-3.12490166 4.1122574-4 6.542-.3706179 1.0700724-.67289311 2.1626052-.905 3.271l-.08.346c-.22126055.8072656-.51685784 1.592289-.883 2.345-.53304458.9103664-.81689969 1.9450752-.823 3 .20263343.8931612.71933539 1.6838287 1.456 2.228.489.449.81.765.813 1.053-.03793886.1500233-.09649644.2940615-.174.428-1.18505904 2.5049978-2.63606786 4.8752917-4.328 7.07zm5.04-10.031c-.4-.37-.784-.72-.827-1.028.12134316-.6664309.34676502-1.3096256.668-1.906.41814227-.8693909.75297178-1.7764441 1-2.709l.081-.349c.21301959-1.0266696.49125009-2.0387206.833-3.03.78335084-2.17549 2.0010371-4.1689028 3.579-5.859 2.336-2.472 5.6-3.492 8.784-4.226 10.234-2.361 16.942-2.37 25.218 4.14 2.5397658 1.8783468 4.392636 4.538554 5.274 7.572.701588 2.5809258 1.0302522 5.2489655.976 7.923-.063 4.509-1.928 7.028-3.9 9.7-1.1282024 1.4129015-2.0905002 2.9506319-2.868 4.583-1.3502014 3.0855492-1.8531475 6.4753439-1.457 9.82.2987971 3.2527038 1.1393878 6.4325499 2.487 9.408.2569993.4957867.5582212.9673663.9 1.409.015.019.028.038.042.057h-22.722c-.6626833-2.3737983-1.8665137-4.5617097-3.517-6.392l.756-.265c.738-.26 1.3-.456 1.575-.544 4.278-1.346 6.418-3.3 6.359-5.792-.0022354-.2663922-.1122789-.5205192-.305029-.7044138-.1927501-.1838945-.4517681-.281873-.717971-.2715862-.2652396.0060303-.5172116.1172157-.7004495.309081s-.2827211.4486826-.2765505.713919c.025 1.031-.816 2.534-4.962 3.838-.292.092-.87.295-1.635.564-.718.252-1.605.564-2.576.9h-.006c-2.8070319 1.0191226-5.6672248 1.8853926-8.568 2.595-.93491701.1817056-1.844884-.4128298-2.054-1.342-.31274701-.781502-.34804346-1.6466179-.1-2.451.20615855-.6724677.23236347-1.3872416.076-2.073-.28592273-.9177549-.95780315-1.6652219-1.84-2.047l-.214-.123c.10756227-.218961.23616781-.4269402.384-.621.16603676-.21239.23928586-.4828217.20313822-.7499754-.03614764-.2671536-.17862953-.5083955-.39513822-.6690246-.24-.179-.811-.607-1.221-.935.051-.094.109-.2.161-.29.154-.271.329-.585.5-.943.31962519-.698978.41364466-1.4801435.269-2.235-.233-1.227-1.4-1.824-2.255-2.261-.26202828-.1237986-.5146961-.2665091-.756-.427-.23636036-.1648477-.45907849-.3484396-.666-.549 0-.053.054-.374.927-1.448 1.78307779-2.3046836 3.31100711-4.7959092 4.557-7.43.24084796-.4121828.3752269-.8778694.391-1.355-.09980036-1.0081889-.6330222-1.9231698-1.461-2.507z"/><path id="Shape" d="m29 32h6c.5522847 0 1 .4477153 1 1v.83c-.0458231 2.1738382 1.6176209 4.003363 3.786 4.164.073 0 .146.006.218.006 1.0239975.0020677 2.0090882-.3921119 2.749-1.1.7940879-.7559281 1.2446056-1.8036437 1.247-2.9v-2.85c-.0447376-2.3344699.6412389-4.6245543 1.962-6.55 1.3078895-1.7663534 2.0214737-3.9022043 2.038-6.1 0-7.444-8.523-13.5-19-13.5s-19 6.056-19 13.5 8.523 13.5 19 13.5zm0-25c9.374 0 17 5.159 17 11.5-.0190911 1.7815507-.6027402 3.5111408-1.667 4.94-1.5629668 2.2636756-2.3787208 4.9595451-2.333 7.71v2.85c.0017893.5491846-.2241405 1.0745437-.624 1.451-.3990547.3777908-.935151.5761175-1.484.549-1.1006641-.1180957-1.9249602-1.0635092-1.892-2.17v-.83c0-1.6568542-1.3431458-3-3-3h-6c-9.374 0-17-5.159-17-11.5s7.626-11.5 17-11.5z"/><path id="Shape" d="m18.293 21.707c.3904999.3903819 1.0235001.3903819 1.414 0l1.293-1.293 1.293 1.293c.3923789.3789722 1.0160848.3735524 1.4018186-.0121814s.3911536-1.0094397.0121814-1.4018186l-1.293-1.293 1.293-1.293c.3789722-.3923789.3735524-1.0160848-.0121814-1.4018186s-1.0094397-.3911536-1.4018186-.0121814l-1.293 1.293-1.293-1.293c-.3923789-.3789722-1.0160848-.3735524-1.4018186.0121814s-.3911536 1.0094397-.0121814 1.4018186l1.293 1.293-1.293 1.293c-.3903819.3904999-.3903819 1.0235001 0 1.414z"/><path id="Shape" d="m27 22h4c.5522847 0 1-.4477153 1-1s-.4477153-1-1-1h-4c-.5522847 0-1 .4477153-1 1s.4477153 1 1 1z"/><path id="Shape" d="m27 18h4c.5522847 0 1-.4477153 1-1s-.4477153-1-1-1h-4c-.5522847 0-1 .4477153-1 1s.4477153 1 1 1z"/><path id="Shape" d="m37 22c-.3572291-.0010856-.6871447-.1913483-.867-.5-.1727115-.3209394-.5063525-.5225002-.8707953-.5260692-.3644429-.003569-.7019673.1914191-.880931.5089145s-.1710225.7072132.0207263 1.0171547c.5619437 1.0145333 1.6583249 1.6142885 2.8157285 1.5402925 1.1574037-.073996 2.1684829-.8084869 2.5966558-1.8863211s.196733-2.3059195-.5943843-3.1539714c.7624631-.8514285.9736727-2.062666.5443826-3.1219066-.4292901-1.0592405-1.4241781-1.7816696-2.564276-1.8620262-1.140098-.0803566-2.2264835.4953798-2.8001066 1.4839328-.2561528.4759933-.0876904 1.0693836.3803603 1.3397768s1.0662521.1199053 1.3506397-.3397768c.2424614-.4199504.7512754-.6054271 1.2071135-.440026.455838.1654012.7273175.6340079.6440595 1.1117253-.083258.4777175-.4972567.826857-.982173.8283007-.5522847 0-1 .4477153-1 1s.4477153 1 1 1 1 .4477153 1 1-.4477153 1-1 1z"/></g></g></svg>