<svg id="Capa_1" enable-background="new 0 0 511.978 511.978" height="512" viewBox="0 0 511.978 511.978" width="512" xmlns="http://www.w3.org/2000/svg"><g><path d="m439.828 238.198c36.077-36.077 45.912-88.45 29.523-133.422l-64.669 64.669-59.761-16.013-16.013-59.761 64.669-64.669c-44.972-16.389-97.345-6.553-133.422 29.524-31.436 31.436-42.949 75.246-34.548 115.751 3.97 19.138-2.398 38.946-17.043 51.89l-180.212 159.289c-26.459 22.743-27.984 63.188-3.313 87.859 24.671 24.671 65.115 23.146 87.859-3.313l159.29-180.214c12.944-14.644 32.753-21.012 51.89-17.043 40.504 8.402 84.314-3.111 115.75-34.547z" fill="#e7ecf6"/><path d="m469.352 104.776-11.642 11.642c3.86 36.797-8.305 74.955-36.506 103.156-31.436 31.436-75.246 42.949-115.751 34.548-19.138-3.97-38.946 2.398-51.89 17.043l-159.29 180.213c-19.789 23.022-52.975 27.157-77.515 11.594 2.323 3.664 5.076 7.139 8.281 10.343 24.671 24.671 65.116 23.146 87.858-3.313l159.29-180.214c12.944-14.644 32.753-21.012 51.891-17.043 40.504 8.402 84.314-3.111 115.751-34.548 36.077-36.076 45.912-88.45 29.523-133.421z" fill="#d8e2f1"/><path d="m500.091 315.6-44.807-25.869c-2.714-1.567-6.059-1.567-8.773 0l-44.807 25.869c-2.714 1.567-4.386 4.463-4.386 7.598v51.739c0 3.134 1.672 6.031 4.386 7.598l44.807 25.869c2.714 1.567 6.059 1.567 8.773 0l44.807-25.869c2.714-1.567 4.387-4.464 4.387-7.598v-51.739c0-3.135-1.673-6.031-4.387-7.598zm-49.194 53.65c-11.147 0-20.183-9.037-20.183-20.183 0-11.147 9.037-20.183 20.183-20.183 11.147 0 20.183 9.036 20.183 20.183.001 11.147-9.036 20.183-20.183 20.183z" fill="#365e7d"/><path d="m345.03 376.112-44.807-25.869c-2.714-1.567-6.059-1.567-8.773 0l-44.807 25.869c-2.714 1.567-4.386 4.463-4.386 7.598v51.739c0 3.134 1.672 6.031 4.386 7.598l44.807 25.869c2.714 1.567 6.059 1.567 8.773 0l44.807-25.869c2.714-1.567 4.387-4.464 4.387-7.598v-51.739c-.001-3.135-1.673-6.031-4.387-7.598zm-49.194 53.65c-11.147 0-20.183-9.037-20.183-20.183 0-11.147 9.037-20.183 20.183-20.183 11.147 0 20.183 9.036 20.183 20.183s-9.036 20.183-20.183 20.183z" fill="#365e7d"/><path d="m500.091 315.6-44.807-25.869c-2.715-1.567-6.059-1.567-8.773 0l-7.903 4.563 36.904 21.307c2.714 1.567 4.387 4.463 4.387 7.598v51.739c0 3.134-1.672 6.031-4.387 7.598l-36.904 21.306 7.903 4.563c2.714 1.567 6.059 1.567 8.773 0l44.807-25.869c2.714-1.567 4.387-4.464 4.387-7.598v-51.739c0-3.136-1.673-6.032-4.387-7.599z" fill="#2b4d66"/><path d="m345.03 376.112-44.807-25.869c-2.714-1.567-6.059-1.567-8.773 0l-7.903 4.563 36.903 21.306c2.715 1.567 4.387 4.463 4.387 7.598v51.739c0 3.134-1.672 6.031-4.387 7.598l-36.903 21.307 7.903 4.563c2.714 1.567 6.059 1.567 8.773 0l44.807-25.869c2.715-1.567 4.387-4.464 4.387-7.598v-51.739c-.001-3.136-1.673-6.032-4.387-7.599z" fill="#2b4d66"/><g><path d="m283.929 153.071c-2.929-2.929-7.678-2.93-10.606-.001l-8.242 8.241c-2.93 2.929-2.93 7.678-.001 10.606 1.465 1.465 3.384 2.197 5.304 2.197 1.919 0 3.839-.732 5.303-2.196l8.242-8.241c2.929-2.929 2.929-7.678 0-10.606z"/><path d="m290.835 194.567c1.919 0 3.839-.732 5.304-2.197l8.241-8.242c2.929-2.929 2.929-7.678-.001-10.606-2.928-2.928-7.677-2.929-10.606.001l-8.241 8.242c-2.929 2.929-2.929 7.678.001 10.606 1.463 1.463 3.383 2.196 5.302 2.196z"/><path d="m314.225 193.974-8.241 8.242c-2.929 2.929-2.929 7.678.001 10.606 1.464 1.464 3.384 2.196 5.303 2.196s3.839-.732 5.304-2.197l8.241-8.242c2.929-2.929 2.929-7.678-.001-10.606-2.928-2.928-7.677-2.929-10.607.001z"/><path d="m326.435 233.275c1.465 1.464 3.385 2.196 5.304 2.196s3.839-.732 5.304-2.196l8.242-8.242c2.929-2.93 2.929-7.678 0-10.607-2.93-2.928-7.678-2.928-10.607 0l-8.242 8.242c-2.93 2.929-2.93 7.677-.001 10.607z"/><path d="m61.89 425.858-13.838 13.837c-2.93 2.929-2.93 7.678-.001 10.606 2.928 2.928 7.677 2.931 10.606.001l13.838-13.837c2.93-2.929 2.93-7.678.001-10.606s-7.677-2.93-10.606-.001z"/><path d="m348.78 369.616-44.807-25.869c-5.02-2.898-11.254-2.898-16.273 0l-44.809 25.869c-5.018 2.898-8.135 8.298-8.135 14.093v51.739c0 5.795 3.117 11.194 8.136 14.093l44.808 25.869c2.51 1.449 5.323 2.173 8.137 2.173s5.627-.724 8.137-2.173l44.807-25.869c5.019-2.897 8.137-8.298 8.137-14.093v-51.739c-.002-5.795-3.12-11.195-8.138-14.093zm-6.864 65.833c0 .453-.244.876-.637 1.103l-44.807 25.869c-.393.227-.881.227-1.273 0l-44.807-25.869c-.393-.227-.637-.649-.637-1.103v-51.739c0-.453.244-.876.636-1.103l44.808-25.869c.196-.113.417-.17.637-.17s.44.057.637.17l44.807 25.869c.393.227.637.649.637 1.103v51.739z"/><path d="m295.836 381.896c-15.265 0-27.684 12.419-27.684 27.684s12.419 27.683 27.684 27.683 27.683-12.418 27.683-27.683-12.418-27.684-27.683-27.684zm0 40.366c-6.994 0-12.684-5.689-12.684-12.683s5.689-12.684 12.684-12.684c6.993 0 12.683 5.689 12.683 12.684 0 6.994-5.69 12.683-12.683 12.683z"/><path d="m423.214 349.067c0 15.265 12.419 27.684 27.684 27.684s27.683-12.419 27.683-27.684-12.418-27.683-27.683-27.683-27.684 12.418-27.684 27.683zm40.366 0c0 6.994-5.689 12.684-12.683 12.684s-12.684-5.689-12.684-12.684c0-6.993 5.689-12.683 12.684-12.683 6.994 0 12.683 5.69 12.683 12.683z"/><path d="m503.841 309.105-44.807-25.869c-5.018-2.897-11.254-2.898-16.273 0l-44.809 25.869c-5.019 2.898-8.136 8.299-8.136 14.093v51.739c0 5.794 3.117 11.194 8.137 14.093l44.807 25.869c2.51 1.449 5.323 2.174 8.138 2.174 2.813 0 5.627-.725 8.136-2.174l16.074-9.28c3.587-2.071 4.816-6.658 2.745-10.245-2.07-3.588-6.66-4.814-10.245-2.745l-16.075 9.28c-.391.227-.879.227-1.271 0l-44.807-25.869c-.394-.227-.638-.649-.638-1.103v-51.739c0-.453.244-.876.637-1.103l44.809-25.869c.391-.227.879-.227 1.271 0l44.807 25.869c.394.227.638.649.638 1.103v51.739c0 .453-.244.876-.636 1.103l-2.693 1.555c-3.588 2.07-4.817 6.657-2.746 10.244 2.07 3.589 6.658 4.815 10.244 2.746l2.695-1.556c5.019-2.897 8.136-8.298 8.136-14.092v-51.739c-.001-5.794-3.118-11.195-8.138-14.093z"/><path d="m322.554 280.089c44.431 9.216 90.304-4.315 122.577-36.588 37.988-37.986 48.732-93.366 31.268-141.294-.878-2.407-2.923-4.2-5.425-4.754-2.502-.553-5.113.208-6.926 2.019l-61.606 61.607-51.396-13.771-13.772-51.396 7.386-7.385c2.929-2.93 2.929-7.678 0-10.607-2.929-2.927-7.677-2.929-10.607 0l-10.447 10.447c-1.895 1.896-2.634 4.657-1.94 7.245l16.014 59.761c.693 2.588 2.715 4.609 5.303 5.303l59.761 16.013c2.588.692 5.35-.045 7.245-1.94l55.869-55.87c10.241 40.488-1.453 84.139-31.331 114.016-28.575 28.576-69.293 40.73-108.924 32.508-21.826-4.527-44.445 2.914-59.032 19.42l-159.29 180.214c-.023.025-.046.052-.068.078-4.959 5.769-10.955 10.296-17.821 13.454-3.764 1.73-5.411 6.185-3.68 9.947 1.733 3.768 6.188 5.409 9.947 3.68 8.823-4.058 16.526-9.866 22.895-17.264l159.256-180.176c11.031-12.483 28.174-18.107 44.744-14.667z"/><path d="m63.143 483.185c-12.371-1.004-24.021-6.393-32.801-15.174-21.48-21.478-20.41-56.832 2.898-76.867.026-.022.053-.045.078-.068l180.214-159.29c16.505-14.588 23.946-37.208 19.42-59.033-8.221-39.629 3.931-80.348 32.507-108.923 29.877-29.878 73.525-41.574 114.016-31.331l-24.219 24.218c-2.929 2.93-2.929 7.678 0 10.607 2.93 2.928 7.678 2.928 10.607 0l33.018-33.018c1.812-1.812 2.573-4.424 2.019-6.926s-2.347-4.547-4.754-5.425c-47.933-17.465-103.307-6.718-141.294 31.267-32.16 32.161-45.838 77.983-36.587 122.576 3.436 16.569-2.184 33.716-14.666 44.749l-180.178 159.258c-29.688 25.56-31.413 71.085-3.686 98.812 11.294 11.295 26.279 18.227 42.194 19.519 4.118.332 7.746-2.73 8.082-6.869.336-4.129-2.739-7.747-6.868-8.082z"/></g></g></svg>