<?xml version="1.0" encoding="iso-8859-1" ?>
<!-- Generator: Adobe Illustrator 19.0.0, SVG Export Plug-In . SVG Version: 6.00 Build 0)  -->
<svg version="1.1" id="Capa_1" xmlns="http://www.w3.org/2000/svg" xmlns:xlink="http://www.w3.org/1999/xlink" x="0px" y="0px" viewBox="0 0 512 512" style="enable-background:new 0 0 512 512;" xml:space="preserve">
	<path style="fill:#C8C6CD;" d="M343.75,87.75v67.63h-30V87.75C313.75,55.91,287.84,30,256,30s-57.75,25.91-57.75,57.75v67.63h-30
	V87.75C168.25,39.36,207.61,0,256,0S343.75,39.36,343.75,87.75z" />
	<path style="fill:#AEADB3;" d="M256,30V0c48.39,0,87.75,39.36,87.75,87.75v67.63h-30V87.75C313.75,55.91,287.84,30,256,30z" />
	<rect x="59.33" y="383" style="fill:#49B9DE;" width="393.34" height="129" />
	<rect x="256" y="383" style="fill:#49B9DE;" width="196.67" height="129" />
	<rect x="138.23" y="140.38" style="fill:#F6D45A;" width="235.54" height="203.22" />
	<g>
		<rect x="120.5" y="433.4" style="fill:#4296BD;" width="31" height="31" />
		<rect x="180.5" y="433.4" style="fill:#4296BD;" width="31" height="31" />
		<rect x="240.5" y="433.4" style="fill:#4296BD;" width="31" height="31" />
		<rect x="300.5" y="433.4" style="fill:#4296BD;" width="31" height="31" />
		<rect x="360.5" y="433.4" style="fill:#4296BD;" width="31" height="31" />
	</g>
	<g>
		<rect x="256" y="433.4" style="fill:#4296BD;" width="15.5" height="31" />
		<rect x="300.5" y="433.4" style="fill:#4296BD;" width="31" height="31" />
	</g>
	<rect x="256" y="140.38" style="fill:#F6D45A;" width="117.77" height="203.22" />
	<rect x="360.5" y="433.4" style="fill:#4296BD;" width="31" height="31" />
	<path style="fill:#4296BD;" d="M278.5,226.5c0,6.66-2.9,12.64-7.5,16.76v35.41h-30v-35.41c-4.6-4.12-7.5-10.1-7.5-16.76
	c0-12.43,10.08-22.5,22.5-22.5C268.42,204,278.5,214.07,278.5,226.5z" />
	<path style="fill:#4296BD;" d="M271,278.67h-15V204c12.42,0,22.5,10.07,22.5,22.5c0,6.66-2.9,12.64-7.5,16.76V278.67z" />
	<g></g>
	<g></g>
	<g></g>
	<g></g>
	<g></g>
	<g></g>
	<g></g>
	<g></g>
	<g></g>
	<g></g>
	<g></g>
	<g></g>
	<g></g>
	<g></g>
	<g></g>
</svg>