<?xml version="1.0" encoding="iso-8859-1"?>
<!-- Generator: Adobe Illustrator 19.0.0, SVG Export Plug-In . SVG Version: 6.00 Build 0)  -->
<svg version="1.1" id="Capa_1" xmlns="http://www.w3.org/2000/svg" xmlns:xlink="http://www.w3.org/1999/xlink" x="0px" y="0px"
	 viewBox="0 0 512 512" style="enable-background:new 0 0 512 512;" xml:space="preserve">
<g>
	<path style="fill:#8B8FB5;" d="M176,440h-56c-4.418,0-8-3.582-8-8s3.582-8,8-8h48v-88c0-4.418,3.582-8,8-8s8,3.582,8,8v96
		C184,436.418,180.418,440,176,440z"/>
	<path style="fill:#8B8FB5;" d="M256,432c-4.418,0-8-3.582-8-8v-88c0-4.418,3.582-8,8-8s8,3.582,8,8v88
		C264,428.418,260.418,432,256,432z"/>
	<path style="fill:#8B8FB5;" d="M408,416h-96c-4.418,0-8-3.582-8-8v-72c0-4.418,3.582-8,8-8s8,3.582,8,8v64h88c4.418,0,8,3.582,8,8
		S412.418,416,408,416z"/>
</g>
<path style="fill:#49B9DE;" d="M486.148,171.381c-15.333-17.446-35.977-29.225-58.593-33.536C414.372,94.104,374.171,64,328,64
	c-5.187,0-10.376,0.388-15.501,1.155C296.749,25.904,258.813,0,216,0c-57.346,0-104,46.654-104,104c0,8.134,0.936,16.168,2.789,24
	H112c-0.301,0-0.599,0.017-0.892,0.05C110,128.017,108.975,128,108,128C48.449,128,0,176.449,0,236s48.449,108,108,108
	c0.973,0,1.995-0.017,3.1-0.05c0.295,0.033,0.596,0.05,0.9,0.05h296c57.346,0,104-46.654,104-104
	C512,214.72,502.819,190.35,486.148,171.381z"/>
<path style="fill:#4296BD;" d="M424,328H128c-0.304,0-0.604-0.017-0.9-0.05c-1.105,0.034-2.127,0.05-3.1,0.05
	c-59.551,0-108-48.449-108-108c0-25.709,9.035-49.344,24.09-67.91C15.651,171.907,0,202.158,0,236c0,59.551,48.449,108,108,108
	c0.973,0,1.995-0.017,3.1-0.05c0.295,0.033,0.596,0.05,0.9,0.05h296c32.74,0,61.989-15.212,81.067-38.933
	C471.239,319.405,448.606,328,424,328z"/>
<g>
	<path style="fill:#FFFFFF;" d="M253.459,242.51c-16.953,0-30.745,13.792-30.745,30.745S236.506,304,253.459,304
		s30.745-13.792,30.745-30.745S270.412,242.51,253.459,242.51z"/>
	<path style="fill:#FFFFFF;" d="M344,181.49c-2.047,0-4.095-0.781-5.657-2.343C315.678,156.482,285.543,144,253.49,144
		s-62.188,12.482-84.853,35.147c-3.124,3.124-8.189,3.125-11.313,0c-3.125-3.124-3.125-8.189,0-11.313
		C183.011,142.146,217.164,128,253.49,128s70.479,14.146,96.167,39.833C354.583,172.759,350.995,181.49,344,181.49z"/>
	<path style="fill:#FFFFFF;" d="M315.716,209.775c-2.048,0-4.095-0.781-5.657-2.343c-15.11-15.11-35.2-23.432-56.569-23.432
		s-41.458,8.321-56.568,23.432c-3.124,3.124-8.189,3.125-11.313,0c-3.125-3.124-3.125-8.189,0-11.313
		C203.74,177.986,227.848,168,253.49,168c25.643,0,49.751,9.986,67.882,28.118C326.298,201.043,322.711,209.775,315.716,209.775z"/>
	<path style="fill:#FFFFFF;" d="M287.432,238.059c-2.047,0-4.095-0.781-5.657-2.343C274.22,228.161,264.175,224,253.49,224
		s-20.729,4.161-28.284,11.716c-3.125,3.124-8.19,3.125-11.314,0s-3.125-8.189,0-11.314C224.469,213.825,238.532,208,253.49,208
		c14.958,0,29.021,5.825,39.598,16.402c3.125,3.124,3.125,8.189,0,11.313C291.526,237.278,289.479,238.059,287.432,238.059z"/>
</g>
<path style="fill:#F6D45A;" d="M256,416c-26.467,0-48,21.533-48,48s21.533,48,48,48s48-21.533,48-48S282.467,416,256,416z"/>
<path style="fill:#F2A83B;" d="M264,504c-26.467,0-48-21.533-48-48c0-11.199,3.866-21.506,10.319-29.681
	C215.174,435.117,208,448.732,208,464c0,26.467,21.533,48,48,48c15.268,0,28.883-7.174,37.681-18.319
	C285.506,500.134,275.199,504,264,504z"/>
<path style="fill:#49B9DE;" d="M276.438,457.344l-24-16C247.215,437.862,240,441.742,240,448v32c0,6.25,7.21,10.142,12.438,6.656
	l24-16C281.106,467.545,281.106,460.456,276.438,457.344z"/>
<path style="fill:#F6D45A;" d="M80,384c-26.467,0-48,21.533-48,48s21.533,48,48,48s48-21.533,48-48S106.467,384,80,384z"/>
<path style="fill:#F2A83B;" d="M88,472c-26.467,0-48-21.533-48-48c0-11.199,3.866-21.506,10.319-29.681
	C39.174,403.117,32,416.732,32,432c0,26.467,21.533,48,48,48c15.268,0,28.883-7.174,37.681-18.319
	C109.506,468.134,99.199,472,88,472z"/>
	<path style="fill:#E1E2EC;" d="M80,408c-13.234,0-24,10.766-24,24s10.766,24,24,24s24-10.766,24-24S93.234,408,80,408z" />
<path style="fill:#F6D45A;" d="M448,360c-26.467,0-48,21.533-48,48s21.533,48,48,48s48-21.533,48-48S474.467,360,448,360z"/>
<path style="fill:#F2A83B;" d="M456,448c-26.467,0-48-21.533-48-48c0-11.199,3.866-21.506,10.319-29.681
	C407.174,379.117,400,392.732,400,408c0,26.467,21.533,48,48,48c15.268,0,28.883-7.174,37.681-18.319
	C477.506,444.134,467.199,448,456,448z"/>
<g>
	<path style="fill:#E1E2EC;" d="M460,424c-4.418,0-8-3.582-8-8v-16c0-4.418,3.582-8,8-8s8,3.582,8,8v16
		C468,420.418,464.418,424,460,424z"/>
	<path style="fill:#E1E2EC;" d="M436,424c-4.418,0-8-3.582-8-8v-16c0-4.418,3.582-8,8-8s8,3.582,8,8v16
		C444,420.418,440.418,424,436,424z"/>
</g>
<g>
</g>
<g>
</g>
<g>
</g>
<g>
</g>
<g>
</g>
<g>
</g>
<g>
</g>
<g>
</g>
<g>
</g>
<g>
</g>
<g>
</g>
<g>
</g>
<g>
</g>
<g>
</g>
<g>
</g>
</svg>
