<svg id="Capa_1" enable-background="new 0 0 510 510" height="512" viewBox="0 0 510 510" width="512" xmlns="http://www.w3.org/2000/svg" xmlns:xlink="http://www.w3.org/1999/xlink"><linearGradient id="lg1"><stop offset="0" stop-color="#ff7044"/><stop offset="1" stop-color="#f82814"/></linearGradient><linearGradient id="SVGID_1_" gradientUnits="userSpaceOnUse" x1="113.22" x2="484.792" xlink:href="#lg1" y1="113.22" y2="484.792"/><linearGradient id="SVGID_2_" gradientUnits="userSpaceOnUse" x1="432.105" x2="356.006" y1="256.346" y2="251.489"><stop offset="0" stop-color="#f82814" stop-opacity="0"/><stop offset="1" stop-color="#c0272d"/></linearGradient><linearGradient id="lg2"><stop offset="0" stop-color="#534854"/><stop offset="1" stop-color="#342434"/></linearGradient><linearGradient id="SVGID_3_" gradientUnits="userSpaceOnUse" x1="255" x2="255" xlink:href="#lg2" y1="199.14" y2="30.328"/><linearGradient id="SVGID_4_" gradientUnits="userSpaceOnUse" x1="422.26" x2="349.399" xlink:href="#lg2" y1="388.299" y2="234.077"/><linearGradient id="SVGID_5_" gradientUnits="userSpaceOnUse" x1="159.449" x2="159.449" xlink:href="#lg2" y1="399.507" y2="175.586"/><linearGradient id="lg3"><stop offset="0" stop-color="#534854" stop-opacity="0"/><stop offset="1" stop-color="#0a0007"/></linearGradient><linearGradient id="SVGID_6_" gradientUnits="userSpaceOnUse" x1="330.413" x2="285.887" xlink:href="#lg3" y1="307.979" y2="199.497"/><linearGradient id="lg4"><stop offset="0" stop-color="#f8f6fb"/><stop offset="1" stop-color="#efdcfb"/></linearGradient><linearGradient id="SVGID_7_" gradientTransform="matrix(.243 -.075 -.075 .243 205.688 213.84)" gradientUnits="userSpaceOnUse" x1="-708.123" x2="-708.123" xlink:href="#lg4" y1="-734.484" y2="-618.1"/><linearGradient id="lg5"><stop offset="0" stop-color="#efdcfb" stop-opacity="0"/><stop offset=".2889" stop-color="#c7b6df" stop-opacity=".289"/><stop offset=".5915" stop-color="#a495c7" stop-opacity=".592"/><stop offset=".8395" stop-color="#8e80b7" stop-opacity=".84"/><stop offset="1" stop-color="#8679b2"/></linearGradient><linearGradient id="SVGID_8_" gradientTransform="matrix(.118 .118 -.225 .225 -180.991 113.959)" gradientUnits="userSpaceOnUse" x1="1070.729" x2="1210.535" xlink:href="#lg5" y1="-585.086" y2="-845.107"/><linearGradient id="SVGID_9_" gradientTransform="matrix(.047 -.25 .179 .18 232.675 119.07)" gradientUnits="userSpaceOnUse" x1="-451.33" x2="-451.33" xlink:href="#lg4" y1="-650.094" y2="-521.571"/><linearGradient id="SVGID_10_" gradientTransform="matrix(.16 -.049 .093 .304 -36.507 414.143)" gradientUnits="userSpaceOnUse" x1="1319.432" x2="1445.278" xlink:href="#lg5" y1="-705.965" y2="-940.022"/><linearGradient id="SVGID_11_" gradientTransform="matrix(.134 -.216 .102 .233 236.414 161.732)" gradientUnits="userSpaceOnUse" x1="-645.891" x2="-645.891" xlink:href="#lg4" y1="-734.457" y2="-611.257"/><linearGradient id="SVGID_12_" gradientTransform="matrix(.167 .012 -.023 .317 -121.112 339.351)" gradientUnits="userSpaceOnUse" x1="1117.716" x2="1247.928" xlink:href="#lg5" y1="-629.3" y2="-871.477"/><linearGradient id="SVGID_13_" gradientTransform="matrix(.221 .126 -.229 .111 151.312 270.828)" gradientUnits="userSpaceOnUse" x1="-598.576" x2="-598.576" xlink:href="#lg4" y1="-456.374" y2="-331.561"/><linearGradient id="SVGID_14_" gradientTransform="matrix(-.005 .167 -.318 -.01 -40.716 -79.007)" gradientUnits="userSpaceOnUse" x1="1348.882" x2="1485.152" xlink:href="#lg5" y1="-462.902" y2="-716.344"/><linearGradient id="SVGID_15_" gradientTransform="matrix(.143 .21 -.254 -.001 74.427 244.633)" gradientUnits="userSpaceOnUse" x1="-655.727" x2="-655.727" xlink:href="#lg4" y1="-649.945" y2="-519.166"/><linearGradient id="SVGID_16_" gradientTransform="matrix(-.079 .148 -.28 -.15 57.782 -154.412)" gradientUnits="userSpaceOnUse" x1="1181.288" x2="1310.483" xlink:href="#lg5" y1="-555.567" y2="-795.851"/><linearGradient id="SVGID_17_" gradientTransform="matrix(.243 -.075 -.075 .243 205.688 213.84)" gradientUnits="userSpaceOnUse" x1="-468.757" x2="-468.757" xlink:href="#lg4" y1="-528.354" y2="-411.971"/><linearGradient id="SVGID_18_" gradientTransform="matrix(.118 .118 -.225 .225 -180.991 113.959)" gradientUnits="userSpaceOnUse" x1="1385.74" x2="1525.546" xlink:href="#lg5" y1="-608.598" y2="-868.618"/><linearGradient id="SVGID_19_" gradientTransform="matrix(-.075 -.243 .243 .075 263.343 141.97)" gradientUnits="userSpaceOnUse" x1="-174.257" x2="-174.257" xlink:href="#lg4" y1="-549.632" y2="-417.657"/><linearGradient id="SVGID_20_" gradientTransform="matrix(.118 -.118 .225 .225 163.461 528.65)" gradientUnits="userSpaceOnUse" x1="1591.934" x2="1717.812" xlink:href="#lg5" y1="-826.51" y2="-1060.626"/><linearGradient id="SVGID_21_" gradientTransform="matrix(-.25 -.047 .18 -.179 168.572 114.984)" gradientUnits="userSpaceOnUse" x1="-96.814" x2="-96.814" xlink:href="#lg4" y1="-107.305" y2="12.495"/><linearGradient id="SVGID_22_" gradientTransform="matrix(-.049 -.16 .304 -.093 463.645 384.165)" gradientUnits="userSpaceOnUse" x1="1947.369" x2="2087.293" xlink:href="#lg5" y1="-573.681" y2="-833.919"/><linearGradient id="SVGID_23_" gradientTransform="matrix(-.216 -.134 .233 -.102 211.235 111.244)" gradientUnits="userSpaceOnUse" x1="-160.199" x2="-160.199" xlink:href="#lg4" y1="-239.641" y2="-114.167"/><linearGradient id="SVGID_24_" gradientTransform="matrix(.012 -.167 .317 .023 388.854 468.771)" gradientUnits="userSpaceOnUse" x1="1814.092" x2="1949.783" xlink:href="#lg5" y1="-619.382" y2="-871.75"/><linearGradient id="SVGID_25_" gradientTransform="matrix(.126 -.221 .111 .229 320.33 196.347)" gradientUnits="userSpaceOnUse" x1="-313.423" x2="-313.423" xlink:href="#lg4" y1="-672.977" y2="-549.175"/><linearGradient id="SVGID_26_" gradientTransform="matrix(.167 .005 -.01 .318 -29.504 388.375)" gradientUnits="userSpaceOnUse" x1="1395.42" x2="1525.018" xlink:href="#lg5" y1="-820.671" y2="-1061.705"/><linearGradient id="SVGID_27_" gradientTransform="matrix(.21 -.143 -.001 .254 294.135 273.232)" gradientUnits="userSpaceOnUse" x1="-625.255" x2="-625.255" xlink:href="#lg4" y1="-1062.477" y2="-944.634"/><linearGradient id="SVGID_28_" gradientTransform="matrix(.148 .079 -.15 .28 -104.91 289.877)" gradientUnits="userSpaceOnUse" x1="899.577" x2="1036.103" xlink:href="#lg5" y1="-874.893" y2="-1128.812"/><linearGradient id="SVGID_29_" gradientTransform="matrix(-.075 -.243 .243 .075 263.343 141.97)" gradientUnits="userSpaceOnUse" x1="50.938" x2="50.938" xlink:href="#lg4" y1="-333.495" y2="-201.519"/><linearGradient id="SVGID_30_" gradientTransform="matrix(.118 -.118 .225 .225 163.461 528.65)" gradientUnits="userSpaceOnUse" x1="1904" x2="2029.878" xlink:href="#lg5" y1="-832.917" y2="-1067.034"/><linearGradient id="SVGID_31_" gradientTransform="matrix(.118 -.225 .118 .225 265.942 229.76)" gradientUnits="userSpaceOnUse" x1="36.472" x2="36.472" xlink:href="#lg4" y1="-487.481" y2="-363.217"/><linearGradient id="SVGID_32_" gradientTransform="matrix(.167 0 0 .318 -78.136 432.781)" gradientUnits="userSpaceOnUse" x1="1777.948" x2="1907.107" xlink:href="#lg5" y1="-936.282" y2="-1176.499"/><linearGradient id="SVGID_33_" gradientTransform="matrix(-.143 -.21 .254 .001 218.109 143.651)" gradientUnits="userSpaceOnUse" x1="75.522" x2="75.522" xlink:href="#lg4" y1="115.47" y2="246.255"/><linearGradient id="SVGID_34_" gradientTransform="matrix(.079 -.148 .281 .149 235.392 542.091)" gradientUnits="userSpaceOnUse" x1="2236.391" x2="2365.616" xlink:href="#lg5" y1="-530.597" y2="-770.937"/><linearGradient id="SVGID_35_" gradientTransform="matrix(-.057 -.247 .236 .093 250.54 170.892)" gradientUnits="userSpaceOnUse" x1="60.018" x2="60.018" xlink:href="#lg4" y1="-54.319" y2="77.569"/><linearGradient id="SVGID_36_" gradientTransform="matrix(.127 -.109 .208 .241 123.354 550.103)" gradientUnits="userSpaceOnUse" x1="2108.356" x2="2233.732" xlink:href="#lg5" y1="-645.464" y2="-878.647"/><linearGradient id="SVGID_37_" gradientTransform="matrix(.245 -.067 -.083 .24 268.502 308.466)" gradientUnits="userSpaceOnUse" x1="-223.712" x2="-223.712" xlink:href="#lg4" y1="-802.811" y2="-686.415"/><linearGradient id="SVGID_38_" gradientTransform="matrix(.114 .122 -.232 .217 -115.169 195.957)" gradientUnits="userSpaceOnUse" x1="1367.749" x2="1507.775" xlink:href="#lg5" y1="-976.305" y2="-1236.735"/><linearGradient id="SVGID_39_" gradientTransform="matrix(.249 .048 -.181 .179 194.863 343.97)" gradientUnits="userSpaceOnUse" x1="-623.702" x2="-623.702" xlink:href="#lg4" y1="-1255.844" y2="-1136.049"/><linearGradient id="SVGID_40_" gradientTransform="matrix(.049 .16 -.304 .093 -99.608 73.894)" gradientUnits="userSpaceOnUse" x1="765.635" x2="905.567" xlink:href="#lg5" y1="-1012.079" y2="-1272.333"/><linearGradient id="SVGID_41_" gradientTransform="matrix(.118 -.225 .118 .225 265.942 229.76)" gradientUnits="userSpaceOnUse" x1="279.689" x2="279.689" xlink:href="#lg4" y1="-264.315" y2="-140.051"/><linearGradient id="SVGID_42_" gradientTransform="matrix(.167 0 0 .318 -78.136 432.781)" gradientUnits="userSpaceOnUse" x1="2107.733" x2="2236.892" xlink:href="#lg5" y1="-950.465" y2="-1190.683"/><linearGradient id="SVGID_43_" gradientTransform="matrix(-.118 .225 -.118 -.225 340.372 28.501)" gradientUnits="userSpaceOnUse" x1="157.448" x2="157.448" xlink:href="#lg4" y1="-332.683" y2="-208.42"/><linearGradient id="SVGID_44_" gradientTransform="matrix(-.167 0 0 -.318 684.45 -174.519)" gradientUnits="userSpaceOnUse" x1="1972.95" x2="2102.109" xlink:href="#lg5" y1="-912.357" y2="-1152.575"/><linearGradient id="SVGID_45_" gradientTransform="matrix(.143 .21 -.254 -.001 388.206 114.611)" gradientUnits="userSpaceOnUse" x1="39.868" x2="39.868" xlink:href="#lg4" y1="223.852" y2="354.636"/><linearGradient id="SVGID_46_" gradientTransform="matrix(-.079 .148 -.281 -.149 370.922 -283.829)" gradientUnits="userSpaceOnUse" x1="2287.825" x2="2417.05" xlink:href="#lg5" y1="-428.721" y2="-669.061"/><linearGradient id="SVGID_47_" gradientTransform="matrix(.057 .247 -.236 -.093 355.774 87.37)" gradientUnits="userSpaceOnUse" x1="83.159" x2="83.159" xlink:href="#lg4" y1="89.303" y2="221.191"/><linearGradient id="SVGID_48_" gradientTransform="matrix(-.127 .109 -.208 -.241 482.96 -291.842)" gradientUnits="userSpaceOnUse" x1="2226.301" x2="2351.677" xlink:href="#lg5" y1="-560.283" y2="-793.466"/><linearGradient id="SVGID_49_" gradientTransform="matrix(-.245 .067 .083 -.24 337.812 -50.205)" gradientUnits="userSpaceOnUse" x1="-64.586" x2="-64.586" xlink:href="#lg4" y1="-726.444" y2="-610.048"/><linearGradient id="SVGID_50_" gradientTransform="matrix(-.114 -.122 .232 -.217 721.483 62.305)" gradientUnits="userSpaceOnUse" x1="1534.3" x2="1674.326" xlink:href="#lg5" y1="-1034.823" y2="-1295.253"/><linearGradient id="SVGID_51_" gradientTransform="matrix(-.249 -.048 .181 -.179 411.451 -85.708)" gradientUnits="userSpaceOnUse" x1="-488.26" x2="-488.26" xlink:href="#lg4" y1="-1249.447" y2="-1129.652"/><linearGradient id="SVGID_52_" gradientTransform="matrix(-.049 -.16 .304 -.093 705.922 184.368)" gradientUnits="userSpaceOnUse" x1="865.894" x2="1005.827" xlink:href="#lg5" y1="-1103.303" y2="-1363.557"/><linearGradient id="SVGID_53_" gradientTransform="matrix(-.118 .225 -.118 -.225 340.372 28.501)" gradientUnits="userSpaceOnUse" x1="400.664" x2="400.664" xlink:href="#lg4" y1="-109.517" y2="14.747"/><linearGradient id="SVGID_54_" gradientTransform="matrix(-.167 0 0 -.318 684.45 -174.519)" gradientUnits="userSpaceOnUse" x1="2302.735" x2="2431.895" xlink:href="#lg5" y1="-926.541" y2="-1166.758"/><linearGradient id="SVGID_55_" gradientTransform="matrix(.243 -.075 -.075 .243 205.688 213.84)" gradientUnits="userSpaceOnUse" x1="609.497" x2="609.497" xlink:href="#lg4" y1="-325.511" y2="-209.127"/><linearGradient id="SVGID_56_" gradientTransform="matrix(.118 .118 -.225 .225 -180.991 113.959)" gradientUnits="userSpaceOnUse" x1="2291.604" x2="2431.411" xlink:href="#lg5" y1="-1227.852" y2="-1487.873"/><linearGradient id="SVGID_57_" gradientTransform="matrix(.047 -.25 .179 .18 232.675 119.07)" gradientUnits="userSpaceOnUse" x1="528.893" x2="528.893" xlink:href="#lg4" y1="705.592" y2="834.114"/><linearGradient id="SVGID_58_" gradientTransform="matrix(.16 -.049 .093 .304 -36.507 414.143)" gradientUnits="userSpaceOnUse" x1="2970.589" x2="3096.435" xlink:href="#lg5" y1="-440.368" y2="-674.424"/><linearGradient id="SVGID_59_" gradientTransform="matrix(.134 -.216 .102 .233 236.414 161.732)" gradientUnits="userSpaceOnUse" x1="619.053" x2="619.053" xlink:href="#lg4" y1="436.486" y2="559.685"/><linearGradient id="SVGID_60_" gradientTransform="matrix(.167 .012 -.023 .317 -121.112 339.351)" gradientUnits="userSpaceOnUse" x1="2840.264" x2="2970.477" xlink:href="#lg5" y1="-695.594" y2="-937.771"/><linearGradient id="SVGID_61_" gradientTransform="matrix(.221 .126 -.229 .111 151.312 270.828)" gradientUnits="userSpaceOnUse" x1="3.989" x2="3.989" xlink:href="#lg4" y1="-1138.267" y2="-1013.454"/><linearGradient id="SVGID_62_" gradientTransform="matrix(-.005 .167 -.318 -.01 -40.716 -79.007)" gradientUnits="userSpaceOnUse" x1="1292.931" x2="1429.2" xlink:href="#lg5" y1="-1371.17" y2="-1624.613"/><linearGradient id="SVGID_63_" gradientTransform="matrix(.143 .21 -.254 -.001 74.427 244.633)" gradientUnits="userSpaceOnUse" x1="-663.333" x2="-663.333" xlink:href="#lg4" y1="-1791.456" y2="-1660.677"/><linearGradient id="SVGID_64_" gradientTransform="matrix(-.079 .148 -.28 -.15 57.782 -154.412)" gradientUnits="userSpaceOnUse" x1="368.405" x2="497.6" xlink:href="#lg5" y1="-1357.582" y2="-1597.867"/><linearGradient id="SVGID_65_" gradientTransform="matrix(.243 -.075 -.075 .243 205.688 213.84)" gradientUnits="userSpaceOnUse" x1="848.864" x2="848.864" xlink:href="#lg4" y1="-119.382" y2="-2.998"/><linearGradient id="SVGID_66_" gradientTransform="matrix(.118 .118 -.225 .225 -180.991 113.959)" gradientUnits="userSpaceOnUse" x1="2606.615" x2="2746.421" xlink:href="#lg5" y1="-1251.364" y2="-1511.384"/><linearGradient id="SVGID_67_" gradientTransform="matrix(-.243 .075 .075 -.243 304.312 168.419)" gradientUnits="userSpaceOnUse" x1="-588.046" x2="-588.046" xlink:href="#lg4" y1="-347.622" y2="-231.238"/><linearGradient id="SVGID_68_" gradientTransform="matrix(-.118 -.118 .225 -.225 690.991 268.301)" gradientUnits="userSpaceOnUse" x1="1429.187" x2="1568.993" xlink:href="#lg5" y1="-396.366" y2="-656.386"/><linearGradient id="SVGID_69_" gradientTransform="matrix(-.047 .25 -.179 -.18 277.325 263.19)" gradientUnits="userSpaceOnUse" x1="-736.577" x2="-736.577" xlink:href="#lg4" y1="-574.475" y2="-445.952"/><linearGradient id="SVGID_70_" gradientTransform="matrix(-.16 .049 -.093 -.304 546.507 -31.883)" gradientUnits="userSpaceOnUse" x1="1171.284" x2="1297.13" xlink:href="#lg5" y1="-450.812" y2="-684.869"/><linearGradient id="SVGID_71_" gradientTransform="matrix(-.134 .216 -.102 -.233 273.586 220.527)" gradientUnits="userSpaceOnUse" x1="-807.818" x2="-807.818" xlink:href="#lg4" y1="-520.042" y2="-396.843"/><linearGradient id="SVGID_72_" gradientTransform="matrix(-.167 -.012 .023 -.317 631.112 42.908)" gradientUnits="userSpaceOnUse" x1="1154.73" x2="1284.942" xlink:href="#lg5" y1="-363.183" y2="-605.359"/><linearGradient id="SVGID_73_" gradientTransform="matrix(-.221 -.126 .229 -.111 358.688 111.432)" gradientUnits="userSpaceOnUse" x1="-234.053" x2="-234.053" xlink:href="#lg4" y1="-104.135" y2="20.678"/><linearGradient id="SVGID_74_" gradientTransform="matrix(.005 -.167 .318 .01 550.716 461.266)" gradientUnits="userSpaceOnUse" x1="1855.594" x2="1991.864" xlink:href="#lg5" y1="-471.514" y2="-724.957"/><linearGradient id="SVGID_75_" gradientTransform="matrix(-.143 -.21 .254 .001 435.573 137.627)" gradientUnits="userSpaceOnUse" x1="-250.542" x2="-250.542" xlink:href="#lg4" y1="-422.467" y2="-291.688"/><linearGradient id="SVGID_76_" gradientTransform="matrix(.079 -.148 .28 .15 452.218 536.672)" gradientUnits="userSpaceOnUse" x1="1628.63" x2="1757.825" xlink:href="#lg5" y1="-681.122" y2="-921.407"/><linearGradient id="SVGID_77_" gradientTransform="matrix(-.243 .075 .075 -.243 304.312 168.419)" gradientUnits="userSpaceOnUse" x1="-348.68" x2="-348.68" xlink:href="#lg4" y1="-141.492" y2="-25.108"/><linearGradient id="SVGID_78_" gradientTransform="matrix(-.118 -.118 .225 -.225 690.991 268.301)" gradientUnits="userSpaceOnUse" x1="1744.197" x2="1884.003" xlink:href="#lg5" y1="-419.877" y2="-679.898"/><linearGradient id="SVGID_79_" gradientTransform="matrix(.243 .075 -.075 -.243 318.527 168.419)" gradientUnits="userSpaceOnUse" x1="-114.542" x2="-114.542" xlink:href="#lg4" y1="-200.652" y2="-84.268"/><linearGradient id="SVGID_80_" gradientTransform="matrix(.118 -.118 -.225 -.225 -68.153 268.301)" gradientUnits="userSpaceOnUse" x1="1867.925" x2="2007.731" xlink:href="#lg5" y1="-627.353" y2="-887.373"/><linearGradient id="SVGID_81_" gradientTransform="matrix(.047 .25 .179 -.18 345.514 263.19)" gradientUnits="userSpaceOnUse" x1="-384.321" x2="-384.321" xlink:href="#lg4" y1="-87.291" y2="41.232"/><linearGradient id="SVGID_82_" gradientTransform="matrix(.16 .049 .093 -.304 76.332 -31.883)" gradientUnits="userSpaceOnUse" x1="1764.649" x2="1890.496" xlink:href="#lg5" y1="-355.366" y2="-589.423"/><linearGradient id="SVGID_83_" gradientTransform="matrix(.134 .216 .102 -.233 349.253 220.527)" gradientUnits="userSpaceOnUse" x1="-353.244" x2="-353.244" xlink:href="#lg4" y1="-99.249" y2="23.951"/><linearGradient id="SVGID_84_" gradientTransform="matrix(.167 -.012 -.023 -.317 -8.273 42.908)" gradientUnits="userSpaceOnUse" x1="1773.751" x2="1903.963" xlink:href="#lg5" y1="-387.006" y2="-629.183"/><linearGradient id="SVGID_85_" gradientTransform="matrix(.221 -.126 -.229 -.111 264.151 111.432)" gradientUnits="userSpaceOnUse" x1="-17.513" x2="-17.513" xlink:href="#lg4" y1="-349.182" y2="-224.37"/><linearGradient id="SVGID_86_" gradientTransform="matrix(-.005 -.167 -.318 .01 72.123 461.266)" gradientUnits="userSpaceOnUse" x1="1835.487" x2="1971.757" xlink:href="#lg5" y1="-797.913" y2="-1051.355"/><linearGradient id="SVGID_87_" gradientTransform="matrix(.143 -.21 -.254 .001 187.266 137.627)" gradientUnits="userSpaceOnUse" x1="-253.275" x2="-253.275" xlink:href="#lg4" y1="-832.684" y2="-701.905"/><linearGradient id="SVGID_88_" gradientTransform="matrix(-.079 -.148 -.28 .15 170.621 536.672)" gradientUnits="userSpaceOnUse" x1="1336.51" x2="1465.705" xlink:href="#lg5" y1="-969.338" y2="-1209.623"/><linearGradient id="SVGID_89_" gradientTransform="matrix(.243 .075 -.075 -.243 318.527 168.419)" gradientUnits="userSpaceOnUse" x1="124.825" x2="124.825" xlink:href="#lg4" y1="5.478" y2="121.862"/><linearGradient id="SVGID_90_" gradientTransform="matrix(.118 -.118 -.225 -.225 -68.153 268.301)" gradientUnits="userSpaceOnUse" x1="2182.936" x2="2322.742" xlink:href="#lg5" y1="-650.864" y2="-910.884"/><linearGradient id="SVGID_91_" gradientTransform="matrix(-.243 .075 .075 -.243 304.312 168.419)" gradientUnits="userSpaceOnUse" x1="70.764" x2="70.764" xlink:href="#lg4" y1="-143.135" y2="-26.751"/><linearGradient id="SVGID_92_" gradientTransform="matrix(-.118 -.118 .225 -.225 690.991 268.301)" gradientUnits="userSpaceOnUse" x1="2039.624" x2="2179.43" xlink:href="#lg5" y1="-717.749" y2="-977.769"/><linearGradient id="SVGID_93_" gradientTransform="matrix(-.047 .25 -.179 -.18 277.325 263.19)" gradientUnits="userSpaceOnUse" x1="-246.465" x2="-246.465" xlink:href="#lg4" y1="103.368" y2="231.891"/><linearGradient id="SVGID_94_" gradientTransform="matrix(-.16 .049 -.093 -.304 546.507 -31.883)" gradientUnits="userSpaceOnUse" x1="1996.862" x2="2122.709" xlink:href="#lg5" y1="-318.013" y2="-552.07"/><linearGradient id="SVGID_95_" gradientTransform="matrix(-.134 .216 -.102 -.233 273.586 220.527)" gradientUnits="userSpaceOnUse" x1="-175.347" x2="-175.347" xlink:href="#lg4" y1="65.429" y2="188.628"/><linearGradient id="SVGID_96_" gradientTransform="matrix(-.167 -.012 .023 -.317 631.112 42.908)" gradientUnits="userSpaceOnUse" x1="2016.004" x2="2146.216" xlink:href="#lg5" y1="-396.329" y2="-638.506"/><linearGradient id="SVGID_97_" gradientTransform="matrix(-.221 -.126 .229 -.111 358.688 111.432)" gradientUnits="userSpaceOnUse" x1="67.23" x2="67.23" xlink:href="#lg4" y1="-445.081" y2="-320.269"/><linearGradient id="SVGID_98_" gradientTransform="matrix(.005 -.167 .318 .01 550.716 461.266)" gradientUnits="userSpaceOnUse" x1="1827.618" x2="1963.888" xlink:href="#lg5" y1="-925.649" y2="-1179.091"/><linearGradient id="SVGID_99_" gradientTransform="matrix(-.143 -.21 .254 .001 435.573 137.627)" gradientUnits="userSpaceOnUse" x1="-254.345" x2="-254.345" xlink:href="#lg4" y1="-993.223" y2="-862.444"/><linearGradient id="SVGID_100_" gradientTransform="matrix(.079 -.148 .28 .15 452.218 536.672)" gradientUnits="userSpaceOnUse" x1="1222.189" x2="1351.384" xlink:href="#lg5" y1="-1082.13" y2="-1322.415"/><linearGradient id="SVGID_101_" gradientTransform="matrix(-.243 .075 .075 -.243 304.312 168.419)" gradientUnits="userSpaceOnUse" x1="310.131" x2="310.131" xlink:href="#lg4" y1="62.994" y2="179.378"/><linearGradient id="SVGID_102_" gradientTransform="matrix(-.118 -.118 .225 -.225 690.991 268.301)" gradientUnits="userSpaceOnUse" x1="2354.635" x2="2494.441" xlink:href="#lg5" y1="-741.261" y2="-1001.281"/><linearGradient id="SVGID_103_" gradientTransform="matrix(-.075 -.243 .243 .075 221.291 296.861)" gradientUnits="userSpaceOnUse" x1="370.477" x2="370.477" xlink:href="#lg4" y1="-207.216" y2="-75.241"/><linearGradient id="SVGID_104_" gradientTransform="matrix(.118 -.118 .225 .225 121.41 683.541)" gradientUnits="userSpaceOnUse" x1="2219.238" x2="2345.116" xlink:href="#lg5" y1="-969.627" y2="-1203.744"/><linearGradient id="SVGID_105_" gradientTransform="matrix(-.25 -.047 .18 -.179 126.521 269.874)" gradientUnits="userSpaceOnUse" x1="122.707" x2="122.707" xlink:href="#lg4" y1="429.402" y2="549.202"/><linearGradient id="SVGID_106_" gradientTransform="matrix(-.049 -.16 .304 -.093 421.594 539.056)" gradientUnits="userSpaceOnUse" x1="2481.929" x2="2621.853" xlink:href="#lg5" y1="-349.366" y2="-609.604"/><linearGradient id="SVGID_107_" gradientTransform="matrix(-.216 -.134 .233 -.102 169.183 266.135)" gradientUnits="userSpaceOnUse" x1="225.312" x2="225.312" xlink:href="#lg4" y1="297.856" y2="423.329"/><linearGradient id="SVGID_108_" gradientTransform="matrix(.012 -.167 .317 .023 346.802 623.661)" gradientUnits="userSpaceOnUse" x1="2466.749" x2="2602.441" xlink:href="#lg5" y1="-511.845" y2="-764.213"/><linearGradient id="SVGID_109_" gradientTransform="matrix(.126 -.221 .111 .229 278.279 351.238)" gradientUnits="userSpaceOnUse" x1="89.204" x2="89.204" xlink:href="#lg4" y1="-749.425" y2="-625.623"/><linearGradient id="SVGID_110_" gradientTransform="matrix(.167 .005 -.01 .318 -71.556 543.266)" gradientUnits="userSpaceOnUse" x1="1626.058" x2="1755.656" xlink:href="#lg5" y1="-1159.399" y2="-1400.434"/><linearGradient id="SVGID_111_" gradientTransform="matrix(.21 -.143 -.001 .254 252.084 428.123)" gradientUnits="userSpaceOnUse" x1="-427.154" x2="-427.154" xlink:href="#lg4" y1="-1370.033" y2="-1252.19"/><linearGradient id="SVGID_112_" gradientTransform="matrix(.148 .079 -.15 .28 -146.962 444.767)" gradientUnits="userSpaceOnUse" x1="822.048" x2="958.574" xlink:href="#lg5" y1="-1232.478" y2="-1486.398"/><linearGradient id="SVGID_113_" gradientTransform="matrix(-.075 -.243 .243 .075 221.291 296.861)" gradientUnits="userSpaceOnUse" x1="595.672" x2="595.672" xlink:href="#lg4" y1="8.921" y2="140.897"/><linearGradient id="SVGID_114_" gradientTransform="matrix(.118 -.118 .225 .225 121.41 683.541)" gradientUnits="userSpaceOnUse" x1="2531.304" x2="2657.182" xlink:href="#lg5" y1="-976.035" y2="-1210.151"/><linearGradient id="SVGID_115_" gradientTransform="matrix(-.243 .075 .075 -.243 304.312 168.419)" gradientUnits="userSpaceOnUse" x1="729.574" x2="729.574" xlink:href="#lg4" y1="61.351" y2="177.735"/><linearGradient id="SVGID_116_" gradientTransform="matrix(-.118 -.118 .225 -.225 690.991 268.301)" gradientUnits="userSpaceOnUse" x1="2650.062" x2="2789.868" xlink:href="#lg5" y1="-1039.132" y2="-1299.152"/><linearGradient id="SVGID_117_" gradientTransform="matrix(-.047 .25 -.179 -.18 277.325 263.19)" gradientUnits="userSpaceOnUse" x1="243.646" x2="243.646" xlink:href="#lg4" y1="781.211" y2="909.733"/><linearGradient id="SVGID_118_" gradientTransform="matrix(-.16 .049 -.093 -.304 546.507 -31.883)" gradientUnits="userSpaceOnUse" x1="2822.441" x2="2948.287" xlink:href="#lg5" y1="-185.215" y2="-419.271"/><linearGradient id="SVGID_119_" gradientTransform="matrix(-.134 .216 -.102 -.233 273.586 220.527)" gradientUnits="userSpaceOnUse" x1="457.125" x2="457.125" xlink:href="#lg4" y1="650.9" y2="774.099"/><linearGradient id="SVGID_120_" gradientTransform="matrix(-.167 -.012 .023 -.317 631.112 42.908)" gradientUnits="userSpaceOnUse" x1="2877.279" x2="3007.491" xlink:href="#lg5" y1="-429.476" y2="-671.653"/><linearGradient id="SVGID_121_" gradientTransform="matrix(-.221 -.126 .229 -.111 358.688 111.432)" gradientUnits="userSpaceOnUse" x1="368.512" x2="368.512" xlink:href="#lg4" y1="-786.028" y2="-661.215"/><linearGradient id="SVGID_122_" gradientTransform="matrix(.005 -.167 .318 .01 550.716 461.266)" gradientUnits="userSpaceOnUse" x1="1799.642" x2="1935.912" xlink:href="#lg5" y1="-1379.783" y2="-1633.226"/><linearGradient id="SVGID_123_" gradientTransform="matrix(-.143 -.21 .254 .001 435.573 137.627)" gradientUnits="userSpaceOnUse" x1="-258.148" x2="-258.148" xlink:href="#lg4" y1="-1563.978" y2="-1433.199"/><linearGradient id="SVGID_124_" gradientTransform="matrix(.079 -.148 .28 .15 452.218 536.672)" gradientUnits="userSpaceOnUse" x1="815.747" x2="944.942" xlink:href="#lg5" y1="-1483.138" y2="-1723.423"/><linearGradient id="SVGID_125_" gradientTransform="matrix(-.243 .075 .075 -.243 304.312 168.419)" gradientUnits="userSpaceOnUse" x1="968.941" x2="968.941" xlink:href="#lg4" y1="267.481" y2="383.865"/><linearGradient id="SVGID_126_" gradientTransform="matrix(-.118 -.118 .225 -.225 690.991 268.301)" gradientUnits="userSpaceOnUse" x1="2965.073" x2="3104.879" xlink:href="#lg5" y1="-1062.643" y2="-1322.664"/><linearGradient id="lg6"><stop offset="0" stop-color="#ffd945"/><stop offset=".3043" stop-color="#ffcd3e"/><stop offset=".8558" stop-color="#ffad2b"/><stop offset="1" stop-color="#ffa325"/></linearGradient><linearGradient id="SVGID_127_" gradientTransform="matrix(-.959 -.285 -.285 .959 -548.794 -224.682)" gradientUnits="userSpaceOnUse" x1="-836.643" x2="-842.682" xlink:href="#lg6" y1="253.952" y2="338.497"/><linearGradient id="lg7"><stop offset="0" stop-color="#ffd945" stop-opacity="0"/><stop offset="1" stop-color="#b43759"/></linearGradient><linearGradient id="SVGID_128_" gradientTransform="matrix(.959 .285 -.285 .959 96.306 -33.193)" gradientUnits="userSpaceOnUse" x1="163.536" x2="179.124" xlink:href="#lg7" y1="262.692" y2="364.01"/><linearGradient id="SVGID_129_" gradientTransform="matrix(-.699 -.715 .715 -.699 -5.499 2681.939)" gradientUnits="userSpaceOnUse" x1="1621.054" x2="1675.273" xlink:href="#lg1" y1="1668.888" y2="1668.888"/><linearGradient id="lg8"><stop offset="0" stop-color="#f82814" stop-opacity="0"/><stop offset=".1294" stop-color="#ec2819" stop-opacity=".129"/><stop offset=".4537" stop-color="#d42724" stop-opacity=".454"/><stop offset=".7526" stop-color="#c5272b" stop-opacity=".753"/><stop offset="1" stop-color="#c0272d"/></linearGradient><linearGradient id="SVGID_130_" gradientTransform="matrix(-.699 -.715 .715 -.699 -5.499 2681.939)" gradientUnits="userSpaceOnUse" x1="1647.266" x2="1644.358" xlink:href="#lg8" y1="1660.186" y2="1692.165"/><linearGradient id="SVGID_131_" gradientTransform="matrix(-.959 -.285 -.285 .959 -548.794 -224.682)" gradientUnits="userSpaceOnUse" x1="-847.501" x2="-853.54" xlink:href="#lg6" y1="299.636" y2="384.181"/><linearGradient id="SVGID_132_" gradientTransform="matrix(.959 .285 -.285 .959 96.306 -33.193)" gradientUnits="userSpaceOnUse" x1="174.395" x2="189.982" xlink:href="#lg7" y1="308.375" y2="409.693"/><linearGradient id="SVGID_133_" gradientTransform="matrix(-.699 -.715 .715 -.699 -5.499 2681.939)" gradientUnits="userSpaceOnUse" x1="1589.339" x2="1643.558" xlink:href="#lg1" y1="1634.262" y2="1634.262"/><linearGradient id="SVGID_134_" gradientTransform="matrix(-.699 -.715 .715 -.699 -5.499 2681.939)" gradientUnits="userSpaceOnUse" x1="1615.55" x2="1612.643" xlink:href="#lg8" y1="1625.56" y2="1657.539"/><linearGradient id="SVGID_135_" gradientTransform="matrix(-.959 -.285 -.285 .959 -548.794 -224.682)" gradientUnits="userSpaceOnUse" x1="-858.36" x2="-864.398" xlink:href="#lg6" y1="345.319" y2="429.864"/><linearGradient id="SVGID_136_" gradientTransform="matrix(.959 .285 -.285 .959 96.306 -33.193)" gradientUnits="userSpaceOnUse" x1="185.253" x2="200.841" xlink:href="#lg7" y1="354.059" y2="455.376"/><linearGradient id="SVGID_137_" gradientTransform="matrix(-.699 -.715 .715 -.699 -5.499 2681.939)" gradientUnits="userSpaceOnUse" x1="1557.624" x2="1611.843" xlink:href="#lg1" y1="1599.636" y2="1599.636"/><linearGradient id="SVGID_138_" gradientTransform="matrix(-.699 -.715 .715 -.699 -5.499 2681.939)" gradientUnits="userSpaceOnUse" x1="1583.835" x2="1580.928" xlink:href="#lg8" y1="1590.934" y2="1622.913"/><linearGradient id="SVGID_139_" gradientUnits="userSpaceOnUse" x1="494.457" x2="339.83" xlink:href="#lg3" y1="439.356" y2="308.206"/><linearGradient id="lg9"><stop offset="0" stop-color="#91f27f"/><stop offset="1" stop-color="#4ab172"/></linearGradient><linearGradient id="SVGID_140_" gradientUnits="userSpaceOnUse" x1="428.677" x2="456.281" xlink:href="#lg9" y1="370.622" y2="398.225"/><linearGradient id="lg10"><stop offset="0" stop-color="#91f27f" stop-opacity="0"/><stop offset="1" stop-color="#ffed82"/></linearGradient><linearGradient id="SVGID_141_" gradientUnits="userSpaceOnUse" x1="438.775" x2="419.488" xlink:href="#lg10" y1="380.719" y2="361.432"/><linearGradient id="lg11"><stop offset="0" stop-color="#4ab172" stop-opacity="0"/><stop offset="1" stop-color="#009145"/></linearGradient><linearGradient id="SVGID_142_" gradientUnits="userSpaceOnUse" x1="437.392" x2="466.687" xlink:href="#lg11" y1="386.764" y2="332.279"/><linearGradient id="SVGID_143_" gradientUnits="userSpaceOnUse" x1="371.09" x2="398.693" xlink:href="#lg9" y1="335.996" y2="363.6"/><linearGradient id="SVGID_144_" gradientUnits="userSpaceOnUse" x1="381.187" x2="361.9" xlink:href="#lg10" y1="346.094" y2="326.806"/><linearGradient id="SVGID_145_" gradientUnits="userSpaceOnUse" x1="379.804" x2="409.099" xlink:href="#lg11" y1="352.139" y2="297.653"/><linearGradient id="SVGID_146_" gradientUnits="userSpaceOnUse" x1="357.495" x2="385.098" xlink:href="#lg9" y1="391.612" y2="419.215"/><linearGradient id="SVGID_147_" gradientUnits="userSpaceOnUse" x1="367.592" x2="348.305" xlink:href="#lg10" y1="401.709" y2="382.422"/><linearGradient id="SVGID_148_" gradientUnits="userSpaceOnUse" x1="366.209" x2="395.504" xlink:href="#lg11" y1="407.754" y2="353.269"/><linearGradient id="SVGID_149_" gradientUnits="userSpaceOnUse" x1="430.279" x2="464.826" xlink:href="#lg9" y1="397.389" y2="431.936"/><linearGradient id="SVGID_150_" gradientUnits="userSpaceOnUse" x1="442.916" x2="418.777" xlink:href="#lg10" y1="410.027" y2="385.888"/><linearGradient id="SVGID_151_" gradientUnits="userSpaceOnUse" x1="441.185" x2="477.85" xlink:href="#lg11" y1="417.592" y2="349.401"/><linearGradient id="SVGID_152_" gradientUnits="userSpaceOnUse" x1="391.346" x2="425.893" xlink:href="#lg9" y1="341.889" y2="376.436"/><linearGradient id="SVGID_153_" gradientUnits="userSpaceOnUse" x1="403.983" x2="379.844" xlink:href="#lg10" y1="354.526" y2="330.387"/><linearGradient id="SVGID_154_" gradientUnits="userSpaceOnUse" x1="402.252" x2="438.917" xlink:href="#lg11" y1="362.092" y2="293.901"/><linearGradient id="SVGID_155_" gradientUnits="userSpaceOnUse" x1="365.509" x2="400.056" xlink:href="#lg9" y1="361.908" y2="396.455"/><linearGradient id="SVGID_156_" gradientUnits="userSpaceOnUse" x1="378.146" x2="354.007" xlink:href="#lg10" y1="374.546" y2="350.407"/><linearGradient id="SVGID_157_" gradientUnits="userSpaceOnUse" x1="376.415" x2="413.08" xlink:href="#lg11" y1="382.111" y2="313.92"/><linearGradient id="SVGID_158_" gradientUnits="userSpaceOnUse" x1="425.114" x2="459.661" xlink:href="#lg9" y1="332.134" y2="366.681"/><linearGradient id="SVGID_159_" gradientUnits="userSpaceOnUse" x1="437.751" x2="413.612" xlink:href="#lg10" y1="344.772" y2="320.633"/><linearGradient id="SVGID_160_" gradientUnits="userSpaceOnUse" x1="436.02" x2="472.685" xlink:href="#lg11" y1="352.337" y2="284.146"/><linearGradient id="SVGID_161_" gradientUnits="userSpaceOnUse" x1="411.514" x2="446.061" xlink:href="#lg9" y1="300.662" y2="335.209"/><linearGradient id="SVGID_162_" gradientUnits="userSpaceOnUse" x1="424.151" x2="400.012" xlink:href="#lg10" y1="313.299" y2="289.161"/><linearGradient id="SVGID_163_" gradientUnits="userSpaceOnUse" x1="422.421" x2="459.085" xlink:href="#lg11" y1="320.865" y2="252.674"/><linearGradient id="SVGID_164_" gradientUnits="userSpaceOnUse" x1="404.96" x2="426.271" xlink:href="#lg9" y1="391.166" y2="442.05"/><linearGradient id="SVGID_165_" gradientUnits="userSpaceOnUse" x1="410.49" x2="380.196" xlink:href="#lg10" y1="399.742" y2="369.448"/><linearGradient id="SVGID_166_" gradientUnits="userSpaceOnUse" x1="379.946" x2="401.256" xlink:href="#lg9" y1="300.027" y2="350.911"/><linearGradient id="SVGID_167_" gradientUnits="userSpaceOnUse" x1="385.475" x2="355.181" xlink:href="#lg10" y1="308.603" y2="278.309"/><linearGradient id="lg12"><stop offset="0" stop-color="#ffdecf"/><stop offset="1" stop-color="#faa68e"/></linearGradient><linearGradient id="SVGID_168_" gradientUnits="userSpaceOnUse" x1="305.598" x2="326.662" xlink:href="#lg12" y1="255" y2="255"/><linearGradient id="SVGID_169_" gradientUnits="userSpaceOnUse" x1="333.123" x2="359.08" xlink:href="#lg12" y1="255" y2="255"/><g><path d="m474.476 469.158h-438.952c-19.619 0-35.524-15.905-35.524-35.524v-357.268c0-19.619 15.905-35.524 35.524-35.524h438.952c19.619 0 35.524 15.905 35.524 35.524v357.268c0 19.619-15.905 35.524-35.524 35.524z" fill="url(#SVGID_1_)"/><path d="m474.476 40.842h-128.072v428.316h128.072c19.619 0 35.524-15.905 35.524-35.524v-357.268c0-19.619-15.905-35.524-35.524-35.524z" fill="url(#SVGID_2_)"/><g><path d="m481.784 200.316v-102.5c0-17.364-14.076-31.441-31.441-31.441h-390.686c-17.364 0-31.44 14.076-31.44 31.44v102.5c0 12.853 10.419 23.272 23.272 23.272h407.024c12.852.001 23.271-10.418 23.271-23.271z" fill="url(#SVGID_3_)"/><path d="m329.305 285.483v134.869c0 12.853 10.419 23.272 23.272 23.272h97.766c17.364 0 31.44-14.076 31.44-31.441v-126.7c0-12.853-10.419-23.272-23.272-23.272h-105.934c-12.853.001-23.272 10.42-23.272 23.272z" fill="url(#SVGID_4_)"/><path d="m267.41 262.212h-215.922c-12.853 0-23.272 10.419-23.272 23.272v126.7c0 17.364 14.076 31.441 31.441 31.441h207.753c12.853 0 23.272-10.419 23.272-23.272v-134.87c0-12.852-10.419-23.271-23.272-23.271z" fill="url(#SVGID_5_)"/></g><path d="m481.784 200.316v-57.616l-37.066-37.066c-3.78-4.176-9.285-8.236-15.986-11.459-4.586-2.206-9.221-3.771-13.6-4.704.002-.001.004-.001.006-.002-.071-.015-.139-.026-.21-.04-.527-.11-1.051-.211-1.57-.303-.099-.018-.199-.036-.298-.053-.603-.103-1.201-.194-1.791-.271-.061-.008-.121-.014-.181-.022-.524-.067-1.042-.122-1.554-.169-.12-.011-.24-.022-.359-.032-1.13-.093-2.229-.137-3.29-.132-.115.001-.229.003-.343.004-.102.002-.2.008-.301.011-.037-.035-.068-.073-.106-.107l-6.482-6.18c-.406-.649-.89-1.249-1.477-1.778-6.639-5.985-22.248-1.617-34.864 9.756-2.691 2.426-5.004 4.976-6.952 7.542-.171-.009-.342-.022-.515-.022-.781 0-1.546.118-2.299.293-.085-.09-.162-.181-.247-.27l-13.264-13.264c-3.405-3.555-7.113-6.51-10.834-8.805.011.001.021 0 .032 0-.163-.101-.327-.191-.49-.289-.224-.135-.447-.266-.672-.396-.568-.329-1.135-.642-1.701-.939-.145-.076-.29-.158-.434-.232-.686-.349-1.369-.67-2.048-.97-.204-.09-.405-.172-.608-.257-.523-.22-1.042-.425-1.558-.615-.195-.072-.391-.147-.585-.214-.667-.231-1.328-.44-1.979-.619-.135-.037-.266-.064-.4-.099-.538-.139-1.068-.258-1.593-.36-.193-.037-.385-.073-.577-.105-.566-.095-1.124-.171-1.671-.22-.072-.007-.147-.019-.219-.025-.607-.048-1.197-.058-1.775-.047-.162.003-.32.013-.48.021-.455.023-.898.064-1.331.126-.132.019-.267.032-.397.054-.535.092-1.052.214-1.548.368-.105.033-.203.075-.306.11-.4.138-.785.297-1.157.478-.127.062-.254.123-.378.191-.445.241-.876.504-1.273.813-3.755 2.923-4.468 8.317-2.611 14.543-3.686 1.29-7.542 3.226-11.315 5.742-.476-.49-3.167-3.253-4.264-4.029-4.448-6.609-19.244-8.588-34.904-4.293-4.973 1.364-9.478 3.212-13.306 5.343.001-.002.002-.004.003-.005-.062.035-.119.071-.181.105-.459.258-.907.52-1.346.785-.085.051-.171.102-.255.154-.506.311-.999.627-1.476.947-.052.035-.102.071-.154.106-.42.285-.827.574-1.224.866-.094.069-.188.138-.28.207-.872.654-1.683 1.323-2.429 2.003-.081.074-.16.149-.24.223-.316.295-.621.591-.912.89-.05.051-.102.101-.151.152-.33.344-.642.69-.938 1.037-.057.066-.109.133-.164.2-.24.288-.467.578-.682.868-.06.081-.121.161-.179.242-.121.17-.236.339-.349.509-.059-.062-.119-.119-.178-.18-.051-.052-.103-.101-.154-.152-.266-.265-.536-.517-.811-.757-.037-.032-.072-.07-.109-.102.001.003.001.005.002.008-2.289-1.966-4.872-3.079-7.607-3.079-.981 0-1.941.151-2.877.424-.879-.272-1.785-.431-2.713-.458-3.071-.09-6 1.229-8.575 3.598-.148-.136-.282-.276-.432-.411-.704-.635-1.421-1.24-2.142-1.831-.201-.164-.401-.324-.603-.485-.587-.468-1.177-.921-1.771-1.359-.154-.114-.307-.232-.461-.344-.727-.525-1.459-1.026-2.193-1.506-.179-.117-.358-.226-.537-.34-.586-.373-1.173-.731-1.76-1.074-.206-.12-.412-.242-.618-.359-.737-.417-1.473-.816-2.207-1.185-.086-.043-.171-.08-.256-.122-.658-.325-1.312-.628-1.965-.913-.219-.096-.437-.188-.655-.28-.324-.135-.643-.253-.965-.379-.658-.875-1.434-1.624-2.336-2.221-.719-1.066-1.604-1.958-2.653-2.653-.955-1.415-2.193-2.537-3.732-3.277-8.284-3.984-21.807 4.291-30.205 18.482-.235.397-.439.795-.661 1.192-2.581-1.824-5.481-3.539-8.653-5.065-4.586-2.206-9.221-3.771-13.6-4.704.002-.001.004-.001.006-.002-.071-.015-.14-.026-.211-.041-.527-.11-1.05-.211-1.569-.303-.099-.018-.199-.036-.298-.053-.603-.103-1.2-.194-1.79-.271-.061-.008-.121-.014-.182-.022-.524-.067-1.041-.122-1.553-.169-.12-.011-.24-.022-.359-.032-1.13-.093-2.229-.137-3.29-.132-.115.001-.229.003-.343.004-.102.002-.2.008-.301.011-.037-.035-.068-.073-.106-.107l-7.958-7.958c-6.639-5.985-22.248-1.617-34.865 9.756-3.684 3.321-6.682 6.871-8.949 10.384 0-.01-.002-.019-.002-.029-.1.155-.188.309-.285.463-.132.21-.26.42-.387.63-.323.536-.628 1.069-.915 1.601-.073.135-.154.271-.224.406-.337.643-.641 1.28-.924 1.913-.084.189-.16.376-.24.564-.206.487-.395.97-.567 1.449-.065.18-.133.361-.194.539-.207.617-.391 1.228-.54 1.827-.03.122-.051.24-.079.361-.115.495-.208.983-.282 1.463-.027.176-.052.351-.074.525-.064.516-.106 1.024-.121 1.519-.002.066-.01.134-.011.199-.008.549.023 1.08.078 1.599.015.146.038.287.058.43.058.407.137.802.236 1.187.03.118.055.238.089.354.141.474.313.929.52 1.364.044.092.098.178.145.268.181.349.386.684.613 1.004.078.11.155.22.238.326.3.383.622.75.992 1.084l4.516 4.464c-1.936 4.306-3.272 9.426-3.723 14.977-.38 4.674-.091 9.128.736 13.115-.001-.001-.003-.003-.004-.004.013.065.031.127.044.192.102.478.211.949.328 1.413.022.089.044.179.067.268.14.539.289 1.068.45 1.585.017.054.035.106.052.159.145.459.298.908.458 1.349.037.102.074.205.112.306.363.969.763 1.893 1.199 2.766.048.096.096.19.145.284.191.372.388.735.592 1.087.035.06.067.121.102.181.237.402.483.789.736 1.163.048.071.098.139.146.209.213.307.431.603.655.89.061.078.121.157.183.234.271.336.547.66.832.966.006.007.013.015.019.021-.019.036-.033.071-.052.107-.275.534-.531 1.064-.768 1.592-.06.133-.127.266-.184.398-.267.615-.504 1.223-.718 1.825-.36.083-.712.174-1.054.273-.049.014-.102.024-.151.038.003.001.006.002.009.002-3.002.895-5.307 2.426-6.594 4.601-2.94 4.968.144 12.025 7.169 18.423l29.121 29.121h361.456c12.861.008 23.28-10.411 23.28-23.264z" fill="url(#SVGID_6_)"/><g><g><g><g><path d="m97.496 111.827c-12.616 11.373-28.226 15.741-34.864 9.756-6.639-5.985-1.793-20.057 10.823-31.43s28.226-15.741 34.864-9.756c6.639 5.985 1.793 20.057-10.823 31.43z" fill="url(#SVGID_7_)"/><path d="m111.287 87.416c-2.264 3.503-5.277 7.043-8.951 10.355-12.616 11.373-28.225 15.741-34.864 9.756-1.933-1.743-2.891-4.172-2.968-7.019-5.512 8.527-6.578 16.833-1.872 21.075 6.639 5.985 22.248 1.617 34.864-9.756 8.943-8.062 13.979-17.478 13.791-24.411z" fill="url(#SVGID_8_)" opacity=".5"/></g><g><path d="m121.081 119.785c5.216 15.382 2.166 29.857-6.812 32.331-8.979 2.475-20.486-7.989-25.702-23.37s-2.166-29.857 6.812-32.331c8.978-2.475 20.485 7.988 25.702 23.37z" fill="url(#SVGID_9_)"/><path d="m103.647 97.348c2.368 3.447 4.421 7.507 5.94 11.986 5.216 15.382 2.166 29.857-6.812 32.331-2.614.721-5.443.342-8.269-.933 5.764 8.391 13.398 13.138 19.763 11.384 8.979-2.475 12.029-16.95 6.812-32.331-3.698-10.903-10.556-19.333-17.434-22.437z" fill="url(#SVGID_10_)" opacity=".5"/></g><g><path d="m97.335 143.264c-1.304 16.041-9.952 28.544-19.316 27.925s-15.897-14.124-14.593-30.165 9.952-28.544 19.316-27.925c9.363.619 15.897 14.124 14.593 30.165z" fill="url(#SVGID_11_)"/><path d="m90.077 116.663c.826 3.985 1.112 8.44.732 13.111-1.304 16.041-9.952 28.544-19.316 27.925-2.726-.18-5.212-1.454-7.335-3.564 2.01 9.702 7.224 16.616 13.862 17.054 9.364.619 18.012-11.884 19.316-27.925.923-11.37-2.091-21.465-7.259-26.601z" fill="url(#SVGID_12_)" opacity=".5"/></g><g><path d="m110.74 166.302c-17.832-.522-32.042-7.803-31.737-16.262.305-8.46 15.008-14.894 32.84-14.372s32.042 7.803 31.737 16.262c-.304 8.459-15.007 14.893-32.84 14.372z" fill="url(#SVGID_13_)"/><path d="m139.929 158.681c-4.383.906-9.309 1.345-14.502 1.193-17.833-.522-32.042-7.803-31.737-16.262.089-2.463 1.4-4.754 3.652-6.752-10.671 2.205-18.122 7.183-18.338 13.18-.305 8.46 13.905 15.74 31.737 16.262 12.64.369 23.705-2.756 29.188-7.621z" fill="url(#SVGID_14_)" opacity=".5"/></g><g><path d="m123.87 121.218c-15.742-7.57-24.921-19.761-20.502-27.229s20.763-7.385 36.505.186c15.742 7.57 24.921 19.761 20.502 27.229s-20.763 7.385-36.505-.186z" fill="url(#SVGID_15_)"/><path d="m153.789 126.007c-4.377-.933-9.011-2.501-13.594-4.706-15.742-7.57-24.921-19.761-20.502-27.229 1.287-2.174 3.586-3.707 6.585-4.603-10.654-2.272-19.778-.773-22.911 4.52-4.419 7.468 4.76 19.659 20.502 27.229 11.159 5.367 22.618 6.97 29.92 4.789z" fill="url(#SVGID_16_)" opacity=".5"/></g><g><path d="m140.045 143.809c-12.616 11.373-28.226 15.741-34.865 9.756s-1.793-20.057 10.823-31.43 28.226-15.741 34.864-9.756c6.639 5.986 1.794 20.057-10.822 31.43z" fill="url(#SVGID_17_)"/><path d="m153.836 119.399c-2.264 3.503-5.277 7.043-8.951 10.355-12.616 11.373-28.225 15.741-34.864 9.756-1.933-1.743-2.891-4.172-2.968-7.02-5.512 8.527-6.578 16.833-1.872 21.075 6.639 5.985 22.248 1.617 34.865-9.756 8.942-8.061 13.978-17.478 13.79-24.41z" fill="url(#SVGID_18_)" opacity=".5"/></g></g><g><g><path d="m168.768 136.249c12.616 11.373 17.461 25.445 10.823 31.43-6.639 5.985-22.248 1.617-34.864-9.756s-17.462-25.445-10.823-31.43c6.638-5.985 22.248-1.617 34.864 9.756z" fill="url(#SVGID_19_)"/><path d="m141.69 123.817c3.886 2.041 7.813 4.757 11.486 8.069 12.616 11.373 17.462 25.445 10.823 31.43-1.933 1.743-4.628 2.606-7.786 2.676 9.459 4.969 18.672 5.93 23.378 1.687 6.639-5.985 1.794-20.057-10.823-31.43-8.943-8.061-19.388-12.602-27.078-12.432z" fill="url(#SVGID_20_)" opacity=".5"/></g><g><path d="m177.595 114.988c17.062-4.702 33.119-1.953 35.864 6.141s-8.862 18.468-25.924 23.17-33.119 1.953-35.864-6.141 8.862-18.467 25.924-23.17z" fill="url(#SVGID_21_)"/><path d="m152.706 130.705c3.823-2.135 8.327-3.985 13.296-5.354 17.062-4.702 33.119-1.953 35.864 6.141.799 2.357.38 4.907-1.035 7.454 9.308-5.197 14.574-12.079 12.628-17.816-2.745-8.094-18.802-10.844-35.864-6.141-12.094 3.333-21.445 9.515-24.889 15.716z" fill="url(#SVGID_22_)" opacity=".5"/></g><g><path d="m203.641 136.395c17.794 1.176 31.663 8.972 30.977 17.413s-15.668 14.331-33.462 13.156c-17.794-1.176-31.663-8.972-30.977-17.413.686-8.442 15.668-14.332 33.462-13.156z" fill="url(#SVGID_23_)"/><path d="m174.133 142.938c4.421-.744 9.362-1.002 14.544-.66 17.794 1.176 31.663 8.972 30.977 17.413-.2 2.458-1.613 4.699-3.954 6.613 10.762-1.812 18.432-6.513 18.918-12.496.686-8.441-13.182-16.238-30.977-17.413-12.613-.833-23.811 1.884-29.508 6.543z" fill="url(#SVGID_24_)" opacity=".5"/></g><g><path d="m229.196 124.31c-.579 16.076-8.655 28.885-18.039 28.611-9.384-.275-16.522-13.529-15.943-29.605s8.655-28.885 18.039-28.61c9.384.274 16.522 13.528 15.943 29.604z" fill="url(#SVGID_25_)"/><path d="m220.743 97.997c1.005 3.952 1.492 8.392 1.323 13.073-.579 16.076-8.655 28.885-18.039 28.611-2.732-.08-5.274-1.262-7.49-3.292 2.446 9.62 7.968 16.337 14.62 16.532 9.384.275 17.46-12.535 18.039-28.611.41-11.395-3.058-21.371-8.453-26.313z" fill="url(#SVGID_26_)" opacity=".5"/></g><g><path d="m179.186 112.474c-8.398 14.191-21.921 22.466-30.205 18.482s-8.192-18.718.206-32.909 21.921-22.466 30.205-18.482 8.192 18.718-.206 32.909z" fill="url(#SVGID_27_)"/><path d="m184.498 85.502c-1.035 3.945-2.775 8.123-5.22 12.255-8.398 14.191-21.921 22.466-30.205 18.482-2.412-1.16-4.113-3.233-5.106-5.937-2.52 9.604-.858 17.83 5.014 20.654 8.284 3.984 21.807-4.291 30.205-18.482 5.952-10.059 7.731-20.389 5.312-26.972z" fill="url(#SVGID_28_)" opacity=".5"/></g><g><path d="m204.246 97.892c12.616 11.373 17.461 25.445 10.822 31.43s-22.248 1.617-34.864-9.756-17.462-25.445-10.823-31.43 22.248-1.617 34.865 9.756z" fill="url(#SVGID_29_)"/><path d="m177.168 85.46c3.886 2.041 7.813 4.757 11.486 8.069 12.616 11.373 17.462 25.445 10.823 31.43-1.933 1.743-4.628 2.606-7.786 2.676 9.459 4.969 18.672 5.93 23.378 1.687 6.639-5.985 1.794-20.057-10.822-31.43-8.944-8.061-19.39-12.602-27.079-12.432z" fill="url(#SVGID_30_)" opacity=".5"/></g></g><g><g><ellipse cx="218.843" cy="123.862" fill="url(#SVGID_31_)" rx="17" ry="29.123"/><path d="m226.448 97.811c1.146 3.92 1.793 8.344 1.793 13.027 0 16.084-7.611 29.123-17 29.123-2.734 0-5.316-1.107-7.605-3.071 2.791 9.543 8.552 16.095 15.207 16.095 9.389 0 17-13.039 17-29.123 0-11.401-3.824-21.27-9.395-26.051z" fill="url(#SVGID_32_)" opacity=".5"/></g><g><path d="m258.762 114.455c15.753 7.551 24.951 19.731 20.543 27.204s-20.752 7.41-36.505-.141-24.951-19.731-20.543-27.204 20.752-7.41 36.505.141z" fill="url(#SVGID_33_)"/><path d="m228.835 109.703c4.378.928 9.014 2.49 13.601 4.689 15.753 7.551 24.951 19.731 20.543 27.204-1.284 2.176-3.58 3.712-6.578 4.611 10.657 2.259 19.779.749 22.904-4.548 4.408-7.473-4.789-19.653-20.543-27.204-11.166-5.352-22.628-6.941-29.927-4.752z" fill="url(#SVGID_34_)" opacity=".5"/></g><g><path d="m260.388 146.195c11.66 12.174 15.352 26.527 8.245 32.059-7.106 5.531-22.32.146-33.98-12.028s-15.352-26.527-8.245-32.059c7.107-5.531 22.32-.146 33.98 12.028z" fill="url(#SVGID_35_)"/><path d="m234.391 132.012c3.71 2.292 7.406 5.26 10.801 8.804 11.66 12.174 15.352 26.527 8.245 32.059-2.069 1.611-4.827 2.294-7.983 2.156 9.031 5.579 18.141 7.144 23.179 3.223 7.106-5.531 3.415-19.885-8.245-32.059-8.265-8.63-18.314-13.846-25.997-14.183z" fill="url(#SVGID_36_)" opacity=".5"/></g><g><path d="m287.937 153.939c-13.019 10.998-28.777 14.908-35.197 8.731-6.42-6.176-1.071-20.098 11.948-31.097 13.019-10.998 28.777-14.908 35.197-8.732 6.42 6.177 1.071 20.1-11.948 31.098z" fill="url(#SVGID_37_)"/><path d="m302.599 129.945c-2.389 3.435-5.528 6.885-9.319 10.087-13.019 10.998-28.777 14.908-35.197 8.732-1.869-1.798-2.739-4.254-2.714-7.103-5.816 8.362-7.18 16.631-2.629 21.009 6.42 6.176 22.178 2.267 35.197-8.731 9.228-7.796 14.601-17.06 14.662-23.994z" fill="url(#SVGID_38_)" opacity=".5"/></g><g><path d="m261.859 113.691c-17.069 4.682-33.122 1.912-35.855-6.185s8.889-18.457 25.959-23.138c17.069-4.682 33.122-1.912 35.855 6.185 2.732 8.097-8.89 18.457-25.959 23.138z" fill="url(#SVGID_39_)"/><path d="m286.772 98.005c-3.827 2.13-8.334 3.975-13.304 5.338-17.069 4.682-33.122 1.912-35.855-6.185-.796-2.358-.372-4.907 1.046-7.453-9.315 5.185-14.592 12.061-12.655 17.8 2.733 8.098 18.786 10.867 35.855 6.185 12.099-3.317 21.459-9.488 24.913-15.685z" fill="url(#SVGID_40_)" opacity=".5"/></g><g><ellipse cx="274.016" cy="119.355" fill="url(#SVGID_41_)" rx="17" ry="29.123"/><path d="m281.621 93.303c1.146 3.92 1.793 8.344 1.793 13.027 0 16.084-7.611 29.123-17 29.123-2.734 0-5.316-1.107-7.605-3.072 2.791 9.543 8.552 16.096 15.207 16.096 9.389 0 17-13.039 17-29.123 0-11.4-3.824-21.269-9.395-26.051z" fill="url(#SVGID_42_)" opacity=".5"/></g></g><g><g><ellipse cx="354.847" cy="126.796" fill="url(#SVGID_43_)" rx="17" ry="29.123"/><path d="m347.242 152.848c-1.147-3.92-1.793-8.344-1.793-13.028 0-16.084 7.611-29.123 17-29.123 2.734 0 5.316 1.107 7.605 3.071-2.791-9.543-8.552-16.095-15.207-16.095-9.389 0-17 13.039-17 29.123 0 11.401 3.824 21.27 9.395 26.052z" fill="url(#SVGID_44_)" opacity=".5"/></g><g><path d="m314.928 136.203c-15.753-7.551-24.951-19.731-20.543-27.204s20.752-7.41 36.505.141 24.951 19.731 20.543 27.204c-4.408 7.474-20.752 7.411-36.505-.141z" fill="url(#SVGID_45_)"/><path d="m344.855 140.956c-4.378-.928-9.014-2.49-13.601-4.689-15.753-7.551-24.951-19.731-20.543-27.204 1.284-2.176 3.58-3.712 6.579-4.611-10.657-2.259-19.779-.749-22.904 4.548-4.408 7.473 4.789 19.653 20.543 27.204 11.165 5.352 22.627 6.941 29.926 4.752z" fill="url(#SVGID_46_)" opacity=".5"/></g><g><path d="m313.302 104.464c-11.66-12.174-15.352-26.527-8.245-32.059 7.106-5.532 22.32-.146 33.98 12.028s15.352 26.527 8.245 32.059c-7.107 5.531-22.32.146-33.98-12.028z" fill="url(#SVGID_47_)"/><path d="m339.299 118.647c-3.71-2.292-7.406-5.259-10.801-8.804-11.66-12.174-15.352-26.527-8.245-32.059 2.069-1.611 4.827-2.294 7.983-2.156-9.031-5.579-18.142-7.144-23.179-3.223-7.107 5.532-3.415 19.885 8.245 32.059 8.265 8.629 18.314 13.846 25.997 14.183z" fill="url(#SVGID_48_)" opacity=".5"/></g><g><path d="m285.753 96.719c13.019-10.998 28.777-14.908 35.197-8.732s1.071 20.099-11.948 31.097-28.777 14.907-35.197 8.732c-6.42-6.176-1.071-20.098 11.948-31.097z" fill="url(#SVGID_49_)"/><path d="m271.091 120.714c2.389-3.435 5.528-6.885 9.319-10.088 13.019-10.998 28.777-14.908 35.197-8.732 1.869 1.798 2.739 4.254 2.714 7.103 5.816-8.362 7.18-16.632 2.629-21.009-6.42-6.176-22.178-2.267-35.197 8.732-9.228 7.795-14.601 17.06-14.662 23.994z" fill="url(#SVGID_50_)" opacity=".5"/></g><g><path d="m311.831 136.967c17.069-4.682 33.122-1.912 35.855 6.185 2.733 8.098-8.889 18.457-25.959 23.139-17.069 4.681-33.122 1.912-35.855-6.185-2.732-8.098 8.89-18.457 25.959-23.139z" fill="url(#SVGID_51_)"/><path d="m286.918 152.653c3.827-2.13 8.334-3.975 13.304-5.338 17.069-4.682 33.122-1.912 35.855 6.185.796 2.358.372 4.907-1.046 7.453 9.315-5.185 14.592-12.061 12.655-17.8-2.733-8.098-18.786-10.867-35.855-6.185-12.099 3.318-21.459 9.489-24.913 15.685z" fill="url(#SVGID_52_)" opacity=".5"/></g><g><ellipse cx="299.674" cy="131.304" fill="url(#SVGID_53_)" rx="17" ry="29.123"/><path d="m292.069 157.355c-1.147-3.92-1.793-8.344-1.793-13.027 0-16.084 7.611-29.123 17-29.123 2.734 0 5.316 1.107 7.605 3.071-2.791-9.543-8.552-16.095-15.207-16.095-9.389 0-17 13.039-17 29.123 0 11.401 3.824 21.27 9.395 26.051z" fill="url(#SVGID_54_)" opacity=".5"/></g></g><g><g><path d="m386.355 111.827c-12.616 11.373-28.225 15.741-34.865 9.756-6.639-5.985-1.793-20.057 10.823-31.43s28.225-15.741 34.864-9.756c6.64 5.985 1.794 20.057-10.822 31.43z" fill="url(#SVGID_55_)"/><path d="m400.146 87.416c-2.264 3.503-5.277 7.043-8.951 10.355-12.616 11.373-28.225 15.741-34.865 9.756-1.933-1.743-2.891-4.172-2.968-7.019-5.512 8.527-6.578 16.833-1.872 21.075 6.639 5.985 22.248 1.617 34.865-9.756 8.943-8.062 13.979-17.478 13.791-24.411z" fill="url(#SVGID_56_)" opacity=".5"/></g><g><path d="m409.94 119.785c5.216 15.382 2.166 29.857-6.812 32.331-8.979 2.475-20.486-7.989-25.702-23.37s-2.166-29.857 6.812-32.331c8.978-2.475 20.486 7.988 25.702 23.37z" fill="url(#SVGID_57_)"/><path d="m392.506 97.348c2.368 3.447 4.421 7.507 5.94 11.986 5.216 15.382 2.166 29.857-6.812 32.331-2.614.721-5.443.342-8.269-.933 5.764 8.391 13.398 13.138 19.763 11.384 8.979-2.475 12.029-16.95 6.812-32.331-3.698-10.903-10.556-19.333-17.434-22.437z" fill="url(#SVGID_58_)" opacity=".5"/></g><g><path d="m386.194 143.264c-1.304 16.041-9.952 28.544-19.316 27.925s-15.898-14.124-14.594-30.165 9.952-28.544 19.316-27.925 15.898 14.124 14.594 30.165z" fill="url(#SVGID_59_)"/><path d="m378.936 116.663c.826 3.985 1.112 8.44.732 13.111-1.304 16.041-9.952 28.544-19.316 27.925-2.727-.18-5.212-1.454-7.335-3.564 2.01 9.702 7.224 16.616 13.862 17.054 9.364.619 18.012-11.884 19.316-27.925.923-11.37-2.091-21.465-7.259-26.601z" fill="url(#SVGID_60_)" opacity=".5"/></g><g><path d="m399.599 166.302c-17.832-.522-32.042-7.803-31.737-16.262.305-8.46 15.008-14.894 32.84-14.372 17.833.522 32.042 7.803 31.737 16.262-.304 8.459-15.007 14.893-32.84 14.372z" fill="url(#SVGID_61_)"/><path d="m428.788 158.681c-4.384.906-9.309 1.345-14.502 1.193-17.832-.522-32.042-7.803-31.737-16.262.089-2.463 1.4-4.754 3.652-6.752-10.671 2.205-18.122 7.183-18.338 13.18-.305 8.46 13.905 15.74 31.737 16.262 12.64.369 23.705-2.756 29.188-7.621z" fill="url(#SVGID_62_)" opacity=".5"/></g><g><path d="m412.729 121.218c-15.742-7.57-24.921-19.761-20.502-27.229s20.763-7.385 36.505.186c15.742 7.57 24.921 19.761 20.502 27.229s-20.763 7.385-36.505-.186z" fill="url(#SVGID_63_)"/><path d="m442.648 126.007c-4.376-.933-9.011-2.501-13.594-4.706-15.742-7.57-24.921-19.761-20.502-27.229 1.287-2.174 3.586-3.707 6.585-4.603-10.654-2.272-19.778-.773-22.911 4.52-4.419 7.468 4.76 19.659 20.502 27.229 11.159 5.367 22.618 6.97 29.92 4.789z" fill="url(#SVGID_64_)" opacity=".5"/></g><g><path d="m428.904 143.809c-12.616 11.373-28.225 15.741-34.865 9.756-6.639-5.985-1.793-20.057 10.823-31.43s28.225-15.741 34.864-9.756c6.64 5.986 1.794 20.057-10.822 31.43z" fill="url(#SVGID_65_)"/><path d="m442.695 119.399c-2.264 3.503-5.277 7.043-8.951 10.355-12.616 11.373-28.225 15.741-34.865 9.756-1.933-1.743-2.891-4.172-2.968-7.02-5.512 8.527-6.578 16.833-1.872 21.075 6.639 5.985 22.248 1.617 34.865-9.756 8.943-8.061 13.979-17.478 13.791-24.41z" fill="url(#SVGID_66_)" opacity=".5"/></g></g></g><g><g><path d="m412.504 185.622c12.616-11.373 28.225-15.741 34.865-9.756 6.639 5.985 1.793 20.057-10.823 31.43s-28.225 15.741-34.865 9.756c-6.639-5.986-1.793-20.057 10.823-31.43z" fill="url(#SVGID_67_)"/><path d="m398.713 210.032c2.264-3.503 5.277-7.043 8.951-10.355 12.616-11.373 28.225-15.741 34.864-9.756 1.933 1.743 2.891 4.172 2.968 7.019 5.512-8.527 6.578-16.833 1.872-21.075-6.639-5.985-22.248-1.617-34.865 9.756-8.942 8.062-13.978 17.479-13.79 24.411z" fill="url(#SVGID_68_)" opacity=".5"/></g><g><path d="m388.919 177.664c-5.216-15.382-2.166-29.857 6.812-32.331 8.979-2.475 20.486 7.989 25.702 23.37s2.166 29.857-6.812 32.331-20.486-7.989-25.702-23.37z" fill="url(#SVGID_69_)"/><path d="m406.353 200.101c-2.368-3.447-4.421-7.507-5.94-11.986-5.216-15.382-2.166-29.857 6.812-32.331 2.614-.721 5.443-.342 8.268.933-5.764-8.391-13.398-13.138-19.763-11.384-8.979 2.475-12.029 16.95-6.812 32.331 3.699 10.903 10.557 19.333 17.435 22.437z" fill="url(#SVGID_70_)" opacity=".5"/></g><g><path d="m412.665 154.184c1.304-16.041 9.952-28.544 19.316-27.925s15.898 14.124 14.593 30.165-9.952 28.544-19.316 27.925c-9.363-.618-15.897-14.124-14.593-30.165z" fill="url(#SVGID_71_)"/><path d="m419.923 180.785c-.826-3.985-1.111-8.44-.732-13.111 1.304-16.041 9.952-28.544 19.316-27.925 2.727.18 5.212 1.454 7.335 3.564-2.01-9.702-7.224-16.616-13.862-17.054-9.364-.619-18.012 11.884-19.316 27.925-.923 11.371 2.091 21.465 7.259 26.601z" fill="url(#SVGID_72_)" opacity=".5"/></g><g><path d="m399.259 131.147c17.833.522 32.042 7.803 31.737 16.262-.305 8.46-15.008 14.894-32.84 14.372s-32.042-7.803-31.737-16.262 15.008-14.894 32.84-14.372z" fill="url(#SVGID_73_)"/><path d="m370.071 138.767c4.384-.906 9.309-1.345 14.502-1.193 17.833.522 32.042 7.803 31.737 16.262-.089 2.463-1.4 4.754-3.652 6.752 10.671-2.205 18.122-7.183 18.338-13.18.305-8.46-13.905-15.74-31.737-16.262-12.64-.369-23.705 2.757-29.188 7.621z" fill="url(#SVGID_74_)" opacity=".5"/></g><g><path d="m386.13 176.23c15.742 7.571 24.921 19.762 20.502 27.229-4.419 7.468-20.763 7.385-36.505-.186s-24.921-19.761-20.502-27.229 20.763-7.384 36.505.186z" fill="url(#SVGID_75_)"/><path d="m356.211 171.441c4.376.933 9.011 2.501 13.594 4.706 15.742 7.571 24.921 19.762 20.502 27.229-1.287 2.174-3.586 3.707-6.585 4.603 10.654 2.272 19.778.773 22.911-4.52 4.419-7.468-4.76-19.659-20.502-27.229-11.159-5.366-22.618-6.969-29.92-4.789z" fill="url(#SVGID_76_)" opacity=".5"/></g><g><path d="m369.955 153.639c12.616-11.373 28.225-15.741 34.865-9.756 6.639 5.985 1.794 20.057-10.823 31.43-12.616 11.373-28.225 15.741-34.865 9.756-6.639-5.985-1.793-20.057 10.823-31.43z" fill="url(#SVGID_77_)"/><path d="m356.164 178.049c2.264-3.503 5.277-7.043 8.951-10.355 12.616-11.373 28.225-15.741 34.864-9.756 1.933 1.743 2.891 4.172 2.968 7.019 5.512-8.527 6.578-16.833 1.872-21.075-6.639-5.985-22.248-1.617-34.865 9.756-8.942 8.063-13.978 17.479-13.79 24.411z" fill="url(#SVGID_78_)" opacity=".5"/></g></g><g><g><path d="m314.141 185.622c-12.616-11.373-28.225-15.741-34.865-9.756-6.639 5.985-1.794 20.057 10.823 31.43 12.616 11.373 28.225 15.741 34.864 9.756 6.639-5.986 1.794-20.057-10.822-31.43z" fill="url(#SVGID_79_)"/><path d="m327.931 210.032c-2.264-3.503-5.277-7.043-8.951-10.355-12.616-11.373-28.225-15.741-34.864-9.756-1.933 1.743-2.891 4.172-2.968 7.019-5.512-8.527-6.578-16.833-1.872-21.075 6.639-5.985 22.248-1.617 34.865 9.756 8.942 8.062 13.979 17.479 13.79 24.411z" fill="url(#SVGID_80_)" opacity=".5"/></g><g><path d="m337.725 177.664c5.216-15.382 2.166-29.857-6.812-32.331-8.979-2.475-20.486 7.989-25.702 23.37s-2.166 29.857 6.812 32.331 20.486-7.989 25.702-23.37z" fill="url(#SVGID_81_)"/><path d="m320.291 200.101c2.368-3.447 4.421-7.507 5.94-11.986 5.216-15.382 2.166-29.857-6.812-32.331-2.614-.721-5.443-.342-8.268.933 5.764-8.391 13.398-13.138 19.763-11.384 8.979 2.475 12.029 16.95 6.812 32.331-3.698 10.903-10.557 19.333-17.435 22.437z" fill="url(#SVGID_82_)" opacity=".5"/></g><g><path d="m313.979 154.184c-1.304-16.041-9.952-28.544-19.316-27.925s-15.897 14.124-14.593 30.165 9.952 28.544 19.316 27.925c9.363-.618 15.897-14.124 14.593-30.165z" fill="url(#SVGID_83_)"/><path d="m306.721 180.785c.826-3.985 1.111-8.44.732-13.111-1.304-16.041-9.952-28.544-19.316-27.925-2.727.18-5.212 1.454-7.335 3.564 2.01-9.702 7.224-16.616 13.862-17.054 9.364-.619 18.012 11.884 19.316 27.925.923 11.371-2.091 21.465-7.259 26.601z" fill="url(#SVGID_84_)" opacity=".5"/></g><g><path d="m327.385 131.147c-17.833.522-32.042 7.803-31.737 16.262.305 8.46 15.008 14.894 32.84 14.372s32.042-7.803 31.737-16.262-15.008-14.894-32.84-14.372z" fill="url(#SVGID_85_)"/><path d="m356.573 138.767c-4.383-.906-9.309-1.345-14.502-1.193-17.832.522-32.042 7.803-31.737 16.262.089 2.463 1.4 4.754 3.652 6.752-10.671-2.205-18.122-7.183-18.338-13.18-.305-8.46 13.905-15.74 31.737-16.262 12.64-.369 23.706 2.757 29.188 7.621z" fill="url(#SVGID_86_)" opacity=".5"/></g><g><path d="m340.514 176.23c-15.742 7.571-24.921 19.762-20.502 27.229 4.419 7.468 20.763 7.385 36.505-.186s24.921-19.761 20.502-27.229-20.763-7.384-36.505.186z" fill="url(#SVGID_87_)"/><path d="m370.434 171.441c-4.376.933-9.011 2.501-13.594 4.706-15.742 7.571-24.921 19.762-20.502 27.229 1.287 2.174 3.586 3.707 6.585 4.603-10.654 2.272-19.778.773-22.911-4.52-4.419-7.468 4.76-19.659 20.502-27.229 11.158-5.366 22.618-6.969 29.92-4.789z" fill="url(#SVGID_88_)" opacity=".5"/></g><g><path d="m356.689 153.639c-12.616-11.373-28.225-15.741-34.864-9.756s-1.794 20.057 10.823 31.43c12.616 11.373 28.225 15.741 34.864 9.756s1.793-20.057-10.823-31.43z" fill="url(#SVGID_89_)"/><path d="m370.48 178.049c-2.264-3.503-5.277-7.043-8.951-10.355-12.616-11.373-28.225-15.741-34.864-9.756-1.933 1.743-2.891 4.172-2.968 7.019-5.512-8.527-6.578-16.833-1.872-21.075 6.639-5.985 22.248-1.617 34.864 9.756 8.943 8.063 13.979 17.479 13.791 24.411z" fill="url(#SVGID_90_)" opacity=".5"/></g></g><g><g><path d="m268.074 185.622c12.616-11.373 28.225-15.741 34.864-9.756s1.794 20.057-10.823 31.43c-12.616 11.373-28.225 15.741-34.865 9.756-6.637-5.986-1.792-20.057 10.824-31.43z" fill="url(#SVGID_91_)"/><path d="m254.284 210.032c2.264-3.503 5.277-7.043 8.951-10.355 12.616-11.373 28.225-15.741 34.865-9.756 1.933 1.743 2.891 4.172 2.968 7.019 5.512-8.527 6.578-16.833 1.872-21.075-6.639-5.985-22.248-1.617-34.864 9.756-8.944 8.062-13.981 17.479-13.792 24.411z" fill="url(#SVGID_92_)" opacity=".5"/></g><g><path d="m244.49 177.664c-5.216-15.382-2.166-29.857 6.812-32.331 8.979-2.475 20.486 7.989 25.702 23.37s2.166 29.857-6.812 32.331c-8.979 2.474-20.486-7.989-25.702-23.37z" fill="url(#SVGID_93_)"/><path d="m261.923 200.101c-2.368-3.447-4.421-7.507-5.94-11.986-5.216-15.382-2.166-29.857 6.812-32.331 2.614-.721 5.443-.342 8.269.933-5.764-8.391-13.398-13.138-19.763-11.384-8.979 2.475-12.029 16.95-6.812 32.331 3.698 10.903 10.556 19.333 17.434 22.437z" fill="url(#SVGID_94_)" opacity=".5"/></g><g><path d="m268.236 154.184c1.304-16.041 9.952-28.544 19.316-27.925s15.897 14.124 14.593 30.165-9.952 28.544-19.316 27.925c-9.364-.618-15.897-14.124-14.593-30.165z" fill="url(#SVGID_95_)"/><path d="m275.494 180.785c-.826-3.985-1.112-8.44-.732-13.111 1.304-16.041 9.952-28.544 19.316-27.925 2.727.18 5.212 1.454 7.335 3.564-2.01-9.702-7.224-16.616-13.862-17.054-9.364-.619-18.012 11.884-19.316 27.925-.924 11.371 2.091 21.465 7.259 26.601z" fill="url(#SVGID_96_)" opacity=".5"/></g><g><path d="m254.83 131.147c17.832.522 32.042 7.803 31.737 16.262-.305 8.46-15.008 14.894-32.84 14.372s-32.042-7.803-31.737-16.262c.304-8.459 15.007-14.894 32.84-14.372z" fill="url(#SVGID_97_)"/><path d="m225.642 138.767c4.383-.906 9.309-1.345 14.502-1.193 17.833.522 32.042 7.803 31.737 16.262-.089 2.463-1.4 4.754-3.652 6.752 10.671-2.205 18.122-7.183 18.338-13.18.305-8.46-13.905-15.74-31.737-16.262-12.64-.369-23.706 2.757-29.188 7.621z" fill="url(#SVGID_98_)" opacity=".5"/></g><g><path d="m241.701 176.23c15.742 7.571 24.921 19.762 20.502 27.229-4.419 7.468-20.763 7.385-36.505-.186s-24.921-19.761-20.502-27.229 20.763-7.384 36.505.186z" fill="url(#SVGID_99_)"/><path d="m211.781 171.441c4.376.933 9.011 2.501 13.594 4.706 15.742 7.571 24.921 19.762 20.502 27.229-1.287 2.174-3.586 3.707-6.585 4.603 10.654 2.272 19.778.773 22.911-4.52 4.419-7.468-4.76-19.659-20.502-27.229-11.159-5.366-22.618-6.969-29.92-4.789z" fill="url(#SVGID_100_)" opacity=".5"/></g><g><path d="m225.525 153.639c12.616-11.373 28.225-15.741 34.864-9.756s1.794 20.057-10.823 31.43c-12.616 11.373-28.225 15.741-34.864 9.756-6.638-5.985-1.793-20.057 10.823-31.43z" fill="url(#SVGID_101_)"/><path d="m211.735 178.049c2.264-3.503 5.277-7.043 8.951-10.355 12.616-11.373 28.226-15.741 34.865-9.756 1.933 1.743 2.891 4.172 2.968 7.019 5.512-8.527 6.578-16.833 1.872-21.075-6.639-5.985-22.248-1.617-34.864 9.756-8.944 8.063-13.981 17.479-13.792 24.411z" fill="url(#SVGID_102_)" opacity=".5"/></g></g><g><g><path d="m168.768 184.771c12.616 11.373 17.461 25.445 10.823 31.43-6.639 5.985-22.248 1.617-34.864-9.756s-17.462-25.445-10.823-31.43c6.638-5.985 22.248-1.617 34.864 9.756z" fill="url(#SVGID_103_)"/><path d="m141.69 172.339c3.886 2.041 7.813 4.757 11.486 8.069 12.616 11.373 17.462 25.445 10.823 31.43-1.933 1.743-4.628 2.606-7.786 2.676 9.459 4.969 18.672 5.93 23.378 1.687 6.639-5.985 1.794-20.056-10.823-31.43-8.943-8.061-19.388-12.602-27.078-12.432z" fill="url(#SVGID_104_)" opacity=".5"/></g><g><path d="m177.595 163.51c17.062-4.702 33.119-1.953 35.864 6.141s-8.862 18.468-25.924 23.17-33.119 1.953-35.864-6.141c-2.745-8.093 8.862-18.467 25.924-23.17z" fill="url(#SVGID_105_)"/><path d="m152.706 179.227c3.823-2.135 8.327-3.985 13.296-5.354 17.062-4.702 33.119-1.953 35.864 6.141.799 2.357.38 4.907-1.035 7.454 9.308-5.196 14.574-12.079 12.628-17.816-2.745-8.094-18.802-10.844-35.864-6.141-12.094 3.333-21.445 9.515-24.889 15.716z" fill="url(#SVGID_106_)" opacity=".5"/></g><g><path d="m203.641 184.917c17.794 1.176 31.663 8.972 30.977 17.413s-15.668 14.331-33.462 13.156c-17.794-1.176-31.663-8.972-30.977-17.413s15.668-14.332 33.462-13.156z" fill="url(#SVGID_107_)"/><path d="m174.133 191.46c4.421-.744 9.362-1.002 14.544-.66 17.794 1.176 31.663 8.972 30.977 17.413-.2 2.458-1.613 4.699-3.954 6.613 10.762-1.812 18.432-6.513 18.918-12.496.686-8.441-13.182-16.237-30.977-17.413-12.613-.833-23.811 1.884-29.508 6.543z" fill="url(#SVGID_108_)" opacity=".5"/></g><g><path d="m229.196 172.832c-.579 16.076-8.655 28.885-18.039 28.611-9.384-.275-16.522-13.529-15.943-29.605s8.655-28.885 18.039-28.611 16.522 13.529 15.943 29.605z" fill="url(#SVGID_109_)"/><path d="m220.743 146.519c1.005 3.952 1.492 8.392 1.323 13.073-.579 16.076-8.655 28.885-18.039 28.611-2.732-.08-5.274-1.262-7.49-3.292 2.446 9.62 7.968 16.337 14.62 16.532 9.384.275 17.46-12.535 18.039-28.611.41-11.395-3.058-21.371-8.453-26.313z" fill="url(#SVGID_110_)" opacity=".5"/></g><g><path d="m179.186 160.996c-8.398 14.191-21.921 22.466-30.205 18.482s-8.192-18.718.206-32.909 21.921-22.466 30.205-18.482 8.192 18.718-.206 32.909z" fill="url(#SVGID_111_)"/><path d="m184.498 134.024c-1.035 3.945-2.775 8.123-5.22 12.255-8.398 14.191-21.921 22.466-30.205 18.482-2.412-1.16-4.113-3.233-5.106-5.937-2.52 9.604-.858 17.83 5.014 20.654 8.284 3.984 21.807-4.291 30.205-18.482 5.952-10.059 7.731-20.389 5.312-26.972z" fill="url(#SVGID_112_)" opacity=".5"/></g><g><path d="m204.246 146.414c12.616 11.373 17.461 25.445 10.822 31.43s-22.248 1.617-34.864-9.756-17.462-25.445-10.823-31.43 22.248-1.617 34.865 9.756z" fill="url(#SVGID_113_)"/><path d="m177.168 133.982c3.886 2.041 7.813 4.758 11.486 8.069 12.616 11.373 17.462 25.445 10.823 31.43-1.933 1.743-4.628 2.606-7.786 2.676 9.459 4.969 18.672 5.93 23.378 1.687 6.639-5.985 1.794-20.057-10.822-31.43-8.944-8.061-19.39-12.602-27.079-12.432z" fill="url(#SVGID_114_)" opacity=".5"/></g></g><g><g><path d="m123.645 185.622c12.616-11.373 28.226-15.741 34.864-9.756 6.639 5.985 1.794 20.057-10.823 31.43-12.616 11.373-28.225 15.741-34.864 9.756-6.639-5.986-1.793-20.057 10.823-31.43z" fill="url(#SVGID_115_)"/><path d="m109.854 210.032c2.264-3.503 5.277-7.043 8.951-10.355 12.616-11.373 28.225-15.741 34.865-9.756 1.933 1.743 2.891 4.172 2.968 7.019 5.512-8.527 6.578-16.833 1.872-21.075-6.639-5.985-22.248-1.617-34.864 9.756-8.944 8.062-13.981 17.479-13.792 24.411z" fill="url(#SVGID_116_)" opacity=".5"/></g><g><path d="m100.06 177.664c-5.216-15.382-2.166-29.857 6.812-32.331 8.979-2.475 20.486 7.989 25.702 23.37s2.166 29.857-6.812 32.331-20.486-7.989-25.702-23.37z" fill="url(#SVGID_117_)"/><path d="m117.494 200.101c-2.368-3.447-4.421-7.507-5.94-11.986-5.216-15.382-2.166-29.857 6.812-32.331 2.614-.721 5.443-.342 8.269.933-5.764-8.391-13.398-13.138-19.763-11.384-8.979 2.475-12.029 16.95-6.812 32.331 3.698 10.903 10.556 19.333 17.434 22.437z" fill="url(#SVGID_118_)" opacity=".5"/></g><g><path d="m123.806 154.184c1.304-16.041 9.952-28.544 19.316-27.925s15.898 14.124 14.594 30.165-9.952 28.544-19.316 27.925c-9.364-.618-15.898-14.124-14.594-30.165z" fill="url(#SVGID_119_)"/><path d="m131.064 180.785c-.826-3.985-1.111-8.44-.732-13.111 1.304-16.041 9.952-28.544 19.316-27.925 2.727.18 5.212 1.454 7.335 3.564-2.01-9.702-7.224-16.616-13.862-17.054-9.364-.619-18.012 11.884-19.316 27.925-.923 11.371 2.091 21.465 7.259 26.601z" fill="url(#SVGID_120_)" opacity=".5"/></g><g><path d="m110.4 131.147c17.833.522 32.042 7.803 31.737 16.262-.305 8.46-15.008 14.894-32.84 14.372-17.833-.522-32.042-7.803-31.737-16.262s15.008-14.894 32.84-14.372z" fill="url(#SVGID_121_)"/><path d="m81.212 138.767c4.383-.906 9.309-1.345 14.502-1.193 17.832.522 32.042 7.803 31.737 16.262-.089 2.463-1.4 4.754-3.652 6.752 10.671-2.205 18.122-7.183 18.338-13.18.305-8.46-13.905-15.74-31.737-16.262-12.64-.369-23.706 2.757-29.188 7.621z" fill="url(#SVGID_122_)" opacity=".5"/></g><g><path d="m97.271 176.23c15.742 7.571 24.921 19.762 20.502 27.229-4.419 7.468-20.763 7.385-36.505-.186s-24.921-19.761-20.502-27.229 20.763-7.384 36.505.186z" fill="url(#SVGID_123_)"/><path d="m67.351 171.441c4.377.933 9.011 2.501 13.594 4.706 15.742 7.571 24.921 19.762 20.502 27.229-1.287 2.174-3.586 3.707-6.586 4.603 10.654 2.272 19.778.773 22.911-4.52 4.419-7.468-4.76-19.659-20.502-27.229-11.157-5.366-22.617-6.969-29.919-4.789z" fill="url(#SVGID_124_)" opacity=".5"/></g><g><path d="m81.096 153.639c12.616-11.373 28.226-15.741 34.865-9.756s1.793 20.057-10.823 31.43-28.225 15.741-34.864 9.756c-6.64-5.985-1.794-20.057 10.822-31.43z" fill="url(#SVGID_125_)"/><path d="m67.305 178.049c2.264-3.503 5.277-7.043 8.951-10.355 12.616-11.373 28.225-15.741 34.864-9.756 1.933 1.743 2.891 4.172 2.968 7.019 5.512-8.527 6.578-16.833 1.872-21.075-6.639-5.985-22.248-1.617-34.865 9.756-8.942 8.063-13.978 17.479-13.79 24.411z" fill="url(#SVGID_126_)" opacity=".5"/></g></g></g><g><g><path d="m234.129 263.578c17.631 8.742 32.651 20.563 44.786 34.466 8.672 9.936 10.387 24.167 4.235 35.833l-.71 1.346c-9.66 18.32-33.722 22.362-49.374 8.8-8.2-7.105-17.333-13.393-27.345-18.672-46.673-24.61-100.656-21.19-142.729 4.276-9.778 5.919-20.911-5.608-14.679-15.19.259-.398.519-.794.783-1.19 40.117-60.383 120.085-81.873 185.033-49.669z" fill="url(#SVGID_127_)"/><path d="m278.919 298.048c-1.485-1.696-3.015-3.367-4.582-4.999 1.508 7.112.588 14.681-2.954 21.394l-.705 1.349c-4.197 7.95-11.096 13.209-18.845 15.516-1.295.385-2.661-.367-3.055-1.659v-.001c-1.997-7.036-8.29-11.992-15.598-12.286l-.778-.031c-5.874-.236-11.205-3.504-14.08-8.632l-.379-.675c-3.578-6.384-10.856-9.743-18.036-8.326l-.714.141c-5.796 1.144-11.77-.818-15.758-5.176l-4.974-5.435c-2.26-2.469-5.856-3.195-8.896-1.796-7.206 3.317-15.373 3.899-22.977 1.638l-6.092-1.812c-4.972-1.478-10.353-.363-14.328 2.968-4.466 3.743-10.544 4.923-16.086 3.123l-.089-.029c-7.183-2.334-15.043.373-19.266 6.635l-.014.021c-3.284 4.87-8.859 7.69-14.728 7.451l-.162-.007c-7.478-.305-14.268 4.339-16.695 11.418l-2.641 7.703c-.31.903-.885 1.692-1.65 2.264l-1.886 1.409c2.967 1.409 6.588 1.502 10.042-.589 42.073-25.466 96.056-28.886 142.729-4.276 10.012 5.279 19.145 11.567 27.345 18.672 10.856 9.406 25.754 10.337 37.09 3.916 0 0 0 0 0-.001 5.008-2.83 9.319-7.109 12.277-12.713l.717-1.345c6.153-11.661 4.434-25.905-4.232-35.83z" fill="url(#SVGID_128_)"/><g><path d="m7.226 333.817c10.167 4.658 19.607 3.693 27.138 1.006 2.818-1.005 5.467 1.707 4.395 4.501-2.864 7.465-4.053 16.879.363 27.154.73 1.698 2.882 2.24 4.357 1.126 7.522-5.681 26.1-22.889 7.988-43.427.035-.035-1.624-1.733-1.66-1.699-20.104-18.593-37.747-.427-43.604 6.958-1.148 1.447-.657 3.611 1.023 4.381z" fill="url(#SVGID_129_)"/><path d="m6.063 332.798c.278.424.659.789 1.163 1.019 10.167 4.658 19.607 3.693 27.138 1.006 2.819-1.006 5.468 1.707 4.396 4.501-2.865 7.465-4.053 16.879.363 27.154.219.509.574.899.991 1.187 7.875-8.059 16.351-21.734 3.731-36.211.035-.035-1.457-1.563-1.493-1.528-14.173-12.96-28.045-4.81-36.289 2.872z" fill="url(#SVGID_130_)"/></g></g><g><path d="m231.517 310.46c17.631 8.742 32.651 20.563 44.786 34.466 8.672 9.936 10.387 24.167 4.235 35.833l-.71 1.346c-9.66 18.32-33.722 22.362-49.374 8.8-8.2-7.105-17.333-13.393-27.345-18.672-46.673-24.61-100.656-21.191-142.729 4.276-9.778 5.919-20.911-5.608-14.679-15.19.259-.398.519-.794.783-1.19 40.117-60.383 120.085-81.873 185.033-49.669z" fill="url(#SVGID_131_)"/><path d="m276.307 344.93c-1.485-1.696-3.015-3.367-4.582-4.999 1.508 7.112.588 14.681-2.954 21.394l-.705 1.349c-4.197 7.95-11.096 13.209-18.845 15.516-1.295.385-2.661-.367-3.055-1.66-1.997-7.036-8.29-11.993-15.598-12.286l-.778-.031c-5.874-.235-11.205-3.504-14.08-8.632l-.379-.675c-3.578-6.384-10.856-9.743-18.036-8.326l-.714.141c-5.796 1.144-11.77-.818-15.758-5.176l-4.974-5.434c-2.26-2.469-5.856-3.195-8.896-1.796-7.206 3.317-15.373 3.899-22.977 1.638l-6.092-1.812c-4.971-1.478-10.353-.363-14.328 2.968-4.466 3.743-10.544 4.923-16.086 3.123l-.089-.029c-7.183-2.334-15.043.373-19.266 6.635l-.014.021c-3.284 4.871-8.859 7.69-14.728 7.451l-.162-.007c-7.478-.305-14.268 4.339-16.695 11.418l-2.641 7.703c-.31.903-.885 1.692-1.65 2.264l-1.886 1.409c2.967 1.409 6.588 1.502 10.042-.589 42.073-25.466 96.056-28.886 142.729-4.276 10.012 5.279 19.145 11.567 27.345 18.672 10.856 9.406 25.754 10.337 37.09 3.916 0 0 0 0 0-.001 5.008-2.83 9.319-7.109 12.277-12.713l.717-1.345c6.153-11.662 4.434-25.906-4.232-35.831z" fill="url(#SVGID_132_)"/><g><path d="m4.614 380.699c10.167 4.658 19.607 3.693 27.138 1.006 2.818-1.005 5.467 1.707 4.395 4.501-2.864 7.465-4.053 16.879.363 27.154.73 1.698 2.882 2.24 4.357 1.126 7.522-5.681 26.1-22.889 7.988-43.427.035-.035-1.624-1.734-1.66-1.7-20.104-18.593-37.747-.427-43.604 6.958-1.148 1.448-.657 3.612 1.023 4.382z" fill="url(#SVGID_133_)"/><path d="m3.451 379.68c.278.424.66.789 1.163 1.019 10.167 4.658 19.607 3.693 27.138 1.006 2.819-1.005 5.468 1.707 4.396 4.501-2.865 7.465-4.053 16.879.363 27.154.219.509.574.899.991 1.187 7.875-8.059 16.351-21.734 3.731-36.211.035-.035-1.457-1.563-1.493-1.528-14.173-12.96-28.045-4.81-36.289 2.872z" fill="url(#SVGID_134_)"/></g></g><g><path d="m228.905 357.341c17.631 8.742 32.651 20.563 44.786 34.467 8.672 9.936 10.387 24.167 4.235 35.833l-.71 1.346c-9.66 18.32-33.722 22.362-49.374 8.8-8.2-7.105-17.333-13.393-27.345-18.672-46.673-24.61-100.656-21.19-142.729 4.276-9.778 5.919-20.911-5.608-14.679-15.19.259-.398.519-.794.783-1.19 40.117-60.383 120.085-81.873 185.033-49.67z" fill="url(#SVGID_135_)"/><path d="m273.695 391.812c-1.485-1.696-3.015-3.367-4.582-4.999 1.508 7.112.588 14.681-2.954 21.394l-.705 1.349c-4.197 7.95-11.096 13.209-18.846 15.516-1.295.385-2.661-.367-3.055-1.659v-.001c-1.997-7.036-8.29-11.993-15.598-12.286l-.778-.031c-5.874-.236-11.205-3.504-14.08-8.632l-.379-.675c-3.578-6.384-10.856-9.743-18.036-8.326l-.714.141c-5.796 1.144-11.77-.818-15.758-5.176l-4.974-5.435c-2.26-2.469-5.856-3.195-8.896-1.796-7.206 3.317-15.373 3.899-22.977 1.638l-6.092-1.812c-4.971-1.478-10.353-.363-14.328 2.968-4.466 3.743-10.544 4.923-16.086 3.122l-.089-.029c-7.183-2.334-15.043.373-19.266 6.635l-.014.021c-3.284 4.871-8.859 7.691-14.728 7.451l-.162-.007c-7.478-.305-14.268 4.339-16.695 11.418l-2.641 7.703c-.31.903-.885 1.692-1.65 2.264l-1.886 1.409c2.967 1.409 6.588 1.502 10.042-.589 42.073-25.466 96.056-28.886 142.729-4.276 10.012 5.279 19.145 11.567 27.345 18.672 10.856 9.406 25.754 10.337 37.09 3.916 0 0 0 0 0-.001 5.008-2.83 9.319-7.108 12.277-12.713l.717-1.345c6.154-11.659 4.435-25.904-4.231-35.829z" fill="url(#SVGID_136_)"/><g><path d="m2.002 427.581c10.167 4.658 19.607 3.693 27.138 1.006 2.818-1.006 5.468 1.707 4.395 4.501-2.865 7.465-4.053 16.879.363 27.154.73 1.698 2.882 2.24 4.357 1.126 7.522-5.681 26.1-22.889 7.988-43.427.035-.035-1.624-1.734-1.66-1.7-20.104-18.593-37.747-.427-43.604 6.958-1.148 1.448-.657 3.612 1.023 4.382z" fill="url(#SVGID_137_)"/><path d="m.839 426.562c.278.424.66.789 1.163 1.019 10.167 4.658 19.607 3.693 27.138 1.006 2.818-1.005 5.468 1.707 4.396 4.501-2.865 7.465-4.053 16.879.363 27.154.219.509.574.899.991 1.187 7.875-8.059 16.351-21.734 3.731-36.211.035-.035-1.457-1.563-1.493-1.529-14.173-12.959-28.045-4.809-36.289 2.873z" fill="url(#SVGID_138_)"/></g></g></g><path d="m441.351 292.837c-4.884-5.443-11.969-8.869-19.857-8.869-3.915 0-7.628.852-10.977 2.367-.57-.6-1.155-1.185-1.767-1.742-.658-.71-1.336-1.401-2.052-2.052-6.115-6.604-14.847-10.749-24.557-10.749-18.488 0-33.476 14.987-33.476 33.475 0 9.727 4.163 18.471 10.788 24.586.652.715 1.341 1.396 2.053 2.053.003.003.005.006.008.009-2.362 3.431-3.762 7.575-3.762 12.055 0 2.455.436 4.803 1.2 6.998-6.172 4.885-10.136 12.438-10.136 20.92 0 4.174.96 8.123 2.669 11.641-4.482 3.907-7.328 9.644-7.328 16.057 0 6.408 2.842 12.141 7.318 16.048l27.991 27.991h70.878c17.364 0 31.44-14.076 31.44-31.441v-78.914z" fill="url(#SVGID_139_)"/><g><g><circle cx="436.651" cy="378.596" fill="url(#SVGID_140_)" r="21.313"/><circle cx="436.652" cy="378.596" fill="url(#SVGID_141_)" r="17.787"/><path d="m446.185 359.531c1.438 2.869 2.248 6.106 2.248 9.534 0 11.771-9.542 21.313-21.313 21.313-3.427 0-6.665-.81-9.534-2.248 3.499 6.984 10.722 11.779 19.065 11.779 11.771 0 21.313-9.542 21.313-21.313 0-8.343-4.795-15.566-11.779-19.065z" fill="url(#SVGID_142_)"/></g><g><circle cx="379.064" cy="343.97" fill="url(#SVGID_143_)" r="21.313"/><circle cx="379.064" cy="343.97" fill="url(#SVGID_144_)" r="17.787"/><path d="m388.598 324.905c1.438 2.869 2.248 6.106 2.248 9.534 0 11.771-9.542 21.313-21.313 21.313-3.427 0-6.665-.81-9.534-2.248 3.499 6.984 10.722 11.779 19.065 11.779 11.771 0 21.313-9.542 21.313-21.313 0-8.343-4.795-15.565-11.779-19.065z" fill="url(#SVGID_145_)"/></g><g><circle cx="365.469" cy="399.586" fill="url(#SVGID_146_)" r="21.313"/><circle cx="365.469" cy="399.586" fill="url(#SVGID_147_)" r="17.787"/><path d="m375.003 380.521c1.438 2.869 2.248 6.107 2.248 9.534 0 11.771-9.542 21.313-21.313 21.313-3.427 0-6.665-.81-9.534-2.248 3.499 6.984 10.722 11.779 19.065 11.779 11.771 0 21.313-9.542 21.313-21.313 0-8.344-4.795-15.566-11.779-19.065z" fill="url(#SVGID_148_)"/></g><g><circle cx="440.259" cy="407.369" fill="url(#SVGID_149_)" r="26.674"/><circle cx="440.259" cy="407.369" fill="url(#SVGID_150_)" r="22.262"/><path d="m452.191 383.509c1.799 3.59 2.813 7.643 2.813 11.932 0 14.732-11.942 26.674-26.674 26.674-4.289 0-8.341-1.014-11.932-2.813 4.38 8.741 13.419 14.742 23.861 14.742 14.732 0 26.674-11.942 26.674-26.674 0-10.443-6.001-19.482-14.742-23.861z" fill="url(#SVGID_151_)"/></g><g><circle cx="401.326" cy="351.869" fill="url(#SVGID_152_)" r="26.674"/><circle cx="401.326" cy="351.869" fill="url(#SVGID_153_)" r="22.262"/><path d="m413.258 328.008c1.799 3.59 2.813 7.642 2.813 11.932 0 14.732-11.942 26.674-26.674 26.674-4.289 0-8.341-1.014-11.932-2.813 4.38 8.741 13.419 14.742 23.861 14.742 14.732 0 26.674-11.942 26.674-26.674 0-10.442-6.002-19.481-14.742-23.861z" fill="url(#SVGID_154_)"/></g><g><circle cx="375.489" cy="371.888" fill="url(#SVGID_155_)" r="26.674"/><circle cx="375.489" cy="371.888" fill="url(#SVGID_156_)" r="22.262"/><path d="m387.421 348.028c1.799 3.59 2.813 7.643 2.813 11.932 0 14.732-11.942 26.674-26.674 26.674-4.289 0-8.341-1.014-11.932-2.813 4.38 8.741 13.419 14.742 23.861 14.742 14.732 0 26.674-11.942 26.674-26.674 0-10.443-6.001-19.482-14.742-23.861z" fill="url(#SVGID_157_)"/></g><g><circle cx="435.094" cy="342.114" fill="url(#SVGID_158_)" r="26.674"/><circle cx="435.094" cy="342.114" fill="url(#SVGID_159_)" r="22.262"/><path d="m447.026 318.254c1.799 3.59 2.813 7.643 2.813 11.932 0 14.732-11.942 26.674-26.674 26.674-4.289 0-8.341-1.014-11.932-2.813 4.38 8.741 13.419 14.742 23.861 14.742 14.732 0 26.674-11.942 26.674-26.674 0-10.443-6.001-19.482-14.742-23.861z" fill="url(#SVGID_160_)"/></g><g><circle cx="421.494" cy="310.642" fill="url(#SVGID_161_)" r="26.674"/><circle cx="421.494" cy="310.642" fill="url(#SVGID_162_)" r="22.262"/><path d="m433.426 286.781c1.799 3.59 2.813 7.643 2.813 11.932 0 14.732-11.942 26.674-26.674 26.674-4.289 0-8.341-1.014-11.932-2.813 4.38 8.741 13.419 14.742 23.861 14.742 14.732 0 26.674-11.942 26.674-26.674 0-10.442-6.001-19.481-14.742-23.861z" fill="url(#SVGID_163_)"/></g><g><circle cx="407.155" cy="396.407" fill="url(#SVGID_164_)" r="33.476"/><circle cx="407.155" cy="396.407" fill="url(#SVGID_165_)" r="27.938"/></g><g><circle cx="382.141" cy="305.268" fill="url(#SVGID_166_)" r="33.476"/><circle cx="382.141" cy="305.268" fill="url(#SVGID_167_)" r="27.938"/></g></g><g><path d="m320.1 506.736c-4.983 0-9.062-3.966-9.201-8.947l-13.563-483.422c-.171-6.081 4.712-11.103 10.796-11.103h10.374c5.965 0 10.8 4.835 10.8 10.8v483.467c-.001 5.084-4.122 9.205-9.206 9.205z" fill="url(#SVGID_168_)"/><path d="m341.302 506.736c4.983 0 9.062-3.966 9.201-8.947l13.563-483.423c.171-6.081-4.712-11.103-10.796-11.103h-10.374c-5.965 0-10.8 4.835-10.8 10.8v483.467c.002 5.085 4.123 9.206 9.206 9.206z" fill="url(#SVGID_169_)"/></g></g></svg>