<svg id="flat" height="512" viewBox="0 0 512 512" width="512"
    xmlns="http://www.w3.org/2000/svg">
    <path d="m24 488h464v-192l-232-8-232 8z" fill="#ededeb"/>
    <path d="m24 462.456v25.544h464v-192l-42.175-1.454a732.668 732.668 0 0 1 -421.825 167.91z" fill="#dbdbd9"/>
    <g fill="#ffdc13">
        <path d="m168 272h-16v-84.687l-61.657-61.656a8 8 0 0 1 -2.343-5.657v-72h16v68.687l61.657 61.656a8 8 0 0 1 2.343 5.657z"/>
        <path d="m376 272h-16v-80a8 8 0 0 1 2.343-5.657l64-64a8 8 0 0 1 5.657-2.343h40v16h-36.687l-59.313 59.313z"/>
        <path d="m392 176h-16v-48a8 8 0 0 1 2.343-5.657l29.657-29.656v-44.687h16v48a8 8 0 0 1 -2.343 5.657l-29.657 29.656z"/>
        <path d="m154.343 237.657-53.657-53.657h-52.686v-16h56a8 8 0 0 1 5.657 2.343l56 56z"/>
        <path d="m344 272h-16v-96a8 8 0 0 1 2.343-5.657l13.657-13.656v-76.687h16v80a8 8 0 0 1 -2.343 5.657l-13.657 13.656z"/>
        <path d="m232 272h-16v-128a8 8 0 0 1 2.343-5.657l61.657-61.656v-28.687h16v32a8 8 0 0 1 -2.343 5.657l-61.657 61.656z"/>
        <path d="m242.343 125.657-24-24a8 8 0 0 1 -2.343-5.657v-32h16v28.687l21.657 21.656z"/>
        <path d="m200 272h-16v-100.687l-29.657-29.656a8 8 0 0 1 -2.343-5.657v-56h16v52.687l29.657 29.656a8 8 0 0 1 2.343 5.657z"/>
        <path d="m408 272h-16v-64a8 8 0 0 1 2.343-5.657l16-16a8 8 0 0 1 5.657-2.343h32v16h-28.687l-11.313 11.313z"/>
    </g>
    <path d="m24 264h464v32h-464z" fill="#666"/>
    <path d="m144 320h32v144h-32z" fill="#d1cfc3"/>
    <path d="m208 320h32v144h-32z" fill="#d1cfc3"/>
    <path d="m272 320h32v144h-32z" fill="#d1cfc3"/>
    <path d="m336 320h32v144h-32z" fill="#d1cfc3"/>
    <path d="m144 288h224v40h-224z" fill="#878784"/>
    <path d="m144 328h32v32h-32z" fill="#b7b2a5"/>
    <path d="m208 328h32v32h-32z" fill="#b7b2a5"/>
    <path d="m336 328h32v32h-32z" fill="#b7b2a5"/>
    <path d="m272 328h32v32h-32z" fill="#b7b2a5"/>
    <path d="m96 352h16v32h-16z" fill="#3098c6"/>
    <path d="m56 352h16v32h-16z" fill="#3098c6"/>
    <path d="m96 416h16v32h-16z" fill="#3098c6"/>
    <path d="m56 416h16v32h-16z" fill="#3098c6"/>
    <path d="m440 352h16v32h-16z" fill="#3098c6"/>
    <path d="m400 352h16v32h-16z" fill="#3098c6"/>
    <path d="m440 416h16v32h-16z" fill="#3098c6"/>
    <path d="m400 416h16v32h-16z" fill="#3098c6"/>
    <path d="m144 424h32v32h-32z" fill="#b7b2a5"/>
    <path d="m208 424h32v32h-32z" fill="#b7b2a5"/>
    <path d="m336 424h32v32h-32z" fill="#b7b2a5"/>
    <path d="m272 424h32v32h-32z" fill="#b7b2a5"/>
    <path d="m248 152h16v88h-16z" fill="#3f484f"/>
    <path d="m256 184c16 14.08 32-14.08 48 0v-32c-16-14.08-32 14.08-48 0z" fill="#e0300e"/>
    <circle cx="480" cy="128" fill="#26bfb0" r="16"/>
    <circle cx="96" cy="40" fill="#26bfb0" r="16"/>
    <circle cx="160" cy="72" fill="#26bfb0" r="16"/>
    <circle cx="224" cy="56" fill="#26bfb0" r="16"/>
    <circle cx="288" cy="40" fill="#26bfb0" r="16"/>
    <circle cx="352" cy="72" fill="#26bfb0" r="16"/>
    <circle cx="416" cy="40" fill="#26bfb0" r="16"/>
    <circle cx="40" cy="176" fill="#26bfb0" r="16"/>
    <path d="m128 456h256v32h-256z" fill="#878784"/>
    <circle cx="456" cy="192" fill="#26bfb0" r="16"/>
    <path d="m462.575 177.425a15.979 15.979 0 0 1 -21.15 21.15 15.993 15.993 0 1 0 21.15-21.15z" fill="#1c998a"/>
    <path d="m486.575 113.425a15.979 15.979 0 0 1 -21.15 21.15 15.993 15.993 0 1 0 21.15-21.15z" fill="#1c998a"/>
    <path d="m422.575 25.425a15.979 15.979 0 0 1 -21.15 21.15 15.993 15.993 0 1 0 21.15-21.15z" fill="#1c998a"/>
    <path d="m358.575 57.425a15.979 15.979 0 0 1 -21.15 21.15 15.993 15.993 0 1 0 21.15-21.15z" fill="#1c998a"/>
    <path d="m294.575 25.425a15.979 15.979 0 0 1 -21.15 21.15 15.993 15.993 0 1 0 21.15-21.15z" fill="#1c998a"/>
    <path d="m230.575 41.425a15.979 15.979 0 0 1 -21.15 21.15 15.993 15.993 0 1 0 21.15-21.15z" fill="#1c998a"/>
    <path d="m166.575 57.425a15.979 15.979 0 0 1 -21.15 21.15 15.993 15.993 0 1 0 21.15-21.15z" fill="#1c998a"/>
    <path d="m102.575 25.425a15.979 15.979 0 0 1 -21.15 21.15 15.993 15.993 0 1 0 21.15-21.15z" fill="#1c998a"/>
    <path d="m46.575 161.425a15.979 15.979 0 0 1 -21.15 21.15 15.993 15.993 0 1 0 21.15-21.15z" fill="#1c998a"/>
    <path d="m96 443.708v4.292h16v-32a31.978 31.978 0 0 1 -16 27.708z" fill="#2686a8"/>
    <path d="m96 379.708v4.292h16v-32a31.978 31.978 0 0 1 -16 27.708z" fill="#2686a8"/>
    <path d="m56 443.708v4.292h16v-32a31.978 31.978 0 0 1 -16 27.708z" fill="#2686a8"/>
    <path d="m56 379.708v4.292h16v-32a31.978 31.978 0 0 1 -16 27.708z" fill="#2686a8"/>
    <path d="m440 379.708v4.292h16v-32a31.978 31.978 0 0 1 -16 27.708z" fill="#2686a8"/>
    <path d="m440 443.708v4.292h16v-32a31.978 31.978 0 0 1 -16 27.708z" fill="#2686a8"/>
    <path d="m400 443.708v4.292h16v-32a31.978 31.978 0 0 1 -16 27.708z" fill="#2686a8"/>
    <path d="m400 379.708v4.292h16v-32a31.978 31.978 0 0 1 -16 27.708z" fill="#2686a8"/>
    <path d="m360 296c2.671 0 5.336-.027 8 0v-8h-224v38.807a768.228 768.228 0 0 1 216-30.807z" fill="#70706f"/>
    <path d="m368 328h-32v32a32 32 0 0 1 32-32z" fill="#999488"/>
    <path d="m304 328h-32v32a32 32 0 0 1 32-32z" fill="#999488"/>
    <path d="m240 328h-32v32a32 32 0 0 1 32-32z" fill="#999488"/>
    <path d="m176 328h-32v32a32 32 0 0 1 32-32z" fill="#999488"/>
    <path d="m144 456h32v-32a32 32 0 0 1 -32 32z" fill="#999488"/>
    <path d="m208 456h32v-32a32 32 0 0 1 -32 32z" fill="#999488"/>
    <path d="m272 456h32v-32a32 32 0 0 1 -32 32z" fill="#999488"/>
    <path d="m336 456h32v-32a32 32 0 0 1 -32 32z" fill="#999488"/>
    <path d="m128 472h256v16h-256z" fill="#666"/>
    <path d="m256 232-144 64h288z" fill="#d1cfc3"/>
    <path d="m136 296h264l-85.188-37.861a438.44 438.44 0 0 1 -178.812 37.861z" fill="#b7b2a5"/>
    <path d="m256 176v8c16 14.08 32-14.08 48 0v-32a16.82 16.82 0 0 0 -4.81-3.04 48 48 0 0 1 -43.19 27.04z" fill="#b20d24"/>
</svg>