<svg height="512pt" viewBox="0 0 512 512" width="512pt" xmlns="http://www.w3.org/2000/svg"><g fill="#c9f3ff"><path d="m330.503906 256c0-100.054688-34.292968-181.164062-76.589844-181.164062-42.300781 0-76.589843 81.109374-76.589843 181.164062s34.289062 181.164062 76.589843 181.164062c42.296876 0 76.589844-81.109374 76.589844-181.164062zm0 0"/><path d="m215.609375 189.679688c-86.644531 50.027343-139.742187 120.277343-118.59375 156.910156 21.152344 36.628906 108.539063 25.769531 195.183594-24.257813 86.648437-50.027343 139.746093-120.277343 118.597656-156.910156-21.152344-36.628906-108.539063-25.769531-195.1875 24.257813zm0 0"/><path d="m215.625 322.320312c86.644531 50.027344 174.035156 60.886719 195.183594 24.257813 21.148437-36.632813-31.945313-106.882813-118.59375-156.910156-86.648438-50.027344-174.035156-60.886719-195.183594-24.257813-21.152344 36.632813 31.945312 106.882813 118.59375 156.910156zm0 0"/></g><path d="m314.324219 102.367188c0 10.980468-8.902344 19.882812-19.882813 19.882812-10.980468 0-19.882812-8.902344-19.882812-19.882812 0-10.980469 8.902344-19.882813 19.882812-19.882813 10.980469 0 19.882813 8.902344 19.882813 19.882813zm0 0" fill="#ffb954"/><path d="m120.480469 297.71875c0 10.980469-8.902344 19.882812-19.882813 19.882812-10.980468 0-19.882812-8.902343-19.882812-19.882812s8.902344-19.882812 19.882812-19.882812c10.980469 0 19.882813 8.902343 19.882813 19.882812zm0 0" fill="#ffb954"/><path d="m386.582031 367.914062c0 10.984376-8.902343 19.886719-19.882812 19.886719s-19.882813-8.902343-19.882813-19.886719c0-10.980468 8.902344-19.882812 19.882813-19.882812s19.882812 8.902344 19.882812 19.882812zm0 0" fill="#ffb954"/><path d="m461.691406 85.792969c0 15.464843-12.539062 28-28 28-15.464844 0-28-12.535157-28-28 0-15.464844 12.535156-28 28-28 15.460938 0 28 12.535156 28 28zm0 0" fill="#ff5d5d"/><path d="m107.664062 426.359375c0 15.464844-12.535156 28-28 28-15.464843 0-28-12.535156-28-28s12.535157-28 28-28c15.464844 0 28 12.535156 28 28zm0 0" fill="#72d8ff"/><path d="m282.746094 255.605469c0 15.800781-12.808594 28.605469-28.605469 28.605469-15.800781 0-28.605469-12.804688-28.605469-28.605469 0-15.796875 12.804688-28.605469 28.605469-28.605469 15.796875 0 28.605469 12.808594 28.605469 28.605469zm0 0" fill="#ff5d5d"/><path d="m253.914062 447.164062c24.730469 0 47.238282-21.011718 63.367188-59.167968 1.8125-4.289063 3.527344-8.753906 5.140625-13.363282 5.40625 1.027344 10.6875 1.84375 15.832031 2.441407 2.269532 7.078125 7.019532 12.980469 13.503906 16.722656 4.605469 2.65625 9.714844 4.015625 14.894532 4.015625 2.59375 0 5.207031-.339844 7.78125-1.03125 7.710937-2.066406 14.15625-7.011719 18.144531-13.921875 2.101563-3.636719 3.34375-7.535156 3.796875-11.464844 10.347656-4.519531 18.101562-11.167969 23.09375-19.8125 12.367188-21.417969 5.417969-51.414062-19.558594-84.460937-2.820312-3.734375-5.84375-7.464844-9.046875-11.183594 3.289063-3.808594 6.386719-7.628906 9.273438-11.449219 24.980469-33.046875 31.925781-63.042969 19.558593-84.460937-12.367187-21.421875-41.820312-30.402344-82.925781-25.296875-4.734375.589843-9.570312 1.355469-14.492187 2.296875-1.777344-5.082032-3.675782-9.960938-5.6875-14.617188 4.804687-5.304687 7.734375-12.335937 7.734375-20.042968 0-16.476563-13.40625-29.882813-29.882813-29.882813-4.199218 0-8.195312.875-11.824218 2.445313-9.089844-6.699219-18.722657-10.09375-28.707032-10.09375-24.730468 0-47.234375 21.015624-63.367187 59.167968-1.8125 4.285156-3.523438 8.742188-5.132813 13.347656-4.796875-.90625-9.511718-1.652343-14.128906-2.226562-41.105469-5.105469-70.558594 3.875-82.921875 25.292969-12.367187 21.421875-5.421875 51.417969 19.554687 84.464843 2.792969 3.695313 5.785157 7.386719 8.953126 11.070313-3.601563 4.1875-6.957032 8.378906-10.042969 12.554687-6.980469-1.492187-14.515625-.511718-21.167969 3.332032-14.269531 8.238281-19.175781 26.550781-10.9375 40.820312 2.105469 3.652344 4.902344 6.746094 8.203125 9.164063-1.136719 11 .753906 20.859375 5.664063 29.367187 10.101562 17.496094 31.59375 26.691406 61.535156 26.691406 6.714844 0 13.859375-.460937 21.390625-1.398437 4.503906-.558594 9.105469-1.285156 13.78125-2.164063 1.644531 4.722657 3.394531 9.289063 5.25 13.675782 16.132812 38.15625 38.636719 59.167968 63.371093 59.167968zm121.34375-74.308593c-1.320312 2.289062-3.449218 3.921875-6 4.605469-2.550781.683593-5.214843.335937-7.5-.984376-2.289062-1.320312-3.921874-3.453124-4.605468-6.003906-.683594-2.550781-.332032-5.210937.988281-7.5 1.320313-2.285156 3.449219-3.921875 6-4.605468.851563-.226563 1.714844-.339844 2.574219-.339844 1.710937 0 3.402344.449218 4.925781 1.328125 4.71875 2.726562 6.34375 8.78125 3.617187 13.5zm26.886719-31.273438c-2.289062 3.972657-5.820312 7.273438-10.515625 9.871094-2.476562-3.757813-5.832031-7.019531-9.988281-9.417969-6.914063-3.992187-14.96875-5.054687-22.675781-2.984375-7.710938 2.066407-14.15625 7.011719-18.148438 13.921875-.753906 1.308594-1.402344 2.65625-1.945312 4.035156-3.445313-.429687-6.960938-.964843-10.539063-1.609374 4.261719-15.890626 7.453125-33.128907 9.5-51.210938 14.511719-10.71875 27.738281-22 39.300781-33.535156 2.394532 2.839844 4.671876 5.683594 6.820313 8.527344 19.535156 25.847656 26.167969 48.589843 18.191406 62.402343zm-181.527343-27.914062c-11.054688-6.382813-21.636719-13.148438-31.625-20.1875-1.101563-12.167969-1.671876-24.710938-1.671876-37.480469 0-12.839844.578126-25.457031 1.691407-37.691406 10.078125-7.128906 20.738281-13.964844 31.832031-20.371094 10.878906-6.28125 21.847656-11.972656 32.757812-17.042969 11.191407 5.164063 22.445313 10.992188 33.605469 17.4375 11.046875 6.378907 21.617188 13.136719 31.59375 20.167969 1.121094 12.210938 1.703125 24.777344 1.703125 37.5 0 12.679688-.5625 25.140625-1.652344 37.230469-9.925781 6.988281-20.4375 13.703125-31.417968 20.042969-11.222656 6.484374-22.546875 12.34375-33.800782 17.53125-11.03125-5.101563-22.101562-10.832032-33.015624-17.136719zm8.496093 27.402343c-10.257812 3.863282-20.355469 7.101563-30.171875 9.679688-2.644531-9.78125-4.867187-20.136719-6.628906-30.933594 5.949219 3.832032 12.054688 7.566406 18.304688 11.171875 6.121093 3.535157 12.296874 6.898438 18.496093 10.082031zm-61.269531-63.628906c-8.582031-7.019531-16.535156-14.21875-23.757812-21.503906 7.210937-7.273438 15.179687-14.484375 23.765624-21.527344-.347656 7.121094-.527343 14.324219-.527343 21.589844-.003907 7.214844.175781 14.371094.519531 21.441406zm24.511719-85.515625c1.773437-10.820312 4.007812-21.191406 6.671875-30.988281 9.796875 2.585938 19.875 5.828125 30.109375 9.691406-6.117188 3.152344-12.222657 6.484375-18.292969 9.988282-6.300781 3.636718-12.46875 7.417968-18.488281 11.308593zm85.679687-21.359375c10.417969-3.964844 20.675782-7.289062 30.648438-9.933594 2.699218 9.933594 4.96875 20.496094 6.777344 31.515626-5.9375-3.820313-12.023438-7.539063-18.253907-11.136719-6.363281-3.675781-12.761719-7.15625-19.171875-10.445313zm61.929688 63.980469c8.53125 6.980469 16.445312 14.132813 23.636718 21.371094-7.1875 7.21875-15.089843 14.351562-23.609374 21.308593.335937-7 .511718-14.082031.511718-21.226562 0-7.203125-.1875-14.363281-.539062-21.453125zm-42.53125 96.050781c6.1875-3.574218 12.230468-7.265625 18.128906-11.058594-1.789062 11-4.050781 21.542969-6.757812 31.492188-9.957032-2.640625-20.234376-5.964844-30.679688-9.921875 6.457031-3.308594 12.902344-6.8125 19.308594-10.511719zm41.800781-176.019531c32.152344-3.996094 55.164063 1.632813 63.140625 15.445313 7.972656 13.8125 1.34375 36.558593-18.191406 62.402343-2.210938 2.925781-4.5625 5.851563-7.03125 8.769531-11.582032-11.578124-24.839844-22.902343-39.390625-33.664062-2.078125-18.089844-5.3125-35.375-9.574219-51.261719 3.746094-.675781 7.429688-1.242187 11.046875-1.691406zm-34.910156-52.210937c0 5.449218-4.433594 9.882812-9.882813 9.882812-5.449218 0-9.882812-4.433594-9.882812-9.882812 0-5.449219 4.433594-9.882813 9.882812-9.882813 5.449219 0 9.882813 4.433594 9.882813 9.882813zm-95.359375 29.421874c12.617187-29.839843 29-46.953124 44.949218-46.953124 4.582032 0 9.207032 1.402343 13.808594 4.171874-2.019531 4.023438-3.164062 8.558594-3.164062 13.359376 0 16.476562 13.40625 29.882812 29.882812 29.882812 1.519532 0 3.007813-.113281 4.464844-.335938 1.3125 3.109376 2.570312 6.320313 3.773438 9.632813-15.902344 4.277344-32.425782 10.148437-49.105469 17.4375-16.488281-7.15625-32.820313-12.925781-48.539063-17.136719 1.25-3.453125 2.558594-6.8125 3.929688-10.058594zm-85.09375 101.03125c-19.535156-25.847656-26.167969-48.589843-18.191406-62.402343 7.972656-13.8125 30.984374-19.445313 63.136718-15.449219 3.5.4375 7.0625.980469 10.675782 1.625-4.226563 15.765625-7.402344 32.855469-9.449219 50.777344-14.578125 10.820312-27.878907 22.234375-39.46875 33.835937-2.351563-2.796875-4.589844-5.589843-6.703125-8.386719zm-28.214844 56.335938c1.554688-.894531 3.25-1.320312 4.925781-1.320312 3.417969 0 6.746094 1.773437 8.574219 4.941406 1.320312 2.285156 1.671875 4.949218.988281 7.5-.683593 2.546875-2.320312 4.679687-4.605469 6-2.285156 1.320312-4.949218 1.667968-7.5.988281-2.550781-.683594-4.679687-2.320313-6-4.605469-2.726562-4.71875-1.101562-10.777344 3.617188-13.503906zm73.390625 67.480469c-32.152344 3.992187-55.167969-1.636719-63.140625-15.449219-2.234375-3.871094-3.335938-8.4375-3.300781-13.636719 4.503906-.300781 8.910156-1.628906 12.933593-3.953125 14.273438-8.238281 19.179688-26.550781 10.9375-40.820312-.765624-1.335938-1.625-2.585938-2.558593-3.75 2.085937-2.773438 4.304687-5.550782 6.644531-8.335938 11.59375 11.605469 24.875 22.957032 39.457031 33.742188 2.03125 17.867187 5.1875 34.90625 9.386719 50.636718-3.507812.621094-6.964844 1.144532-10.359375 1.566407zm84.582031-3.9375c16.699219 7.265625 33.285156 13.128906 49.179688 17.402343-1.253906 3.472657-2.570313 6.847657-3.949219 10.109376-12.617187 29.839843-29 46.953124-44.949219 46.953124-15.945312 0-32.328125-17.113281-44.945312-46.953124-1.410156-3.34375-2.757813-6.800782-4.039063-10.363282 15.765625-4.199218 32.152344-9.976562 48.703125-17.148437zm0 0"/><path d="m79.664062 388.359375c-5.804687 0-11.402343 1.296875-16.480468 3.742187-28.277344-39.921874-43.183594-86.785156-43.183594-136.101562 0-130.132812 105.867188-236 236-236 17.199219 0 34.355469 1.859375 50.992188 5.523438 5.394531 1.191406 10.730468-2.222657 11.917968-7.617188s-2.222656-10.726562-7.613281-11.917969c-18.050781-3.972656-36.652344-5.988281-55.296875-5.988281-68.378906 0-132.667969 26.628906-181.019531 74.980469-48.351563 48.351562-74.980469 112.640625-74.980469 181.019531 0 54.171875 16.589844 105.617188 48.027344 149.285156-4.140625 6.1875-6.363282 13.460938-6.363282 21.074219 0 10.152344 3.953126 19.695313 11.128907 26.871094s16.71875 11.128906 26.871093 11.128906c10.148438 0 19.691407-3.953125 26.867188-11.128906 7.179688-7.175781 11.128906-16.71875 11.128906-26.871094 0-10.148437-3.949218-19.691406-11.128906-26.871094-7.175781-7.175781-16.71875-11.128906-26.867188-11.128906zm12.726563 50.730469c-3.398437 3.398437-7.921875 5.269531-12.730469 5.269531-4.804687 0-9.324218-1.871094-12.726562-5.269531-3.398438-3.402344-5.273438-7.921875-5.273438-12.730469s1.875-9.328125 5.273438-12.726563c3.398437-3.402343 7.921875-5.273437 12.726562-5.273437 4.808594 0 9.328125 1.871094 12.730469 5.273437 7.019531 7.019532 7.019531 18.4375 0 25.457032zm0 0"/><path d="m464.707031 107.742188c4.53125-6.371094 6.984375-13.96875 6.984375-21.949219 0-10.148438-3.953125-19.691407-11.132812-26.867188-7.175782-7.179687-16.71875-11.132812-26.867188-11.132812-10.152344 0-19.695312 3.953125-26.871094 11.132812-7.175781 7.175781-11.128906 16.71875-11.128906 26.867188 0 10.152343 3.953125 19.695312 11.128906 26.871093 7.175782 7.179688 16.71875 11.128907 26.871094 11.128907 5.445313 0 10.710938-1.148438 15.535156-3.308594 28.007813 39.800781 42.773438 86.46875 42.773438 135.515625 0 130.132812-105.867188 236-236 236-17.03125 0-34.027344-1.824219-50.515625-5.417969-5.394531-1.175781-10.722656 2.246094-11.898437 7.640625-1.179688 5.394532 2.242187 10.722656 7.636718 11.902344 17.886719 3.898438 36.3125 5.875 54.777344 5.875 68.378906 0 132.667969-26.628906 181.019531-74.980469 48.351563-48.351562 74.980469-112.640625 74.980469-181.019531 0-53.714844-16.335938-104.804688-47.292969-148.257812zm-43.746093-9.222657c-7.019532-7.015625-7.019532-18.433593 0-25.453125 3.398437-3.402344 7.921874-5.273437 12.730468-5.273437 4.804688 0 9.328125 1.871093 12.726563 5.273437 3.398437 3.398438 5.273437 7.917969 5.273437 12.726563 0 4.808593-1.875 9.328125-5.273437 12.726562-3.398438 3.402344-7.921875 5.273438-12.726563 5.273438-4.808594 0-9.328125-1.871094-12.730468-5.273438zm0 0"/><path d="m168.339844 475.183594-.277344-.109375c-5.128906-2.046875-10.945312.453125-12.992188 5.582031-2.046874 5.128906.453126 10.949219 5.582032 12.996094l.277344.109375c1.214843.484375 2.46875.714843 3.703124.714843 3.96875 0 7.726563-2.382812 9.289063-6.296874 2.046875-5.132813-.453125-10.949219-5.582031-12.996094zm0 0"/><path d="m344.292969 37.070312c.015625.007813.078125.03125.089843.035157 1.210938.484375 2.457032.710937 3.683594.710937 3.960938 0 7.707032-2.386718 9.273438-6.296875 2.046875-5.121093-.460938-10.941406-5.574219-13-.027344-.011719-.121094-.050781-.148437-.058593-5.125-2.011719-10.878907.511718-12.914063 5.625-2.03125 5.117187.484375 10.929687 5.589844 12.984374zm0 0"/><path d="m254.140625 217c-21.289063 0-38.605469 17.320312-38.605469 38.605469 0 21.289062 17.316406 38.605469 38.605469 38.605469 21.285156 0 38.605469-17.316407 38.605469-38.605469 0-21.285157-17.316406-38.605469-38.605469-38.605469zm0 57.214844c-10.261719 0-18.605469-8.347656-18.605469-18.609375 0-10.257813 8.34375-18.605469 18.605469-18.605469 10.257813 0 18.605469 8.347656 18.605469 18.605469 0 10.257812-8.347656 18.609375-18.605469 18.609375zm0 0"/></svg>