<?xml version="1.0"?>
<svg xmlns="http://www.w3.org/2000/svg" id="Layer_1" height="512px" viewBox="0 0 512 512" width="512px" data-name="Layer 1"><g><path d="m335 228.163a29.314 29.314 0 0 1 29.564-29.163h65.436v-162h-413v256h318zm-133.519-22.957a6 6 0 1 1 -7.237 9.571l-52.227-39.493a6 6 0 0 1 0-9.571l52.227-39.493a6 6 0 0 1 7.237 9.572l-45.9 34.707zm36.7-92.389-17.828 117.8a6 6 0 0 1 -11.866-1.8l17.829-117.795a6 6 0 0 1 11.865 1.8zm66.468 62.467-52.227 39.493a6 6 0 0 1 -7.237-9.571l45.9-34.707-45.9-34.707a6 6 0 0 1 7.237-9.572l52.227 39.493a6 6 0 0 1 0 9.571z" data-original="#000000" class="active-path" data-old_color="#000000" fill="#FFFFFF"/><path d="m347 457.86a17.283 17.283 0 0 0 17.564 17.14h112.884a17.272 17.272 0 0 0 17.552-17.14v-25.86h-148zm74.006-22.48a18.3 18.3 0 1 1 -18.3 18.3 18.316 18.316 0 0 1 18.3-18.3z" data-original="#000000" class="active-path" data-old_color="#000000" fill="#FFFFFF"/><path d="m421.006 459.972a6.3 6.3 0 1 0 -6.3-6.3 6.3 6.3 0 0 0 6.3 6.3z" data-original="#000000" class="active-path" data-old_color="#000000" fill="#FFFFFF"/><path d="m17 305h318v58h-318z" data-original="#000000" class="active-path" data-old_color="#000000" fill="#FFFFFF"/><path d="m477.448 211h-112.884a17.3 17.3 0 0 0 -17.564 17.163v16.837h148v-16.837a17.291 17.291 0 0 0 -17.552-17.163zm-36.461 21h-39.962a6 6 0 0 1 0-12h39.962a6 6 0 1 1 0 12z" data-original="#000000" class="active-path" data-old_color="#000000" fill="#FFFFFF"/><path d="m347 293.073v126.927h148v-163h-148zm44.322-20.073h91.584a6 6 0 0 1 0 12h-91.584a6 6 0 0 1 0-12zm0 29h91.584a6 6 0 0 1 0 12h-91.584a6 6 0 0 1 0-12zm0 30h91.584a6 6 0 0 1 0 12h-91.584a6 6 0 0 1 0-12zm0 30h91.584a6 6 0 0 1 0 12h-91.584a6 6 0 0 1 0-12zm0 30h91.584a6 6 0 0 1 0 12h-91.584a6 6 0 0 1 0-12zm-32.216-119h13.387a6 6 0 0 1 0 12h-13.387a6 6 0 0 1 0-12zm0 29h13.387a6 6 0 0 1 0 12h-13.387a6 6 0 0 1 0-12zm0 30h13.387a6 6 0 0 1 0 12h-13.387a6 6 0 0 1 0-12zm0 30h13.387a6 6 0 0 1 0 12h-13.387a6 6 0 0 1 0-12zm0 30h13.387a6 6 0 0 1 0 12h-13.387a6 6 0 0 1 0-12z" data-original="#000000" class="active-path" data-old_color="#000000" fill="#FFFFFF"/><path d="m335.814 435a6 6 0 0 0 -6-6h-39.557l-15.2-54h-103.45l-15.2 54h-39.558a6 6 0 0 0 0 12h212.965a6 6 0 0 0 6-6z" data-original="#000000" class="active-path" data-old_color="#000000" fill="#FFFFFF"/></g> </svg>
