<?xml version="1.0"?>
<svg xmlns="http://www.w3.org/2000/svg" id="Capa_1" enable-background="new 0 0 512 512" height="512px" viewBox="0 0 512 512" width="512px" class=""><g><g><path d="m158.856 406.465c9.837.596 18.737 4.876 25.285 11.452 7.115 7.087 11.509 16.895 11.509 27.723v15.251c12.303-15.789 19.615-35.66 19.615-57.232 0-25.768-10.459-49.125-27.354-66.02s-40.224-27.326-66.019-27.326c-25.767 0-49.096 10.432-65.99 27.326-16.895 16.895-27.354 40.252-27.354 66.02 0 21.544 7.313 41.387 19.587 57.203v-15.222c0-10.8 4.423-20.608 11.51-27.723 6.576-6.576 15.477-10.857 25.312-11.452-1.757-4.479-2.721-9.326-2.721-14.4v-24.095-10.375c0-7.03 2.863-13.408 7.483-18.028s10.999-7.483 18.028-7.483h46.318c4.166 0 7.512 3.345 7.512 7.512v28.375 24.095c.001 5.073-.963 9.92-2.721 14.399zm-61.625-45.979h49.351v-13.408h-38.834c-2.892 0-5.499 1.19-7.427 3.09-1.899 1.928-3.09 4.535-3.09 7.427zm49.351 14.995h-49.351v16.583c0 13.55 11.112 24.662 24.661 24.662 13.578 0 24.689-11.112 24.689-24.662v-16.583zm268.187-286.784c-8.73.964-21.714.283-32.797-8.986-3.969 2.154-9.694 4.309-16.555 4.111v12.953c0 6.775 2.778 12.927 7.257 17.405 4.479 4.479 10.63 7.257 17.434 7.257 6.774 0 12.926-2.778 17.404-7.257 4.479-4.479 7.257-10.63 7.257-17.405zm-49.352-19.843c4.451.284 9.213-1.445 12.529-4.394 3.118-2.693 7.852-2.353 10.545.766 8.362 9.581 19.786 9.496 26.277 8.447v-11.395c0-2.863-1.19-5.499-3.09-7.398-1.899-1.928-4.535-3.09-7.427-3.09h-28.318c-2.892 0-5.499 1.162-7.427 3.09-1.898 1.899-3.09 4.535-3.09 7.398v6.576zm-270.17 352.521h-7.852c-6.661 0-12.728 2.75-17.122 7.144-4.422 4.394-7.142 10.46-7.142 17.121v30.559c6.491 5.244 13.691 9.666 21.458 13.039v-29.708c0-4.167 3.345-7.512 7.483-7.512 4.139 0 7.512 3.345 7.512 7.512v34.782c7.144 1.758 14.627 2.693 22.309 2.693 7.711 0 15.193-.936 22.338-2.693v-34.782c0-4.167 3.373-7.512 7.512-7.512s7.482 3.345 7.482 7.512v29.708c7.768-3.373 14.996-7.795 21.487-13.067v-30.53c0-6.633-2.75-12.699-7.172-17.121-4.393-4.394-10.46-7.144-17.121-7.144h-7.852c-7.029 6.435-16.412 10.375-26.674 10.375-10.233-.001-19.616-3.941-26.646-10.376zm334.517-324.6c0 5.047-.964 9.922-2.722 14.372 9.837.624 18.737 4.876 25.314 11.452 7.087 7.116 11.48 16.924 11.48 27.752v15.251c12.303-15.817 19.616-35.688 19.616-57.261 0-25.768-10.46-49.097-27.354-65.992-16.895-16.895-40.224-27.355-65.99-27.355-25.796 0-49.125 10.46-66.02 27.355s-27.354 40.225-27.354 65.992c0 21.572 7.314 41.415 19.588 57.204v-15.194c0-10.828 4.422-20.636 11.537-27.752 6.548-6.576 15.449-10.828 25.285-11.452-1.758-4.45-2.722-9.325-2.722-14.372v-34.497c0-7.001 2.863-13.38 7.483-18 4.621-4.621 10.999-7.484 18.028-7.484h28.318c7.03 0 13.408 2.863 18.028 7.484 4.62 4.62 7.483 10.999 7.483 18v34.497zm-13.011 29.311c-7.03 6.407-16.413 10.348-26.646 10.348-10.262 0-19.616-3.94-26.675-10.348h-7.852c-6.661 0-12.728 2.723-17.121 7.116-4.422 4.422-7.144 10.488-7.144 17.149v30.529c6.491 5.272 13.691 9.666 21.458 13.067v-29.735c0-4.138 3.346-7.512 7.484-7.512s7.512 3.374 7.512 7.512v34.81c7.143 1.758 14.626 2.693 22.337 2.693 7.682 0 15.165-.936 22.309-2.693v-34.81c0-4.138 3.373-7.512 7.512-7.512s7.483 3.374 7.483 7.512v29.735c7.795-3.401 14.995-7.823 21.486-13.096v-30.501c0-6.661-2.75-12.728-7.172-17.149-4.394-4.394-10.459-7.116-17.121-7.116h-7.85zm-206.561 214.728c6.463-1.247 13.351-2.268 20.438-3.061 5.925-.624 11.934-1.077 17.858-1.275v-72.965h-74.977c.17 7.512.566 14.91 1.19 22.139.766 8.787 1.843 17.207 3.175 25.23 7.541 4.535 14.457 9.977 20.637 16.157 4.253 4.25 8.165 8.87 11.679 13.775zm53.32-4.366c22.28.68 43.314 4.422 62.079 10.545 7.597-24.378 12.245-52.896 12.898-83.482h-74.977zm76.11 15.761c14.74 6.18 27.666 13.946 38.211 22.933 10.517-10.744 19.615-22.904 27.014-36.113 2.014-3.601 6.549-4.904 10.177-2.892 3.601 1.983 4.904 6.548 2.892 10.148-16.129 28.885-39.714 52.952-68.201 69.677-27.525 16.157-59.557 25.427-93.714 25.427-6.378 0-12.812-.34-19.247-.992-4.139-.453-8.249-.992-12.303-1.7-5.386 15.816-14.343 30.02-25.936 41.585-19.589 19.585-46.689 31.718-76.622 31.718-28.885 0-56.268-11.396-76.592-31.72-19.615-19.617-31.748-46.716-31.748-76.622 0-29.935 12.133-57.005 31.748-76.621 9.127-9.155 19.928-16.668 31.861-22.082-1.871-6.803-3.345-13.749-4.422-20.836-1.389-9.184-2.126-18.566-2.126-28.119 0-10.63.907-21.118 2.665-31.352 1.785-10.432 4.422-20.58 7.88-30.359 1.389-3.912 5.669-5.953 9.553-4.563 3.911 1.36 5.952 5.641 4.563 9.553-3.146 8.957-5.612 18.284-7.229 27.894-1.19 6.944-1.955 14.059-2.268 21.345h72.737c.651-32.429 5.641-62.731 13.861-88.726-14.74-6.18-27.666-13.946-38.211-22.903-9.666 9.864-18.142 20.919-25.172 32.91-2.098 3.543-6.661 4.733-10.233 2.664-3.571-2.098-4.762-6.689-2.664-10.232 16.385-27.894 39.855-51.139 67.918-67.211 27.13-15.536 58.509-24.408 91.986-24.408 6.378 0 12.812.34 19.247 1.021 4.139.425 8.249.992 12.303 1.672 5.386-15.816 14.371-29.99 25.936-41.557 19.588-19.615 46.687-31.748 76.621-31.748 29.905 0 57.005 12.133 76.592 31.748 19.616 19.589 31.748 46.688 31.748 76.594 0 29.935-12.132 57.034-31.748 76.621-9.128 9.155-19.928 16.667-31.861 22.11 1.871 6.804 3.345 13.749 4.422 20.808 1.389 9.184 2.126 18.566 2.126 28.119 0 9.893-.794 19.701-2.353 29.367-1.56 9.836-3.884 19.361-6.889 28.518-1.275 3.94-5.499 6.095-9.439 4.818-3.94-1.275-6.066-5.499-4.79-9.439 2.777-8.532 4.932-17.292 6.378-26.25.992-6.32 1.643-12.84 1.928-19.502h-72.737c-.653 32.4-5.641 62.703-13.862 88.697zm27.213 33.223c-8.93-7.343-19.786-13.806-32.145-19.05-2.579 6.633-5.358 12.898-8.334 18.794-7.086 14.004-15.363 25.853-24.52 35.009 14.287-3.997 27.808-9.779 40.309-17.121 8.759-5.131 17.036-11.056 24.69-17.632zm-46.177-24.294c-17.206-5.584-36.567-9.014-57.147-9.694v74.212c18.907-3.656 36.227-21.033 49.493-47.227 2.75-5.414 5.302-11.197 7.654-17.291zm-72.17-9.666c-5.471.198-10.942.596-16.3 1.162-4.62.511-9.212 1.162-13.691 1.899 7.512 14.74 11.764 31.438 11.764 49.125 0 4.536-.284 9.015-.822 13.408 3.771 2.693 7.625 4.876 11.594 6.435 2.466.964 4.933 1.701 7.455 2.183zm-103.323-224.904c8.93 7.371 19.815 13.806 32.174 19.078 2.551-6.634 5.329-12.927 8.306-18.795 7.086-14.003 15.335-25.852 24.52-35.008-13.691 3.826-26.646 9.298-38.693 16.185-9.384 5.359-18.171 11.567-26.307 18.54zm46.177 24.294c17.206 5.612 36.567 9.014 57.146 9.694v-74.211c-18.907 3.656-36.227 21.032-49.493 47.254-2.749 5.386-5.301 11.169-7.653 17.263zm72.17 9.695c5.726-.17 11.311-.567 16.725-1.162 4.535-.482 8.957-1.105 13.294-1.843-7.54-14.769-11.792-31.494-11.792-49.21 0-4.536.284-8.986.822-13.38-3.741-2.722-7.625-4.876-11.594-6.435-2.466-.964-4.933-1.701-7.455-2.183zm38.324 10.658c-6.52 1.304-13.181 2.324-20.013 3.062-6.037.652-12.16 1.105-18.312 1.275v72.965h74.977c-.17-7.54-.567-14.939-1.19-22.167-.766-8.787-1.843-17.207-3.175-25.201-7.512-4.535-14.457-9.978-20.637-16.186-4.252-4.252-8.163-8.845-11.65-13.748zm-53.348 4.337c-22.28-.68-43.313-4.422-62.079-10.545-7.597 24.406-12.245 52.895-12.897 83.51h74.977v-72.965zm101.99 33.675c.709 5.245 1.304 10.518 1.758 15.847.651 7.653 1.077 15.477 1.247 23.442h72.737c-.255-6.236-.851-12.388-1.786-18.398-.907-6.065-2.154-11.99-3.686-17.802-9.723 2.864-20.012 4.395-30.642 4.395-14.003.001-27.353-2.664-39.628-7.484zm-188.957 93.545c-.709-5.245-1.305-10.518-1.758-15.818-.652-7.682-1.077-15.505-1.247-23.442h-72.737c.256 6.236.879 12.359 1.786 18.397s2.154 11.991 3.685 17.803c9.723-2.863 20.013-4.395 30.643-4.395 14.003-.001 27.354 2.636 39.628 7.455z" data-original="#000000" class="active-path" data-old_color="#000000" fill="#FFFFFF"/></g></g> </svg>
