<?xml version="1.0"?>
<svg xmlns="http://www.w3.org/2000/svg" id="outline" viewBox="0 0 512 512" width="512px" height="512px"><g><path d="M480,380.68652V256a80.09431,80.09431,0,0,0-76.22229-79.90405l2.73645-6.84107A132.03588,132.03588,0,0,0,416,120a8.00008,8.00008,0,0,0-8-8H312a8.00008,8.00008,0,0,0-8,8,132.0272,132.0272,0,0,0,9.48584,49.25391l2.73669,6.842A80.09417,80.09417,0,0,0,240,256V372.68652a19.18424,19.18424,0,0,1-5.65674,13.65625A35.08124,35.08124,0,0,0,224,411.31348V432a8.00008,8.00008,0,0,0,8,8H488a8.00008,8.00008,0,0,0,8-8V411.31348a35.08124,35.08124,0,0,0-10.34326-24.97071ZM399.72852,128a116.02711,116.02711,0,0,1-8.06983,35.3125L386.584,176H333.41626l-5.075-12.68848A116.01446,116.01446,0,0,1,320.27148,128ZM480,424H240V411.31348a19.18424,19.18424,0,0,1,5.65674-13.65625A35.08124,35.08124,0,0,0,256,372.68652V256a64.07239,64.07239,0,0,1,64-64h80a64.07239,64.07239,0,0,1,64,64V376H420.45605v16h48.23l5.65722,5.65723A19.18424,19.18424,0,0,1,480,411.31348Z" data-original="#000000" class="active-path" data-old_color="#000000" fill="#FFFFFF"/><path d="M24,440H208V424H176V408h40V392H176V376h48V360H176V344h48V328H120a24.02718,24.02718,0,0,1-24-24V288a8.00008,8.00008,0,0,0-8-8H24a8.00008,8.00008,0,0,0-8,8v16a39.79015,39.79015,0,0,0,8.022,24H24a8.00008,8.00008,0,0,0-8,8v96A8.00008,8.00008,0,0,0,24,440Zm72-48H32V376H96Zm0-48v16H32V344ZM32,408H96v16H32Zm128-64v80H112V344ZM32,304v-8H80v8a39.79015,39.79015,0,0,0,8.022,24H56A24.02718,24.02718,0,0,1,32,304Z" data-original="#000000" class="active-path" data-old_color="#000000" fill="#FFFFFF"/><path d="M280,168V112a40.04552,40.04552,0,0,0-40-40H120a40.04552,40.04552,0,0,0-40,40V264H96V112a24.0275,24.0275,0,0,1,24-24H240a24.0275,24.0275,0,0,1,24,24v56Z" data-original="#000000" class="active-path" data-old_color="#000000" fill="#FFFFFF"/><path d="M248,152V112a8.00008,8.00008,0,0,0-8-8H120a8.00008,8.00008,0,0,0-8,8v40a8.00008,8.00008,0,0,0,8,8H240A8.00008,8.00008,0,0,0,248,152Zm-16-8H128V120H232Z" data-original="#000000" class="active-path" data-old_color="#000000" fill="#FFFFFF"/><path d="M240,192V176H120a8.00008,8.00008,0,0,0-8,8V304a8.00008,8.00008,0,0,0,8,8H224V296H208V232h16V216H208V192Zm-48,64H168V232h24Zm-64-24h24v24H128Zm64-16H168V192h24Zm-64-24h24v24H128Zm0,80h24v24H128Zm40,0h24v24H168Z" data-original="#000000" class="active-path" data-old_color="#000000" fill="#FFFFFF"/><path d="M368,288H352a12,12,0,0,1,0-24h32V248H368V232H352v16a28,28,0,0,0,0,56h16a12,12,0,0,1,0,24H328v16h24v12.748h16V344a28,28,0,0,0,0-56Z" data-original="#000000" class="active-path" data-old_color="#000000" fill="#FFFFFF"/></g> </svg>
