<?xml version="1.0"?>
<svg xmlns="http://www.w3.org/2000/svg" id="Layer_5" enable-background="new 0 0 64 64" height="512px" viewBox="0 0 64 64" width="512px" class=""><g><g><path d="m5 29h2v2h-2z" data-original="#000000" class="active-path" data-old_color="#000000" fill="#FFFFFF"/><path d="m9 29h9v2h-9z" data-original="#000000" class="active-path" data-old_color="#000000" fill="#FFFFFF"/><path d="m60.364 22.708c-.646-.431-1.36-.727-2.122-.879l-3.242-.649v-1.728c.987-.886 1.677-2.09 1.909-3.452h1.091c1.654 0 3-1.346 3-3 0-.714-.261-1.361-.679-1.877.442-.898.679-1.881.679-2.892v-.231c0-2.061-1.566-3.762-3.57-3.977-2.024-1.907-4.644-2.966-7.43-3.014v-.009h-49v34h43v6.812c-1.79 1.039-3 2.973-3 5.188 0 2.118.501 4.238 1.447 6.13l.143.286-2.171.724c-.993.331-1.823.954-2.419 1.751-.596-.797-1.426-1.42-2.419-1.751l-2.171-.724.143-.286c.946-1.892 1.447-4.012 1.447-6.13 0-3.309-2.691-6-6-6s-6 2.691-6 6c0 2.118.501 4.238 1.447 6.13l.143.286-2.171.724c-.911.304-1.678.86-2.26 1.563-.473-.709-1.123-1.303-1.923-1.703l-1.236-.618v-6.382c0-3.309-2.691-6-6-6s-6 2.691-6 6v6.382l-1.236.618c-1.705.853-2.764 2.566-2.764 4.472v4.528h18 2 16 2 18v-4.117c0-1.545-.714-2.953-1.867-3.883h2.867v-12.351c.456.218.961.351 1.5.351 1.93 0 3.5-1.57 3.5-3.5v-11.868c0-1.983-.985-3.823-2.636-4.924zm-2.514 1.082c.504.101.978.297 1.405.582 1.093.729 1.745 1.947 1.745 3.26v7.368h-3v-1-5.586c0-.645.251-1.251.707-1.707l-1.414-1.415c-.834.834-1.293 1.942-1.293 3.122v5.586 3h-10v-8.586c0-1.18-.459-2.288-1.293-3.122l-1.414 1.415c.173.173.307.373.418.584l-2.012.503c-2.194.549-4.596-.046-6.281-1.563l-3.281-2.953 2.609-2.61 5.021 4.463 3.259-1.086c.154-.051.311-.093.471-.125l3.833-.767.089.265c.515 1.545 1.954 2.582 3.581 2.582s3.066-1.037 3.582-2.582l.088-.265zm-29.265-3.708c-.372-.335-.585-.814-.585-1.314 0-.975.793-1.768 1.768-1.768h.181c.434 0 .85.158 1.174.447l2.127 1.89-2.601 2.601zm24.415 1.755-.315.949c-.243.726-.919 1.214-1.685 1.214s-1.442-.488-1.684-1.213l-.316-.95v-1.194c.627.223 1.298.35 2 .35s1.373-.128 2-.35zm2-6.844c0 2.206-1.794 4-4 4s-4-1.794-4-4v-3.043c1.466-.153 2.844-.712 4-1.622 1.156.91 2.534 1.468 4 1.622zm3-.993h-1v-2h1c.552 0 1 .449 1 1s-.448 1-1 1zm-1.41-8h.41c1.103 0 2 .897 2 2v.231c0 .636-.138 1.256-.391 1.832-.197-.041-.4-.063-.609-.063h-1v-.007h-1.172c-1.557 0-3.021-.606-4.121-1.707l-.707-.708-.707.708c-1.101 1.101-2.564 1.707-4.121 1.707h-1.172v.007h-1c-.209 0-.412.022-.609.063-.253-.576-.391-1.196-.391-1.832v-.205c0-1.517.809-2.944 2.109-3.725 1.419-.851 3.042-1.301 4.696-1.301 2.438 0 4.73.949 6.493 2.712zm-12.59 8c-.552 0-1-.449-1-1s.448-1 1-1h1v2zm-41 19v-30h40.483c-1.544 1.191-2.483 3.054-2.483 5.026v.205c0 1.011.237 1.994.679 2.892-.418.515-.679 1.163-.679 1.877 0 1.654 1.346 3 3 3h1.091c.232 1.362.922 2.566 1.909 3.452v1.728l-3.896.779c-.24.048-.479.111-.711.188l-2.161.721-7.781-6.916c-.689-.614-1.578-.952-2.503-.952h-.181c-2.077 0-3.767 1.69-3.767 3.768 0 1.066.454 2.087 1.247 2.8l6.833 6.149c1.636 1.472 3.748 2.283 5.948 2.283.727 0 1.452-.089 2.156-.266l1.816-.453v3.719zm44 10c2.206 0 4 1.794 4 4 0 1.809-.428 3.619-1.236 5.236l-.382.764h-4.764l-.382-.764c-.808-1.617-1.236-3.427-1.236-5.236 0-2.206 1.794-4 4-4zm-18 0c2.206 0 4 1.794 4 4 0 1.809-.428 3.619-1.236 5.236l-.382.764h-4.764l-.382-.764c-.808-1.617-1.236-3.427-1.236-5.236 0-2.206 1.794-4 4-4zm-22 4c0-2.206 1.794-4 4-4s4 1.794 4 4v10h-8zm12 14h-16v-2.528c0-1.144.636-2.172 1.658-2.683l.342-.171v3.382h12v-3.382l.342.171c1.022.511 1.658 1.54 1.658 2.683v.411zm18 0h-16v-2.117c0-1.293.824-2.437 2.052-2.846l3.111-1.037h5.675l3.111 1.037c1.227.409 2.051 1.553 2.051 2.846zm18 0h-16v-2.117c0-1.293.824-2.437 2.052-2.846l3.111-1.037h5.675l3.111 1.037c1.227.409 2.051 1.553 2.051 2.846zm1-8h-4.391c.905-1.86 1.391-3.93 1.391-6 0-3.309-2.691-6-6-6-.341 0-.674.035-1 .09v-2.09h10v.5zm3.5-12c-.827 0-1.5-.673-1.5-1.5v-2.5h3v2.5c0 .827-.673 1.5-1.5 1.5z" data-original="#000000" class="active-path" data-old_color="#000000" fill="#FFFFFF"/><path d="m21 11h-2v4h-2v-8h-2v8h-2v-6h-2v6h-2v-4h-2v4h-2v2h18v-2h-2z" data-original="#000000" class="active-path" data-old_color="#000000" fill="#FFFFFF"/><path d="m5 19h2v2h-2z" data-original="#000000" class="active-path" data-old_color="#000000" fill="#FFFFFF"/><path d="m9 19h10v2h-10z" data-original="#000000" class="active-path" data-old_color="#000000" fill="#FFFFFF"/><path d="m21 19h2v2h-2z" data-original="#000000" class="active-path" data-old_color="#000000" fill="#FFFFFF"/></g></g> </svg>
