<?xml version="1.0"?>
<svg xmlns="http://www.w3.org/2000/svg" height="512px" viewBox="0 0 64 64" width="512px" class=""><g><g id="Outline"><path d="m46 21h-7a1 1 0 0 0 0 2h7a1 1 0 0 0 0-2z" data-original="#000000" class="active-path" data-old_color="#000000" fill="#FFFFFF"/><path d="m46 25h-7a1 1 0 0 0 0 2h7a1 1 0 0 0 0-2z" data-original="#000000" class="active-path" data-old_color="#000000" fill="#FFFFFF"/><path d="m46 29h-7a1 1 0 0 0 0 2h7a1 1 0 0 0 0-2z" data-original="#000000" class="active-path" data-old_color="#000000" fill="#FFFFFF"/><path d="m61 58a1 1 0 0 0 0-2h-5v-5.1a5.009 5.009 0 0 0 4-4.9 1 1 0 0 0 -2 0 3 3 0 0 1 -3 3h-21.232a9.01 9.01 0 0 0 -8.768-7h-1v-.035a9.995 9.995 0 0 0 3.8-6.1 8.961 8.961 0 0 0 .889-12.865h.311a1 1 0 0 0 0-2h-2.9a8.93 8.93 0 0 0 -4.1-1h-4v-2h15v21h-4.072a1 1 0 1 0 0 2h11.335a8 8 0 1 0 14.774-5.807 1 1 0 0 0 -1.758.953 6 6 0 1 1 -2.425-2.425 1 1 0 0 0 .953-1.759 7.978 7.978 0 0 0 -9.081 1.038h-3.726a1 1 0 0 0 0 2h2.082a7.94 7.94 0 0 0 -1.082 4h-5v-21h15v10.479a1 1 0 0 0 2 0v-3.479h3a3 3 0 0 1 3 3v14a1 1 0 0 0 2 0v-14a5.006 5.006 0 0 0 -5-5h-3v-6a1 1 0 0 0 -1-1h-34a1 1 0 0 0 -1 1v3h-10a1 1 0 0 0 -1 1v2a1 1 0 0 0 2 0v-1h15a7 7 0 0 1 0 14h-8a7.008 7.008 0 0 1 -7-7v-2a1 1 0 0 0 -2 0v2a8.978 8.978 0 0 0 3.2 6.868 9.995 9.995 0 0 0 3.8 6.1v.032a6 6 0 0 0 11.65 2h1.35a7.008 7.008 0 0 1 7 7v10a1 1 0 0 0 1.5.866l6.7-3.866zm-50.226-20.608a8.937 8.937 0 0 0 3.226.608h8a8.937 8.937 0 0 0 3.226-.608 7.97 7.97 0 0 1 -14.452 0zm7.226 8.608a3.992 3.992 0 0 1 -3.785-2.765 9.746 9.746 0 0 0 7.57 0 3.992 3.992 0 0 1 -3.785 2.765zm21.16 5.67a2 2 0 1 1 2 3.464l-1.638.946-1.943-3.5zm4.863 2.767a4.182 4.182 0 0 0 .072-.427 2 2 0 0 1 1.905 1.99h-2.816a3.958 3.958 0 0 0 .839-1.563zm-.023-2.437c-.033 0-.068.007-.1.008a3.962 3.962 0 0 0 -.275-.606 3.848 3.848 0 0 0 -.287-.4h6.662v5h-2a4 4 0 0 0 -4-4.002zm10-1v5h-2v-5zm-17.68 0-2.32 1.34v-1.34zm-2.32 3.649 1.846-1.066 1.944 3.5-3.79 2.185z" data-original="#000000" class="active-path" data-old_color="#000000" fill="#FFFFFF"/><path d="m61 60h-20.579a1 1 0 1 0 0 2h20.579a1 1 0 0 0 0-2z" data-original="#000000" class="active-path" data-old_color="#000000" fill="#FFFFFF"/><path d="m9 53a1 1 0 0 0 -1 1v7a1 1 0 0 0 2 0v-7a1 1 0 0 0 -1-1z" data-original="#000000" class="active-path" data-old_color="#000000" fill="#FFFFFF"/><path d="m27 52a1 1 0 0 0 -1 1v8a1 1 0 0 0 2 0v-8a1 1 0 0 0 -1-1z" data-original="#000000" class="active-path" data-old_color="#000000" fill="#FFFFFF"/><path d="m9.419 42.138a8.984 8.984 0 0 0 -7.419 8.862v10a1 1 0 0 0 2 0v-10a6.985 6.985 0 0 1 5.769-6.892 1 1 0 1 0 -.35-1.97z" data-original="#000000" class="active-path" data-old_color="#000000" fill="#FFFFFF"/><path d="m51.515 38.143-5-3a1 1 0 0 0 -1.515.857v6a1 1 0 0 0 1.515.857l5-3a1 1 0 0 0 0-1.714zm-4.515 2.091v-2.468l2.057 1.234z" data-original="#000000" class="active-path" data-old_color="#000000" fill="#FFFFFF"/></g></g> </svg>
