<?xml version="1.0"?>
<svg xmlns="http://www.w3.org/2000/svg" height="512px" viewBox="0 0 64 64" width="512px"><g><path d="m44 23v-15h-24v15a1 1 0 0 0 1 1h22a1 1 0 0 0 1-1zm-15.293-4.707a1 1 0 1 1 -1.414 1.414l-3-3a1 1 0 0 1 0-1.414l3-3a1 1 0 0 1 1.414 1.414l-2.293 2.293zm5.263-6.05-2 8a1 1 0 0 1 -.97.757.976.976 0 0 1 -.244-.03 1 1 0 0 1 -.727-1.213l2-8a1 1 0 0 1 1.94.486zm5.737 4.464-3 3a1 1 0 0 1 -1.414-1.414l2.293-2.293-2.293-2.293a1 1 0 0 1 1.414-1.414l3 3a1 1 0 0 1 0 1.414z" data-original="#000000" class="active-path" data-old_color="#000000" fill="#FFFFFF"/><path d="m44 5a1 1 0 0 0 -1-1h-22a1 1 0 0 0 -1 1v1h24z" data-original="#000000" class="active-path" data-old_color="#000000" fill="#FFFFFF"/><path d="m4 41v1h24v-1a1 1 0 0 0 -1-1h-22a1 1 0 0 0 -1 1z" data-original="#000000" class="active-path" data-old_color="#000000" fill="#FFFFFF"/><path d="m4 59a1 1 0 0 0 1 1h22a1 1 0 0 0 1-1v-15h-24zm15.293-9.293a1 1 0 0 1 1.414-1.414l3 3a1 1 0 0 1 0 1.414l-3 3a1 1 0 0 1 -1.414-1.414l2.293-2.293zm-5.263 6.05 2-8a1 1 0 0 1 1.94.486l-2 8a1 1 0 0 1 -.97.757.976.976 0 0 1 -.244-.03 1 1 0 0 1 -.726-1.213zm-5.737-4.464 3-3a1 1 0 0 1 1.414 1.414l-2.293 2.293 2.293 2.293a1 1 0 1 1 -1.414 1.414l-3-3a1 1 0 0 1 0-1.414z" data-original="#000000" class="active-path" data-old_color="#000000" fill="#FFFFFF"/><path d="m37 59a1 1 0 0 0 1 1h22a1 1 0 0 0 1-1v-15h-24zm15.293-9.293a1 1 0 0 1 1.414-1.414l3 3a1 1 0 0 1 0 1.414l-3 3a1 1 0 0 1 -1.414-1.414l2.293-2.293zm-5.263 6.05 2-8a1 1 0 1 1 1.94.486l-2 8a1 1 0 0 1 -.97.757.976.976 0 0 1 -.244-.03 1 1 0 0 1 -.726-1.213zm-5.737-4.464 3-3a1 1 0 0 1 1.414 1.414l-2.293 2.293 2.293 2.293a1 1 0 1 1 -1.414 1.414l-3-3a1 1 0 0 1 0-1.414z" data-original="#000000" class="active-path" data-old_color="#000000" fill="#FFFFFF"/><path d="m60 40h-22a1 1 0 0 0 -1 1v1h24v-1a1 1 0 0 0 -1-1z" data-original="#000000" class="active-path" data-old_color="#000000" fill="#FFFFFF"/><path d="m51 34a3 3 0 0 0 -3-3h-15v-5h-2v5h-13a3 3 0 0 0 -3 3v4h2v-4a1 1 0 0 1 1-1h30a1 1 0 0 1 1 1v4h2z" data-original="#000000" class="active-path" data-old_color="#000000" fill="#FFFFFF"/></g> </svg>
