<?xml version="1.0"?>
<svg xmlns="http://www.w3.org/2000/svg" id="Icons" viewBox="0 0 60 60" width="512px" height="512px" class=""><g><path d="M59.6,38.836A3.169,3.169,0,0,0,55.3,37.613l-1.605.907-.066-.057a5.019,5.019,0,0,0-5.251-1.157l-7.843,2.975L21.019,37.127a10.024,10.024,0,0,0-5,.478L11.93,39.368A3,3,0,0,0,9,37H3a3,3,0,0,0-3,3V54a3,3,0,0,0,3,3H9a3,3,0,0,0,2.98-2.8,2.078,2.078,0,0,1,.649.091l20.325,5.5a5.026,5.026,0,0,0,4.5-.829L58.8,42.855a3.17,3.17,0,0,0,.807-4.01Zm-10.532.344a3.017,3.017,0,0,1,2.762.39l-5.967,3.371a3.143,3.143,0,0,0-1.639-1.923ZM10,54a1,1,0,0,1-1,1H3a1,1,0,0,1-1-1V40a1,1,0,0,1,1-1H9a1,1,0,0,1,1,1v.8c0,.023-.01.044-.01.066L10,53.375ZM57.577,41.273l-21.341,16.1a3.035,3.035,0,0,1-2.735.494l-20.314-5.5a3.926,3.926,0,0,0-1.161-.174H12V41.516l4.748-2.051A7.975,7.975,0,0,1,20.7,39.1l22.318,3.607A1.172,1.172,0,0,1,44,43.851a1.21,1.21,0,0,1-.087.44h0a1.117,1.117,0,0,1-.24.369,1.192,1.192,0,0,1-.833.347h-.37v0H27.85l-.012,0L24,45h0a1,1,0,0,0,0,2l3.569.01,5.818,3.611a3.036,3.036,0,0,0,1.48.388,2.982,2.982,0,0,0,1.452-.378l0,0,6.415-3.621h.1a3.186,3.186,0,0,0,2.237-.923,3.094,3.094,0,0,0,.5-.682l10.7-6.045a1.163,1.163,0,0,1,1.3,1.916ZM35.341,48.885a.989.989,0,0,1-.944.012l-3.042-1.888h7.309Z" data-original="#000000" class="active-path" data-old_color="#000000" fill="#FFFFFF"/><path d="M7,41H5a1,1,0,0,0,0,2H7a1,1,0,0,0,0-2Z" data-original="#000000" class="active-path" data-old_color="#000000" fill="#FFFFFF"/><path d="M7,51H5a1,1,0,0,0,0,2H7a1,1,0,0,0,0-2Z" data-original="#000000" class="active-path" data-old_color="#000000" fill="#FFFFFF"/><path d="M20.707,23.293a1,1,0,0,0-1.414,0l-2,2a1,1,0,0,0,1.414,1.414L19,26.414V29a1,1,0,0,0,2,0V26.414l.293.293a1,1,0,0,0,1.414-1.414Z" data-original="#000000" class="active-path" data-old_color="#000000" fill="#FFFFFF"/><path d="M28.707,23.293a1,1,0,0,0-1.414,0l-2,2a1,1,0,0,0,1.414,1.414L27,26.414V29a1,1,0,0,0,2,0V26.414l.293.293a1,1,0,0,0,1.414-1.414Z" data-original="#000000" class="active-path" data-old_color="#000000" fill="#FFFFFF"/><path d="M50,8a2,2,0,0,0,2-2V4h2.184a3,3,0,1,0,0-2H52a2,2,0,0,0-2,2V6H47V3a3,3,0,0,0-3-3H16a3,3,0,0,0-3,3V6H10V4A2,2,0,0,0,8,2H5.816a3,3,0,1,0,0,2H8V6a2,2,0,0,0,2,2h3v8H5.816a3,3,0,1,0,0,2H13v8H10a2,2,0,0,0-2,2v2H5.816a3,3,0,1,0,0,2H8a2,2,0,0,0,2-2V28h3v3a3,3,0,0,0,3,3H44a3,3,0,0,0,3-3V28h3v2a2,2,0,0,0,2,2h2.184a3,3,0,1,0,0-2H52V28a2,2,0,0,0-2-2H47V18h7.184a3,3,0,1,0,0-2H47V8Zm7-6a1,1,0,1,1-1,1A1,1,0,0,1,57,2ZM3,4A1,1,0,1,1,4,3,1,1,0,0,1,3,4ZM3,18a1,1,0,1,1,1-1A1,1,0,0,1,3,18ZM3,32a1,1,0,1,1,1-1A1,1,0,0,1,3,32Zm54-2a1,1,0,1,1-1,1A1,1,0,0,1,57,30Zm0-14a1,1,0,1,1-1,1A1,1,0,0,1,57,16ZM25,2H35V12.131l-1.445-.963a1,1,0,0,0-1.11,0L30,12.8l-2.445-1.63a1,1,0,0,0-1.11,0L25,12.131ZM45,31a1,1,0,0,1-1,1H16a1,1,0,0,1-1-1V3a1,1,0,0,1,1-1h7V14a1,1,0,0,0,1.555.832L27,13.2l2.445,1.63a1,1,0,0,0,1.11,0L33,13.2l2.445,1.63A1,1,0,0,0,37,14V2h7a1,1,0,0,1,1,1Z" data-original="#000000" class="active-path" data-old_color="#000000" fill="#FFFFFF"/></g> </svg>
