<svg id="Capa_1" enable-background="new 0 0 512 512" height="512" viewBox="0 0 512 512" width="512" xmlns="http://www.w3.org/2000/svg"><g><path d="m486.42 78.655h-57.179c-11.232-9.72-25.854-15.62-41.838-15.62s-30.606 5.901-41.838 15.62h-27.247c1.103-4.7 1.704-9.591 1.704-14.623 0-8.385-1.608-16.556-4.781-24.287-1.573-3.832-5.956-5.665-9.786-4.091-3.832 1.573-5.663 5.954-4.091 9.786 2.428 5.915 3.658 12.17 3.658 18.592 0 27.037-21.996 49.033-49.032 49.033-27.037 0-49.033-21.996-49.033-49.033s21.995-49.032 49.033-49.032c10.729 0 20.919 3.404 29.469 9.845 3.309 2.493 8.011 1.832 10.503-1.478 2.492-3.308 1.831-8.011-1.478-10.503-11.171-8.416-24.483-12.864-38.494-12.864-35.308 0-64.033 28.725-64.033 64.033 0 5.032.602 9.922 1.704 14.623h-27.225c-11.232-9.72-25.854-15.62-41.838-15.62-15.99 0-30.618 5.905-41.852 15.632-.079-.002-.156-.012-.236-.012h-56.93c-14.104-.001-25.58 11.474-25.58 25.579v288.72c0 14.11 11.476 25.59 25.58 25.59h179.508c4.713 20.519-1.946 38.351-19.467 51.932h-11.1c-10.553 0-19.785 5.87-22.975 14.607l-4.515 12.372c-1.211 3.318-.725 7.027 1.3 9.922 2.025 2.894 5.343 4.622 8.875 4.622h197.588c3.533 0 6.852-1.729 8.877-4.624 2.024-2.896 2.509-6.604 1.298-9.92l-4.515-12.371c-3.188-8.738-12.421-14.608-22.975-14.608h-11.1c-17.52-13.581-24.18-31.412-19.467-51.932h75.521c4.143 0 7.5-3.357 7.5-7.5s-3.357-7.5-7.5-7.5c-37.712 0-322.513 0-356.854 0-5.834 0-10.58-4.751-10.58-10.59v-55.511c442.246.001 439.041 0 482 0v55.511c0 5.839-4.746 10.59-10.58 10.59h-73.999c-4.143 0-7.5 3.357-7.5 7.5s3.357 7.5 7.5 7.5h73.999c14.104 0 25.58-11.479 25.58-25.59v-288.72c.001-14.105-11.474-25.58-25.579-25.58zm-140.057 411.572 2.472 6.773h-185.669l2.471-6.773c.862-2.36 4.19-4.75 8.884-4.75h162.959c4.694 0 8.021 2.39 8.883 4.75zm-54.781-71.682c-3.583 19.407.991 37.206 13.228 51.932h-97.619c12.237-14.726 16.811-32.524 13.228-51.932zm144.854-291.477c0 27.037-21.996 49.032-49.033 49.032-27.036 0-49.032-21.996-49.032-49.032s21.996-49.033 49.032-49.033c27.037 0 49.033 21.996 49.033 49.033zm-103.632-33.413c-2.491 4.056-4.531 8.413-6.077 12.997h-23.002c3.511-3.928 6.539-8.292 9.006-12.997zm-124.55 12.997h-22.979c-1.547-4.584-3.586-8.941-6.077-12.997h20.051c2.465 4.705 5.494 9.069 9.005 12.997zm-34.623 20.416c0 27.037-21.996 49.032-49.033 49.032-27.036 0-49.032-21.996-49.032-49.032s21.996-49.033 49.032-49.033c27.037 0 49.033 21.996 49.033 49.033zm-158.631-22.833c0-5.834 4.746-10.58 10.58-10.58h44.419c-2.491 4.056-4.531 8.413-6.077 12.997h-28.422c-4.143 0-7.5 3.358-7.5 7.5v136.58c0 4.142 3.357 7.5 7.5 7.5s7.5-3.357 7.5-7.5v-129.08h17.811c-.151 1.787-.246 3.59-.246 5.416 0 35.308 28.725 64.032 64.032 64.032s64.033-28.725 64.033-64.032c0-1.826-.095-3.628-.246-5.416h39.694c8.441 4.105 17.91 6.413 27.91 6.413 10.009 0 19.487-2.313 27.933-6.425.08.003.158.012.239.012h39.455c-.151 1.787-.246 3.59-.246 5.416 0 35.308 28.725 64.032 64.032 64.032s64.033-28.725 64.033-64.032c0-1.826-.095-3.628-.246-5.416h17.812v200.792h-426v-41.726c0-4.143-3.357-7.5-7.5-7.5s-7.5 3.357-7.5 7.5v41.726h-13zm469 218.21v-208.293c0-4.142-3.357-7.5-7.5-7.5h-28.421c-1.547-4.584-3.586-8.941-6.077-12.997h44.418c5.834 0 10.58 4.746 10.58 10.58v218.209h-13z"/><path d="m246.654 362.996c-4.143 0-7.5 3.357-7.5 7.5s3.357 7.5 7.5 7.5h18.694c4.143 0 7.5-3.357 7.5-7.5s-3.357-7.5-7.5-7.5z"/><path d="m251.626 32.11c-6.069-5.745-16.108-1.435-16.108 6.934v49.978c0 8.367 10.056 12.661 16.107 6.936l26.416-24.989c3.969-3.758 3.983-10.099 0-13.87-.001 0-.001 0-.001 0zm-1.108 44.246v-24.646l13.026 12.323z"/><path d="m376.87 160.179c10.135 0 18.347-8.669 17.448-19.049.149-1.093.044.721.077-31.922 4.217.77 5.64 3.125 7.146 5.618 2.142 3.545 6.728 4.643 10.272 2.5 3.545-2.142 4.659-6.792 2.518-10.337-2.683-4.441-8.956-14.841-28.244-12.752-3.807.413-6.691 3.627-6.691 7.457v23.638c-10.82-1.573-20.05 6.882-20.05 17.322 0 9.663 7.861 17.525 17.524 17.525zm0-20.051c1.393 0 2.525 1.133 2.525 2.525s-1.133 2.525-2.525 2.525-2.524-1.133-2.524-2.525 1.133-2.525 2.524-2.525z"/><path d="m330.87 313.033c35.308 0 64.032-28.725 64.032-64.033s-28.725-64.032-64.032-64.032-64.033 28.724-64.033 64.032 28.726 64.033 64.033 64.033zm0-113.065c27.036 0 49.032 21.996 49.032 49.032s-21.996 49.033-49.032 49.033c-27.037 0-49.033-21.996-49.033-49.033s21.996-49.032 49.033-49.032z"/><path d="m321.8 275.287h42.532c2.822 0 5.405-1.584 6.685-4.1 1.279-2.515 1.039-5.535-.622-7.816l-21.266-29.194c-1.412-1.938-3.665-3.084-6.063-3.084s-4.65 1.146-6.063 3.084l-6.134 8.42-6.134-8.42c-1.412-1.938-3.665-3.084-6.063-3.084s-4.65 1.146-6.063 3.084l-21.266 29.194c-1.661 2.281-1.901 5.302-.622 7.816 1.279 2.516 3.862 4.1 6.685 4.1zm27.79-15h-13.048l.331-.455c.013-.018.026-.036.04-.054l6.154-8.448zm-30.916-8.957 2.917 4.005-3.607 4.952h-5.833z"/><path d="m353.363 229.767c4.143 0 7.5-3.358 7.5-7.5v-.053c0-4.142-3.357-7.473-7.5-7.473s-7.5 3.384-7.5 7.526 3.357 7.5 7.5 7.5z"/><path d="m109.045 113.25h31.106c4.143 0 7.5-3.358 7.5-7.5s-3.357-7.5-7.5-7.5h-31.106c-4.143 0-7.5 3.358-7.5 7.5s3.358 7.5 7.5 7.5z"/><path d="m109.045 134.568h31.106c4.143 0 7.5-3.358 7.5-7.5s-3.357-7.5-7.5-7.5h-31.106c-4.143 0-7.5 3.358-7.5 7.5s3.358 7.5 7.5 7.5z"/><path d="m109.045 155.886h31.106c4.143 0 7.5-3.358 7.5-7.5s-3.357-7.5-7.5-7.5h-31.106c-4.143 0-7.5 3.358-7.5 7.5s3.358 7.5 7.5 7.5z"/><path d="m181.131 313.033c35.308 0 64.032-28.725 64.032-64.033s-28.725-64.032-64.032-64.032-64.033 28.724-64.033 64.032 28.725 64.033 64.033 64.033zm0-113.065c27.036 0 49.032 21.996 49.032 49.032s-21.996 49.033-49.032 49.033c-27.037 0-49.033-21.996-49.033-49.033s21.996-49.032 49.033-49.032z"/><path d="m156.578 241.677c4.143 0 7.5-3.358 7.5-7.5v-3.227h9.553v43.602c0 4.143 3.357 7.5 7.5 7.5s7.5-3.357 7.5-7.5v-43.602h9.553v3.227c0 4.142 3.357 7.5 7.5 7.5s7.5-3.358 7.5-7.5v-10.727c0-4.142-3.357-7.5-7.5-7.5h-49.105c-4.143 0-7.5 3.358-7.5 7.5v10.727c-.001 4.142 3.357 7.5 7.499 7.5z"/></g></svg>