<svg height="496pt" viewBox="-32 0 496 496.00935" width="496pt" xmlns="http://www.w3.org/2000/svg">
    <path fill="#FFFFFF" d="m137.972656 98.679688c-15.128906 5.714843-25.96875 20.226562-25.96875 37.328124 0 6.585938 1.753906 12.714844 4.585938 18.203126-12 4.613281-20.585938 16.183593-20.585938 29.796874 0 13.617188 8.585938 25.183594 20.585938 29.800782-2.832032 5.488281-4.585938 11.617187-4.585938 18.199218 0 17.105469 10.839844 31.617188 25.96875 37.328126-1.199218 3.351562-1.96875 6.914062-1.96875 10.671874 0 17.648438 14.351563 32 32 32 3.984375 0 7.761719-.824218 11.28125-2.152343 5.183594 10.699219 16.054688 18.152343 28.71875 18.152343 17.648438 0 32-14.351562 32-32v-224c0-17.644531-14.351562-32-32-32-12.664062 0-23.535156 7.457032-28.71875 18.152344-3.519531-1.328125-7.296875-2.152344-11.28125-2.152344-17.648437 0-32 14.355469-32 32 0 3.761719.769532 7.320313 1.96875 10.671876zm30.03125-26.671876c8.824219 0 16 7.175782 16 16h16c0-7.6875-2.839844-14.664062-7.375-20.183593 1.855469-6.78125 8.007813-11.816407 15.375-11.816407 8.824219 0 16 7.175782 16 16v224c0 8.824219-7.175781 16-16 16-7.367187 0-13.519531-5.03125-15.375-11.816406 4.535156-5.519531 7.375-12.492187 7.375-20.183594h-16c0 8.824219-7.175781 16-16 16-8.824218 0-16-7.175781-16-16 0-8.824218 7.175782-16 16-16v-16c-7.792968 0-14.847656 2.914063-20.398437 7.554688-11.136719-2.074219-19.601563-11.824219-19.601563-23.554688 0-13.230468 10.769532-24 24-24 13.234375 0 24 10.769532 24 24h16c0-22.054687-17.941406-40-40-40-9.039062 0-17.296875 3.128907-24 8.210938v-.210938c-8.824218 0-16-7.175781-16-16 0-8.824218 7.175782-16 16-16v-.207031c6.703125 5.082031 14.960938 8.207031 24 8.207031 22.058594 0 40-17.941406 40-40h-16c0 13.234376-10.765625 24-24 24-13.230468 0-24-10.765624-24-24 0-11.726562 8.464844-21.476562 19.601563-23.550781 5.550781 4.640625 12.605469 7.550781 20.398437 7.550781v-16c-8.824218 0-16-7.175781-16-16 0-8.824218 7.175782-16 16-16zm0 0" />
    <path fill="#FFFFFF" d="m328.003906 56.007812c-3.984375 0-7.757812.824219-11.277344 2.152344-5.1875-10.695312-16.058593-18.152344-28.722656-18.152344-17.648437 0-32 14.355469-32 32v224c0 17.648438 14.351563 32 32 32 12.664063 0 23.535156-7.453124 28.722656-18.152343 3.519532 1.328125 7.292969 2.152343 11.277344 2.152343 17.648438 0 32-14.351562 32-32 0-3.757812-.765625-7.320312-1.96875-10.671874 15.128906-5.710938 25.96875-20.222657 25.96875-37.328126 0-6.582031-1.75-12.710937-4.582031-18.199218 12-4.617188 20.582031-16.183594 20.582031-29.800782 0-13.613281-8.582031-25.183593-20.582031-29.796874 2.832031-5.488282 4.582031-11.617188 4.582031-18.203126 0-17.101562-10.839844-31.613281-25.96875-37.328124 1.203125-3.351563 1.96875-6.910157 1.96875-10.671876 0-17.644531-14.351562-32-32-32zm40 80c0 13.234376-10.765625 24-24 24-13.230468 0-24-10.765624-24-24h-16c0 22.058594 17.945313 40 40 40 9.039063 0 17.296875-3.125 24-8.207031v.207031c8.824219 0 16 7.175782 16 16 0 8.824219-7.175781 16-16 16v.210938c-6.703125-5.082031-14.960937-8.210938-24-8.210938-22.054687 0-40 17.945313-40 40h16c0-13.230468 10.769532-24 24-24 13.234375 0 24 10.769532 24 24 0 11.730469-8.464844 21.480469-19.597656 23.554688-5.554688-4.640625-12.609375-7.554688-20.402344-7.554688v16c8.824219 0 16 7.175782 16 16 0 8.824219-7.175781 16-16 16-8.824218 0-16-7.175781-16-16h-16c0 7.691407 2.839844 14.664063 7.375 20.183594-1.855468 6.785156-8.007812 11.816406-15.375 11.816406-8.824218 0-16-7.175781-16-16v-224c0-8.824218 7.175782-16 16-16 7.367188 0 13.519532 5.035157 15.375 11.816407-4.535156 5.519531-7.375 12.496093-7.375 20.183593h16c0-8.824218 7.175782-16 16-16 8.824219 0 16 7.175782 16 16 0 8.824219-7.175781 16-16 16v16c7.792969 0 14.847656-2.910156 20.402344-7.550781 11.132812 2.074219 19.597656 11.824219 19.597656 23.550781zm0 0" />
    <path fill="#FFFFFF" d="m373.980469 49.898438c-37.382813-35.136719-86.34375-52.753907-137.726563-49.519532l.992188 15.964844c46.949218-2.917969 91.636718 13.136719 125.78125 45.210938 34.160156 32.101562 52.976562 75.597656 52.976562 122.453124 0 56.464844-28.144531 108.824219-75.289062 140.066407-16.261719 10.78125-28.566406 26.160156-36.148438 43.933593h-113.457031c-7.6875-17.902343-20.039063-33.390624-36.328125-44.269531-48.585938-32.472656-76.503906-86.703125-74.6875-145.089843l-15.992188-.496094c-1.992187 63.9375 28.589844 123.335937 81.792969 158.882812 11.75 7.855469 21.132813 18.550782 27.671875 30.972656h-21.5625v16h27.945313c1.550781 5.183594 2.792969 10.496094 3.421875 16h-15.367188v16h16v24c0 4.425782 3.585938 8 8 8h8c0 26.472657 21.527344 48 48 48s48-21.527343 48-48h8c4.417969 0 8-3.574218 8-8v-24h16v-16h-15.4375c.566406-5.496093 1.695313-10.824218 3.214844-16h28.222656v-16h-21.910156c6.445312-12.285156 15.773438-22.847656 27.464844-30.589843 51.621094-34.234375 82.445312-91.578125 82.445312-153.410157 0-50.574218-21.152344-99.460937-58.023437-134.109374zm-125.976563 430.109374c-17.648437 0-32-14.351562-32-32h64c0 17.648438-14.351562 32-32 32zm48-48h-96v-16h96zm.570313-32h-97.210938c-.535156-5.445312-1.398437-10.796874-2.710937-16h102.410156c-1.273438 5.195313-2.011719 10.570313-2.488281 16zm0 0" />
    <path fill="#FFFFFF" d="m56.003906 56.007812c17.648438 0 32 14.355469 32 32 0 4.425782 3.585938 8 8 8 4.417969 0 8-3.574218 8-8 0-17.644531 14.351563-32 32-32 4.417969 0 8-3.574218 8-8 0-4.421874-3.582031-8-8-8-17.648437 0-32-14.351562-32-32 0-4.421874-3.582031-7.9999995-8-7.9999995-4.414062 0-8 3.5781255-8 7.9999995 0 17.648438-14.351562 32-32 32-4.414062 0-8 3.578126-8 8 0 4.425782 3.585938 8 8 8zm40-21.496093c3.554688 5.34375 8.152344 9.945312 13.496094 13.496093-5.34375 3.554688-9.941406 8.152344-13.496094 13.496094-3.550781-5.34375-8.152344-9.941406-13.496094-13.496094 5.34375-3.550781 9.945313-8.152343 13.496094-13.496093zm0 0" />
    <path fill="#FFFFFF" d="m88.003906 136.007812c4.417969 0 8-3.574218 8-8 0-4.421874-3.582031-8-8-8-17.648437 0-32-14.351562-32-32 0-4.421874-3.582031-8-8-8-4.414062 0-8 3.578126-8 8 0 17.648438-14.351562 32-32 32-4.414062 0-7.99999975 3.578126-7.99999975 8 0 4.425782 3.58593775 8 7.99999975 8 17.648438 0 32 14.355469 32 32 0 4.425782 3.585938 8 8 8 4.417969 0 8-3.574218 8-8 0-17.644531 14.351563-32 32-32zm-40 5.496094c-3.550781-5.34375-8.152344-9.941406-13.496094-13.496094 5.34375-3.550781 9.9375-8.152343 13.496094-13.496093 3.554688 5.34375 8.152344 9.9375 13.496094 13.496093-5.34375 3.554688-9.941406 8.152344-13.496094 13.496094zm0 0" />
</svg>