<?xml version="1.0"?>
<svg xmlns="http://www.w3.org/2000/svg" viewBox="0 0 64 64" width="512" height="512">
    <g id="Outline">
        <g>
            <path fill="#FFFFFF" d="M11,40H22.382l-2,4H17a3,3,0,0,0-3,3v2a1,1,0,0,0,1,1H49a1,1,0,0,0,1-1V47a3,3,0,0,0-3-3H43.618l-2-4H54a5.006,5.006,0,0,0,5-5V30a1,1,0,0,0-2,0v5a3,3,0,0,1-3,3H53V25a1,1,0,0,0-2,0V38H49V18h2v3a1,1,0,0,0,2,0V17c0-.013-.007-.024-.008-.038a.983.983,0,0,0-.063-.333l-.008-.018h0L48.929,6.629a1,1,0,0,0-1.858,0L43.079,16.61h0l-.008.018a.983.983,0,0,0-.063.333c0,.014-.008.025-.008.038V35a1,1,0,0,0,2,0V18h2V38H38V33.816a2.978,2.978,0,0,0,.429-5.437L39.9,25.447a1,1,0,0,0,.034-.818l-4-10A1,1,0,0,0,35,14H32a1,1,0,0,0-1,1v6.184a3,3,0,1,0,2,0V16h1.323l3.582,8.954L36.382,28H27.618L26.1,24.954l3.834-9.583a1,1,0,1,0-1.858-.742l-4,10a1,1,0,0,0,.034.818l1.466,2.932A2.978,2.978,0,0,0,26,33.816V38H20.087L21,27.083c0-.015-.006-.027,0-.042S21,27.015,21,27V23a.977.977,0,0,0-.151-.5A5.9,5.9,0,0,0,22,19c0-1.515-.863-2.438-1.776-3.417A10.834,10.834,0,0,1,16.99,8.858a1.339,1.339,0,0,0-1.38-1.325C13.381,7.692,10,16.983,10,19a5.9,5.9,0,0,0,1.151,3.5A.977.977,0,0,0,11,23v4a1,1,0,0,0,1,1h6.913L18.08,38H13.92l-.59-7.083a1,1,0,0,0-1.993.166L11.913,38H11a4,4,0,0,1-4-4V24a1,1,0,0,0-2,0V34A6.006,6.006,0,0,0,11,40ZM48.923,12H47.077L48,9.692Zm-2.646,2h3.446l.8,2H45.477ZM32,25a1,1,0,1,1,1-1A1,1,0,0,1,32,25ZM15.251,10.485a12.405,12.405,0,0,0,3.511,6.462C19.6,17.844,20,18.305,20,19a3.951,3.951,0,0,1-1.378,3H13.378A3.951,3.951,0,0,1,12,19C12,17.255,13.985,12.61,15.251,10.485ZM13,24h6v2H13ZM48,47v1H16V47a1,1,0,0,1,1-1H47A1,1,0,0,1,48,47ZM37,30a1,1,0,0,1,0,2H27a1,1,0,0,1,0-2Zm-9,4h8v4H28Zm11.382,6,2,4H22.618l2-4Z" />
            <path fill="#FFFFFF" d="M6,21a1,1,0,0,0,1-1V7a3,3,0,0,1,3-3H54a3,3,0,0,1,3,3V26a1,1,0,0,0,2,0V7a5.006,5.006,0,0,0-5-5H10A5.006,5.006,0,0,0,5,7V20A1,1,0,0,0,6,21Z" />
            <path fill="#FFFFFF" d="M49.8,54l.2,3.064A1,1,0,0,0,51,58a.983.983,0,0,0,.442-.1l3.233-1.6a1.006,1.006,0,0,0,.423-.4l6.5-11.258a3,3,0,1,0-5.2-3L50.422,52H41a1,1,0,0,0-1,1v8a1,1,0,0,0,1,1H60a1,1,0,0,0,1-1V53a1,1,0,0,0-2,0v7H47V54Zm8.33-11.356a1,1,0,1,1,1.732,1l-6.349,11-1.616.8-.116-1.8ZM45,60H42V54h3Z" />
            <path fill="#FFFFFF" d="M34,52H6a1,1,0,0,0-1,1v8a1,1,0,0,0,1,1H34a1,1,0,0,0,1-1V53A1,1,0,0,0,34,52Zm-1,4H31V54h2Zm-4,0H27V54h2Zm-4,0H23V54h2Zm-4,0H19V54h2Zm-4,0H15V54h2Zm-4,0H11V54h2ZM7,54H9v2H7Zm0,4H9v2H7Zm4,0h2v2H11Zm4,0H25v2H15Zm12,0h2v2H27Zm6,2H31V58h2Z" />
        </g>
    </g>
</svg>
