<svg id="Layer_1" enable-background="new 0 0 512 512" height="512" viewBox="0 0 512 512" width="512" xmlns="http://www.w3.org/2000/svg">
    <g>
        <g>
            <path fill="#FFFFFF"  d="m490.5 409.999h-15.023c1.927-3.756 3.023-8.006 3.023-12.51l-.01-259.994c0-15.163-12.337-27.5-27.5-27.5h-40.49v-9.16c0-7.223-5.876-13.1-13.1-13.1h-12.413v-37.635c0-4.229-2.057-8.218-5.501-10.672-3.445-2.453-7.887-3.093-11.885-1.71l-23.624 8.169c-3.914 1.354-5.99 5.624-4.637 9.539 1.354 3.914 5.621 5.995 9.539 4.637l21.107-7.299v180.379l-106.486 36.825v-180.379l55.137-19.067c3.915-1.354 5.99-5.624 4.637-9.539-1.354-3.914-5.62-5.993-9.539-4.637l-57.735 19.965-111.601-38.593c-3.998-1.384-8.44-.743-11.885 1.71-3.444 2.454-5.501 6.443-5.501 10.672v37.634h-12.413c-7.224 0-13.1 5.877-13.1 13.1v9.17h-40.5c-15.164 0-27.5 12.337-27.5 27.5l.001 26.671c0 4.143 3.358 7.5 7.5 7.5s7.5-3.358 7.5-7.5l-.001-26.67c0-6.893 5.607-12.5 12.5-12.5h40.5v15h-30.5c-1.989 0-3.897.79-5.303 2.197-1.407 1.406-2.197 3.314-2.197 5.303l.01 239.994c0 4.143 3.358 7.5 7.5 7.5l369.99-.01c1.989 0 3.897-.79 5.304-2.197 1.406-1.406 2.196-3.314 2.196-5.303l-.01-239.994c0-4.143-3.358-7.5-7.5-7.5h-30.49v-15h40.49c6.893 0 12.5 5.607 12.5 12.5l.01 259.994c0 6.893-5.607 12.5-12.5 12.5l-389.99.01c-6.893 0-12.5-5.607-12.5-12.5l-.007-201.23c0-4.143-3.358-7.5-7.5-7.5s-7.5 3.358-7.5 7.5l.007 201.23c0 4.5 1.093 8.747 3.018 12.5h-15.028c-11.855 0-21.5 9.645-21.5 21.5v22c0 11.856 9.645 21.501 21.5 21.501h298.181c4.143 0 7.5-3.357 7.5-7.5s-3.357-7.5-7.5-7.5h-298.181c-3.584 0-6.5-2.916-6.5-6.5v-22c0-3.584 2.916-6.5 6.5-6.5h184v5.27c0 10.328 8.403 18.731 18.731 18.731h63.539c10.328 0 18.73-8.402 18.73-18.731v-5.27h184c3.584 0 6.5 2.916 6.5 6.5v22c0 3.584-2.916 6.5-6.5 6.5h-138.075c-4.143 0-7.5 3.357-7.5 7.5s3.357 7.5 7.5 7.5h138.075c11.855 0 21.5-9.645 21.5-21.5v-22c0-11.856-9.645-21.501-21.5-21.501zm-114.331-163.123c5.274-1.825 8.818-6.801 8.818-12.381v-131.76h10.513v170.262h-94.864zm-234.156-194.112 106.487 36.825v180.379l-106.487-36.825zm-25.513 49.971h10.513v131.761c0 5.58 3.544 10.556 8.82 12.382l75.531 26.12h-94.864zm316.99 52.26.01 224.994-354.991.01-.009-224.994h23v119.892c0 7.223 5.876 13.1 13.1 13.1h282.8c7.224 0 13.1-5.877 13.1-13.1v-119.902zm-141.99 275.274c0 2.057-1.674 3.731-3.73 3.731h-63.539c-2.057 0-3.731-1.674-3.731-3.731v-5.27h71z" />
            <path fill="#FFFFFF"  d="m354.512 309.387h-197.023c-4.142 0-7.5 3.357-7.5 7.5s3.358 7.5 7.5 7.5h197.023c4.143 0 7.5-3.357 7.5-7.5s-3.358-7.5-7.5-7.5z" />
            <path fill="#FFFFFF"  d="m285.263 341.202h-127.774c-4.142 0-7.5 3.357-7.5 7.5s3.358 7.5 7.5 7.5h127.774c4.143 0 7.5-3.357 7.5-7.5s-3.358-7.5-7.5-7.5z" />
        </g>
    </g>
</svg>