<?xml version="1.0" encoding="iso-8859-1"?>
<!-- Generator: Adobe Illustrator 19.0.0, SVG Export Plug-In . SVG Version: 6.00 Build 0)  -->
<svg version="1.1" id="Capa_1" xmlns="http://www.w3.org/2000/svg" xmlns:xlink="http://www.w3.org/1999/xlink" x="0px" y="0px"
	 viewBox="0 0 511.999 511.999" style="enable-background:new 0 0 511.999 511.999;" xml:space="preserve">
<path style="fill:#E1E2EC;" d="M509.164,249.852c-0.365-0.304-37.02-30.725-85.959-60.687
	c-66.315-40.601-122.571-61.188-167.206-61.188s-100.891,20.587-167.206,61.188c-48.939,29.963-85.595,60.383-85.959,60.687
	c-3.78,3.15-3.78,9.144,0,12.293c0.365,0.304,37.02,30.725,85.959,60.687c66.315,40.601,122.571,61.188,167.206,61.188
	s100.891-20.587,167.206-61.188c48.939-29.963,85.595-60.383,85.959-60.687C512.943,258.997,512.944,253.002,509.164,249.852z"/>
<path style="fill:#C5C7DA;" d="M439.164,306.831c-66.315,40.601-122.571,61.188-167.206,61.188s-100.891-20.587-167.206-61.188
	c-48.939-29.963-85.595-60.383-85.959-60.687c-2.049-1.707-2.978-4.25-2.804-6.723c-8.263,6.376-13.023,10.324-13.153,10.433
	c-3.78,3.15-3.78,9.144,0,12.293c0.365,0.304,37.02,30.725,85.959,60.687C155.11,363.435,211.366,384.021,256,384.021
	s100.891-20.587,167.206-61.188c48.939-29.963,85.595-60.383,85.959-60.687c1.73-1.442,2.659-3.482,2.804-5.57
	C497.048,268.089,470.659,287.548,439.164,306.831z"/>
<path style="fill:#49B9DE;" d="M255.999,151.982c-57.356,0-104.018,46.662-104.018,104.018s46.662,104.018,104.018,104.018
	s104.018-46.662,104.018-104.018S313.355,151.982,255.999,151.982z"/>
<path style="fill:#4296BD;" d="M272.002,352.016c-57.356,0-104.018-46.662-104.018-104.018c0-37.518,19.968-70.459,49.835-88.758
	c-38.522,15.254-65.837,52.876-65.837,96.76c0,57.356,46.662,104.018,104.018,104.018c19.836,0,38.393-5.585,54.183-15.26
	C298.357,349.441,285.474,352.016,272.002,352.016z"/>
<circle style="fill:#BEE4FA;" cx="304.012" cy="191.992" r="16.003"/>
<g>
	<path style="fill:#F6D45A;" d="M247.998,215.993c-4.419,0-8.001,3.583-8.001,8.001v24.004h-24.004v-24.004
		c0-4.419-3.583-8.001-8.001-8.001s-8.001,3.583-8.001,8.001v64.011c0,4.419,3.583,8.001,8.001,8.001s8.001-3.583,8.001-8.001
		v-24.004h24.004v24.004c0,4.419,3.583,8.001,8.001,8.001s8.001-3.583,8.001-8.001v-64.011
		C255.999,219.574,252.417,215.993,247.998,215.993z"/>
	<path style="fill:#F6D45A;" d="M272.002,296.006c-4.419,0-8.001-3.583-8.001-8.001v-64.011c0-4.419,3.583-8.001,8.001-8.001
		c0.471,0,11.672,0.052,22.975,4.573c16.143,6.457,25.033,19.041,25.033,35.434c0,16.393-8.891,28.977-25.033,35.434
		C283.674,295.954,272.473,296.006,272.002,296.006z M280.003,232.873v46.302c9.493-1.716,24.004-6.987,24.004-23.176
		c0-9.815-4.898-16.545-14.974-20.576C285.907,234.173,282.743,233.379,280.003,232.873z"/>
</g>
<g>
</g>
<g>
</g>
<g>
</g>
<g>
</g>
<g>
</g>
<g>
</g>
<g>
</g>
<g>
</g>
<g>
</g>
<g>
</g>
<g>
</g>
<g>
</g>
<g>
</g>
<g>
</g>
<g>
</g>
</svg>
