<svg height="512" viewBox="0 0 512 512" width="512" xmlns="http://www.w3.org/2000/svg"><circle cx="256" cy="218.44" r="16"/><path d="m278.524 129.416-12.924-64.616a1 1 0 0 0 -.98-.8h-17.242a1 1 0 0 0 -.98.8l-12.922 64.612a43.632 43.632 0 0 1 -5.8 14.584h56.65a43.624 43.624 0 0 1 -5.802-14.58z"/><path d="m216 160h80v16h-80z"/><path d="m456 32h-400a24.028 24.028 0 0 0 -24 24v264h448v-264a24.028 24.028 0 0 0 -24-24zm-392 240h-16v-16h16zm0-80h-16v-16h16zm0-80h-16v-16h16zm368 0h-40v40a8 8 0 0 1 -8 8h-24v16h72v16h-101.822l7.5 1.788a8 8 0 0 1 6.143 7.694l.072 6.518h40.107a8 8 0 0 1 8 8v40h40v16h-48a8 8 0 0 1 -8-8v-40h-31.934l.1 9.482a8 8 0 0 1 -5.976 7.828l-25.42 6.644q-.98 1.892-2.084 3.715l7.5 25.178a8 8 0 0 1 -3.592 9.167l-27.54 16.3a8 8 0 0 1 -9.766-1.262l-18.453-18.681q-2.129.093-4.267.044l-18.057 19.085a8 8 0 0 1 -9.735 1.472l-27.89-15.7a8 8 0 0 1 -3.791-9.089l6.951-25.321c-.395-.618-.772-1.233-1.134-1.85q-.531-.9-1.039-1.826l-25.549-6.093a8 8 0 0 1 -6.143-7.7l-.125-11.4h-32.056v40a8 8 0 0 1 -8 8h-48v-15.993h40v-40a8 8 0 0 1 8-8h39.881l-.05-4.6a8 8 0 0 1 5.974-7.827l13.643-3.573h-107.448v-16h72v-16h-24a8 8 0 0 1 -8-8v-40h-40v-16h48a8 8 0 0 1 8 8v40h17.459a87.981 87.981 0 0 1 75.031-71.243l2.218-11.091a17.047 17.047 0 0 1 16.67-13.666h17.244a17.047 17.047 0 0 1 16.67 13.666l2.218 11.091a87.98 87.98 0 0 1 75.031 71.243h17.459v-40a8 8 0 0 1 8-8h48zm32 160h-16v-16h16zm0-80h-16v-16h16zm0-80h-16v-16h16z"/><path d="m217.786 126.277 7.347-36.734a71.567 71.567 0 0 0 -25.133 10.593v35.864h-16v-21.214a72.238 72.238 0 0 0 -14.188 29.214h35.959a27.568 27.568 0 0 0 12.015-17.723z"/><circle cx="256" cy="400" r="16"/><path d="m208 384a128.909 128.909 0 0 1 -17.17 64h130.34a128.909 128.909 0 0 1 -17.17-64h-20.3a32 32 0 1 1 -55.39 0z"/><path d="m306.229 144h35.959a72.208 72.208 0 0 0 -14.188-29.213v21.213h-16v-35.864a71.543 71.543 0 0 0 -25.133-10.593l7.347 36.735a27.569 27.569 0 0 0 12.015 17.722z"/><path d="m352 464h-192a8.009 8.009 0 0 0 -8 8v8h208v-8a8.009 8.009 0 0 0 -8-8z"/><path d="m168 160h32v16h-32z"/><path d="m32 344a24.028 24.028 0 0 0 24 24h400a24.028 24.028 0 0 0 24-24v-8h-448z"/><path d="m304.824 202.4a8 8 0 0 1 -5.38-4.369c-.643-1.366-1.368-2.735-2.152-4.072q-.571-.964-1.236-1.961h-22.056a32 32 0 1 1 -36 0h-22.04a48.272 48.272 0 0 0 -3.812 6.958 8 8 0 0 1 -5.291 4.5l-22.957 6.012.214 19.51 23.064 5.5a8 8 0 0 1 5.38 4.37c.648 1.374 1.368 2.734 2.141 4.042.733 1.248 1.553 2.492 2.518 3.822a8 8 0 0 1 1.24 6.816l-6.277 22.865 17 9.572 16.307-17.234a7.987 7.987 0 0 1 6.49-2.472 47.754 47.754 0 0 0 9.1-.093 8.012 8.012 0 0 1 6.543 2.332l16.659 16.866 16.789-9.937-6.768-22.727a8 8 0 0 1 1.092-6.839 48.418 48.418 0 0 0 4.459-7.952 8 8 0 0 1 5.293-4.5l22.955-6-.213-19.507z"/><path d="m312 160h32v16h-32z"/></svg>