<?xml version="1.0" encoding="iso-8859-1"?>
<!-- Generator: Adobe Illustrator 19.0.0, SVG Export Plug-In . SVG Version: 6.00 Build 0)  -->
<svg version="1.1" id="Capa_1" xmlns="http://www.w3.org/2000/svg" xmlns:xlink="http://www.w3.org/1999/xlink" x="0px" y="0px"
	 viewBox="0 0 512 512" style="enable-background:new 0 0 512 512;" xml:space="preserve">
<path style="fill:#E1E2EC;" d="M448,168H64c-22.056,0-40,17.944-40,40v232c0,4.418,3.582,8,8,8h448c4.418,0,8-3.582,8-8V208
	C488,185.944,470.056,168,448,168z"/>
<path style="fill:#C5C7DA;" d="M40,440V208c0-22.056,17.944-40,40-40H64c-22.056,0-40,17.944-40,40v232c0,4.418,3.582,8,8,8h16
	C43.582,448,40,444.418,40,440z"/>
<path style="fill:#60CDEA;" d="M448,168H64c-22.091,0-40,17.909-40,40v16h464v-16C488,185.909,470.091,168,448,168z"/>
<path style="fill:#49B9DE;" d="M80,168H64c-22.091,0-40,17.909-40,40v16h16v-16C40,185.909,57.909,168,80,168z"/>
<path style="fill:#60CDEA;" d="M504,433H8c-4.418,0-8,3.582-8,8c0,21.505,17.495,39,39,39h434c21.505,0,39-17.495,39-39
	C512,436.582,508.418,433,504,433z"/>
<path style="fill:#49B9DE;" d="M24,441c0-4.418,3.582-8,8-8H8c-4.418,0-8,3.582-8,8c0,21.505,17.495,39,39,39h24
	C41.495,480,24,462.505,24,441z"/>
<g>
	<path style="fill:#4296BD;" d="M264,208h-16c-4.418,0-8-3.582-8-8s3.582-8,8-8h16c4.418,0,8,3.582,8,8S268.418,208,264,208z"/>
	<path style="fill:#4296BD;" d="M272,464h-32c-4.418,0-8-3.582-8-8s3.582-8,8-8h32c4.418,0,8,3.582,8,8S276.418,464,272,464z"/>
</g>
<g>
	<path style="fill:#C5C7DA;" d="M176,408h-64c-4.418,0-8-3.582-8-8s3.582-8,8-8h64c4.418,0,8,3.582,8,8S180.418,408,176,408z" />
	<path style="fill:#C5C7DA;" d="M144,408c-4.418,0-8-3.582-8-8v-32c0-4.418,3.582-8,8-8s8,3.582,8,8v32
		C152,404.418,148.418,408,144,408z"/>
</g>
<g>
	<path style="fill:#8B8FB5;" d="M208,256H80c-8.837,0-16,7.163-16,16v88c0,8.837,7.163,16,16,16h128c8.837,0,16-7.163,16-16v-88
		C224,263.163,216.837,256,208,256z"/>
	<path style="fill:#8B8FB5;" d="M80,256c-8.836,0-16,7.164-16,16v88c0,8.836,7.164,16,16,16h6.667l120-120H80z"/>
	<polygon style="fill:#8B8FB5;" points="134,376 167.333,376 224,319.333 224,286 	"/>
	<path style="fill:#8B8FB5;" d="M183.333,376H208c8.836,0,16-7.164,16-16v-24.667L183.333,376z"/>
</g>
<g>
	<path style="fill:#C5C7DA;" d="M208,256H80c-8.837,0-16,7.163-16,16v8h160v-8C224,263.163,216.837,256,208,256z" />
	<path style="fill:#C5C7DA;" d="M432,256h-64c-8.837,0-16,7.163-16,16v120c0,8.837,7.163,16,16,16h64c8.837,0,16-7.163,16-16V272
		C448,263.163,440.837,256,432,256z"/>
</g>
<g>
	<rect x="352" y="280" style="fill:#8B8FB5;" width="96" height="104"/>
	<polygon style="fill:#8B8FB5;" points="352,280 352,365.333 437.333,280 	"/>
	<polygon style="fill:#8B8FB5;" points="404,384 448,340 448,294.667 358.667,384 	"/>
	<polygon style="fill:#8B8FB5;" points="448,384 448,355.333 419.333,384 	"/>
</g>
<path style="fill:#C5C7DA;" d="M325.657,322.343l-16-16c-3.125-3.124-8.189-3.124-11.314,0c-3.124,3.124-3.124,8.189,0,11.313
	l2.343,2.343h-25.372l2.343-2.343c3.124-3.124,3.124-8.189,0-11.313c-3.125-3.124-8.189-3.124-11.314,0l-16,16
	c-3.124,3.124-3.124,8.189,0,11.313l16,16c3.083,3.082,8.231,3.082,11.314,0c3.124-3.124,3.124-8.189,0-11.313L275.314,336h25.372
	l-2.343,2.343c-3.124,3.124-3.124,8.189,0,11.313c3.083,3.082,8.231,3.082,11.314,0l16-16
	C328.781,330.533,328.781,325.467,325.657,322.343z"/>
<g>
	<path style="fill:#F6D45A;" d="M346.51,85.49c-2.048,0-4.095-0.781-5.656-2.343C318.188,60.482,288.053,48,256,48
		s-62.188,12.482-84.854,35.147c-3.123,3.125-8.188,3.125-11.313,0c-3.124-3.125-3.124-8.189,0.001-11.314
		C185.521,46.146,219.674,32,256,32s70.479,14.146,96.166,39.833C357.092,76.758,353.506,85.49,346.51,85.49z"/>
	<path style="fill:#F6D45A;" d="M278.627,153.373c-2.048,0-4.095-0.781-5.656-2.343C268.437,146.497,262.41,144,256,144
		s-12.437,2.497-16.971,7.03c-3.123,3.124-8.188,3.124-11.313,0c-3.124-3.125-3.124-8.19,0.001-11.314
		C235.271,132.161,245.316,128,256,128c10.684,0,20.729,4.161,28.283,11.715c3.125,3.124,3.125,8.189,0.001,11.314
		C282.722,152.591,280.675,153.373,278.627,153.373z"/>
	<path style="fill:#F6D45A;" d="M312.568,119.432c-2.048,0-4.095-0.781-5.657-2.343C293.313,103.489,275.232,96,256,96
		s-37.313,7.489-50.911,21.088c-3.125,3.124-8.189,3.125-11.314,0c-3.124-3.124-3.124-8.189,0-11.313
		C210.396,89.154,232.494,80,256,80s45.604,9.154,62.226,25.775C323.151,110.7,319.563,119.432,312.568,119.432z"/>
</g>
<g>
</g>
<g>
</g>
<g>
</g>
<g>
</g>
<g>
</g>
<g>
</g>
<g>
</g>
<g>
</g>
<g>
</g>
<g>
</g>
<g>
</g>
<g>
</g>
<g>
</g>
<g>
</g>
<g>
</g>
</svg>
