<?xml version="1.0"?>
<svg xmlns="http://www.w3.org/2000/svg" xmlns:xlink="http://www.w3.org/1999/xlink" version="1.1" id="Capa_1" x="0px" y="0px" viewBox="0 0 512 512" style="enable-background:new 0 0 512 512;" xml:space="preserve" width="512px" height="512px" class=""><g><g>
	<g>
		<path d="M278.333,459h-44.166c-5.522,0-10,4.478-10,10c0,5.522,4.478,10,10,10h44.166c5.522,0,10-4.478,10-10    C288.333,463.478,283.856,459,278.333,459z" data-original="#000000" class="active-path" data-old_color="#000000" fill="#FFFFFF"/>
	</g>
</g><g>
	<g>
		<path d="M359.07,75.321c-1.859-1.859-4.439-2.93-7.069-2.93s-5.21,1.07-7.07,2.93s-2.93,4.44-2.93,7.07    c0,2.641,1.069,5.21,2.93,7.07c1.86,1.87,4.44,2.93,7.07,2.93s5.209-1.059,7.069-2.93c1.86-1.86,2.931-4.44,2.931-7.07    S360.931,77.19,359.07,75.321z" data-original="#000000" class="active-path" data-old_color="#000000" fill="#FFFFFF"/>
	</g>
</g><g>
	<g>
		<path d="M502,153.988c5.522,0,10-4.478,10-10V82.394c0-3.904-2.243-7.278-5.506-8.924c-0.049-0.027-0.093-0.055-0.147-0.082    l-150-72.394c-2.746-1.326-5.947-1.326-8.693,0l-150,72.394c-3.456,1.668-5.653,5.168-5.653,9.006s2.197,7.338,5.653,9.006    l58.462,28.215v61.85c0,0.469,0.038,0.932,0.102,1.388h-2.779c-18.374,0-33.323,14.949-33.323,33.324    c0,18.374,14.949,33.323,33.323,33.323h3.23c3.039,28.346,18.479,53.031,40.773,68.514h-93.158    c-5.852,0-11.384,1.393-16.283,3.863v-147.58c0-8.979,7.305-16.283,16.283-16.283h25.832c5.522,0,10-4.478,10-10    c0-5.522-4.478-10-10-10h-25.832c-10.336,0-19.668,4.351-26.283,11.309c-6.615-6.958-15.947-11.309-26.283-11.309H10    c-5.522,0-10,4.478-10,10v180v39.014c0,5.522,4.478,10,10,10h11.997V426H10c-5.522,0-10,4.478-10,10v18c0,31.981,26.019,58,58,58    h396c31.981,0,58-26.019,58-58v-18c0-5.522-4.478-10-10-10h-12.003V279c0-5.522-4.478-10-10-10c-5.522,0-10,4.478-10,10v147h-428    v-48.973H346c5.522,0,10-4.478,10-10v-32.021c47.581-1.963,86.321-38.76,91.332-85.506h3.23c18.374,0,33.323-14.949,33.323-33.323    c0-18.375-14.949-33.324-33.323-33.324h-2.779c0.064-0.456,0.102-0.918,0.102-1.388v-61.85L492,98.324v45.664    C492,149.511,496.478,153.988,502,153.988z M256.115,229.501h-2.677c-7.346,0-13.323-5.976-13.323-13.323    s5.977-13.324,13.323-13.324h2.677V229.501z M20,158.014h131.717c8.979,0,16.283,7.305,16.283,16.283v147.58    c-4.899-2.471-10.432-3.863-16.283-3.863H20V158.014z M492,446v8c0,20.953-17.047,38-38,38H58c-20.953,0-38-17.047-38-38v-8H492z     M20,357.027v-19.013h131.717c8.979,0,16.283,7.305,16.283,16.283c0,0.948,0.141,1.862,0.387,2.73H20z M447.885,202.853h2.677    c7.346,0,13.323,5.978,13.323,13.324c0,7.347-5.977,13.323-13.323,13.323h-2.677V202.853z M336,357.029H187.613v-0.001    c0.247-0.869,0.387-1.783,0.387-2.73c0-8.979,7.305-16.283,16.283-16.283H336V357.029z M427.883,239.211    c0.002,41.844-34.04,75.886-75.883,75.886c-41.843,0-75.885-34.042-75.885-75.886v-42.42l71.857,31.614    c1.283,0.564,2.655,0.847,4.027,0.847s2.744-0.282,4.027-0.847l71.857-31.614V239.211z M427.885,174.941L352,208.326    l-75.885-33.386v-45.672l71.538,34.526c1.373,0.663,2.86,0.994,4.347,0.994c1.487,0,2.974-0.331,4.347-0.994l71.538-34.526    V174.941z M380.125,92.394h78.148L352,143.685l-126.993-61.29L352,21.104l106.273,51.29h-78.148c-5.522,0-10,4.478-10,10    C370.125,87.917,374.603,92.394,380.125,92.394z" data-original="#000000" class="active-path" data-old_color="#000000" fill="#FFFFFF"/>
	</g>
</g><g>
	<g>
		<path d="M509.069,181.52c-1.859-1.859-4.439-2.93-7.069-2.93s-5.21,1.07-7.07,2.93c-1.86,1.86-2.93,4.44-2.93,7.07    s1.069,5.21,2.93,7.07c1.86,1.859,4.44,2.93,7.07,2.93s5.21-1.07,7.069-2.93c1.86-1.86,2.931-4.44,2.931-7.07    S510.93,183.381,509.069,181.52z" data-original="#000000" class="active-path" data-old_color="#000000" fill="#FFFFFF"/>
	</g>
</g><g>
	<g>
		<path d="M133.88,254.93c-1.87-1.86-4.44-2.93-7.07-2.93c-2.63,0-5.21,1.069-7.069,2.93c-1.87,1.87-2.931,4.44-2.931,7.07    s1.061,5.21,2.931,7.069c1.859,1.87,4.43,2.931,7.069,2.931c2.63,0,5.21-1.061,7.07-2.931c1.86-1.859,2.93-4.43,2.93-7.069    C136.81,259.37,135.741,256.79,133.88,254.93z" data-original="#000000" class="active-path" data-old_color="#000000" fill="#FFFFFF"/>
	</g>
</g><g>
	<g>
		<path d="M89,252.017H57c-5.522,0-10,4.478-10,10c0,5.522,4.478,10,10,10h32c5.522,0,10-4.478,10-10    C99,256.495,94.523,252.017,89,252.017z" data-original="#000000" class="active-path" data-old_color="#000000" fill="#FFFFFF"/>
	</g>
</g><g>
	<g>
		<path d="M126.807,204.012H57c-5.522,0-10,4.478-10,10c0,5.522,4.478,10,10,10h69.807c5.522,0,10-4.478,10-10    C136.807,208.49,132.329,204.012,126.807,204.012z" data-original="#000000" class="active-path" data-old_color="#000000" fill="#FFFFFF"/>
	</g>
</g></g> </svg>
